{
.appVersion = "1361";
DisplayStrings = (
"/horncomb",
"/horncomb.case",
"o/ohorn",
"u/uhorn",
"/jdotless",
"O/Ohorn",
"U/Uhorn",
"/Schwa",
O,
"/tildecomb.case/Ohorntilde",
J,
"/macroncomb.case/Emacron",
F,
S,
"Ø",
"æ",
"/tildecomb",
"/tilde",
"/tildecomb.case",
"Õ",
"Ñ"
);
classes = (
{
automatic = 1;

glyphs = (
{
color = 4;
glyphname = A;
lastChange = "2022-05-11 04:45:39 +0000";
layers = (
{
anchors = (
{
name = bottom;
position = "{638, 0}";
},
{
name = ogonek;
position = "{1148, 10}";
},
{
name = top;
position = "{638, 1427}";
}
);
layerId = "410E5E1C-5FD0-457E-A79B-7BF13808BDAC";
paths = (
{
closed = 1;
nodes = (
"276 0 LINE",
"391 387 LINE",
"877 387 LINE",
"997 0 LINE",
"1262 0 LINE",
"795 1427 LINE",
"477 1427 LINE",
"14 0 LINE"
);
},
{
closed = 1;
nodes = (
"631 1206 LINE",
"635 1206 LINE",
"811 602 LINE",
"455 602 LINE"
);
}
);
userData = {
assembly = "SVTCA[0]	/* SetFreedomAndProjectionVectorToAxis */\012PUSHB[ ]	/* 1 value pushed */\0120 \012RCVT[ ]	/* ReadCVT */\012IF[ ]	/* If */\012PUSHB[ ]	/* 1 value pushed */\0120 \012MDAP[1]	/* MoveDirectAbsPt */\012ELSE[ ]	/* Else */\012PUSHB[ ]	/* 2 values pushed */\0120 23 \012MIAP[0]	/* MoveIndirectAbsPt */\012EIF[ ]	/* EndIf */\012PUSHB[ ]	/* 1 value pushed */\0120 \012RCVT[ ]	/* ReadCVT */\012IF[ ]	/* If */\012PUSHB[ ]	/* 1 value pushed */\0122 \012MDAP[1]	/* MoveDirectAbsPt */\012ELSE[ ]	/* Else */\012PUSHB[ ]	/* 2 values pushed */\0122 17 \012MIAP[0]	/* MoveIndirectAbsPt */\012EIF[ ]	/* EndIf */\012PUSHB[ ]	/* 1 value pushed */\0120 \012RCVT[ ]	/* ReadCVT */\012IF[ ]	/* If */\012PUSHB[ ]	/* 1 value pushed */\0126 \012MDAP[1]	/* MoveDirectAbsPt */\012ELSE[ ]	/* Else */\012PUSHB[ ]	/* 2 values pushed */\0126 17 \012MIAP[0]	/* MoveIndirectAbsPt */\012EIF[ ]	/* EndIf */\012PUSHB[ ]	/* 4 values pushed */\0128 3 4 4 \012CALL[ ]	/* CallFunction */\012PUSHB[ ]	/* 1 value pushed */\0120 \012SRP0[ ]	/* SetRefPoint0 */\012PUSHB[ ]	/* 2 values pushed */\0129 3 \012MIRP[10100]	/* MoveIndirectRelPt */\012IUP[0]	/* InterpolateUntPts */\012IUP[1]	/* InterpolateUntPts */";
};
width = 1276;
}
);
leftKerningGroup = A;
note = A;
rightKerningGroup = A;
unicode = 0041;
},
{
glyphname = Aogonek;
lastChange = "2022-05-11 04:40:54 +0000";
layers = (
{
layerId = "410E5E1C-5FD0-457E-A79B-7BF13808BDAC";
paths = (
{
closed = 1;
nodes = (
"276 0 LINE",
"391 387 LINE",
"877 387 LINE",
"997 0 LINE",
"930.08 -66.92 OFFCURVE",
"864 -166.805 OFFCURVE",
"864 -279 CURVE SMOOTH",
"864 -423.272 OFFCURVE",
"972.244 -500 OFFCURVE",
"1116 -500 CURVE SMOOTH",
"1154.667 -500 OFFCURVE",
"1188.667 -495.333 OFFCURVE",
"1214 -490 CURVE SMOOTH",
"1228.667 -487.333 OFFCURVE",
"1242.333 -483.667 OFFCURVE",
"1255 -479 CURVE",
"1255 -311 LINE",
"1248.333 -312.333 OFFCURVE",
"1241.333 -313.333 OFFCURVE",
"1234 -314 CURVE SMOOTH",
"1220.667 -316 OFFCURVE",
"1204.667 -317 OFFCURVE",
"1186 -317 CURVE SMOOTH",
"1118 -317 OFFCURVE",
"1085 -281 OFFCURVE",
"1085 -225 CURVE SMOOTH",
"1085 -157 OFFCURVE",
"1136.667 -74.667 OFFCURVE",
"1262 0 CURVE",
"795 1427 LINE",
"477 1427 LINE",
"14 0 LINE"
);
},
{
closed = 1;
nodes = (
"631 1206 LINE",
"635 1206 LINE",
"811 602 LINE",
"455 602 LINE"
);
}
);
userData = {
assembly = "PUSHB[ ]	/* 4 values pushed */\0125 10 23 4 \012CALL[ ]	/* CallFunction */\012NPUSHB[ ]	/* 11 values pushed */\0129 23 25 23 41 23 57 23 73 23 5 \012DELTAP1[ ]	/* DeltaExceptionP1 */\012PUSHB[ ]	/* 1 value pushed */\0125 \012SRP0[ ]	/* SetRefPoint0 */\012PUSHB[ ]	/* 1 value pushed */\01238 \012MDRP[11100]	/* MoveDirectRelPt */\012SVTCA[0]	/* SetFreedomAndProjectionVectorToAxis */\012PUSHB[ ]	/* 1 value pushed */\0120 \012RCVT[ ]	/* ReadCVT */\012IF[ ]	/* If */\012PUSHB[ ]	/* 1 value pushed */\0120 \012MDAP[1]	/* MoveDirectAbsPt */\012ELSE[ ]	/* Else */\012PUSHB[ ]	/* 2 values pushed */\0120 23 \012MIAP[0]	/* MoveIndirectAbsPt */\012EIF[ ]	/* EndIf */\012PUSHB[ ]	/* 1 value pushed */\0120 \012RCVT[ ]	/* ReadCVT */\012IF[ ]	/* If */\012PUSHB[ ]	/* 1 value pushed */\0122 \012MDAP[1]	/* MoveDirectAbsPt */\012ELSE[ ]	/* Else */\012PUSHB[ ]	/* 2 values pushed */\0122 17 \012MIAP[0]	/* MoveIndirectAbsPt */\012EIF[ ]	/* EndIf */\012PUSHB[ ]	/* 1 value pushed */\0120 \012RCVT[ ]	/* ReadCVT */\012IF[ ]	/* If */\012PUSHB[ ]	/* 1 value pushed */\01228 \012MDAP[1]	/* MoveDirectAbsPt */\012ELSE[ ]	/* Else */\012PUSHB[ ]	/* 2 values pushed */\01228 17 \012MIAP[0]	/* MoveIndirectAbsPt */\012EIF[ ]	/* EndIf */\012PUSHB[ ]	/* 1 value pushed */\0120 \012RCVT[ ]	/* ReadCVT */\012IF[ ]	/* If */\012PUSHB[ ]	/* 1 value pushed */\01231 \012MDAP[1]	/* MoveDirectAbsPt */\012ELSE[ ]	/* Else */\012PUSHB[ ]	/* 2 values pushed */\01231 17 \012MIAP[0]	/* MoveIndirectAbsPt */\012EIF[ ]	/* EndIf */\012PUSHB[ ]	/* 1 value pushed */\0120 \012RCVT[ ]	/* ReadCVT */\012IF[ ]	/* If */\012PUSHB[ ]	/* 1 value pushed */\01215 \012MDAP[1]	/* MoveDirectAbsPt */\012ELSE[ ]	/* Else */\012PUSHB[ ]	/* 2 values pushed */\01215 19 \012MIAP[0]	/* MoveIndirectAbsPt */\012EIF[ ]	/* EndIf */\012PUSHB[ ]	/* 1 value pushed */\0120 \012RCVT[ ]	/* ReadCVT */\012IF[ ]	/* If */\012PUSHB[ ]	/* 1 value pushed */\01218 \012MDAP[1]	/* MoveDirectAbsPt */\012ELSE[ ]	/* Else */\012PUSHB[ ]	/* 2 values pushed */\01218 19 \012MIAP[0]	/* MoveIndirectAbsPt */\012EIF[ ]	/* EndIf */\012PUSHB[ ]	/* 4 values pushed */\01233 3 29 4 \012CALL[ ]	/* CallFunction */\012PUSHB[ ]	/* 1 value pushed */\01215 \012SRP0[ ]	/* SetRefPoint0 */\012PUSHB[ ]	/* 2 values pushed */\0128 4 \012MIRP[10100]	/* MoveIndirectRelPt */\012NPUSHB[ ]	/* 11 values pushed */\0127 8 23 8 39 8 55 8 71 8 5 \012DELTAP1[ ]	/* DeltaExceptionP1 */\012PUSHB[ ]	/* 1 value pushed */\0120 \012SRP0[ ]	/* SetRefPoint0 */\012PUSHB[ ]	/* 2 values pushed */\01234 3 \012MIRP[10100]	/* MoveIndirectRelPt */\012IUP[0]	/* InterpolateUntPts */\012IUP[1]	/* InterpolateUntPts */";
};
width = 1276;
}
);
leftKerningGroup = A;
note = Aogonek;
rightKerningGroup = A;
unicode = 0104;
},
{
color = 4;
glyphname = AE;
lastChange = "2022-05-11 04:45:39 +0000";
layers = (
{
anchors = (
{
name = bottom;
position = "{857, 0}";
},
{
name = top;
position = "{857, 1427}";
}
);
layerId = "410E5E1C-5FD0-457E-A79B-7BF13808BDAC";
paths = (
{
closed = 1;
nodes = (
"272 0 LINE",
"387 387 LINE",
"873 387 LINE",
"993 0 LINE",
"1643 0 LINE",
"1643 223 LINE",
"1184 223 LINE",
"1057 610 LINE",
"1583 610 LINE",
"1583 829 LINE",
"985 829 LINE",
"862 1204 LINE",
"1567 1204 LINE",
"1567 1427 LINE",
"473 1427 LINE",
"10 0 LINE"
);
},
{
closed = 1;
nodes = (
"629 1204 LINE",
"635 1204 LINE",
"807 602 LINE",
"451 602 LINE"
);
}
);
userData = {
assembly = "SVTCA[0]	/* SetFreedomAndProjectionVectorToAxis */\012PUSHB[ ]	/* 1 value pushed */\0120 \012RCVT[ ]	/* ReadCVT */\012IF[ ]	/* If */\012PUSHB[ ]	/* 1 value pushed */\0120 \012MDAP[1]	/* MoveDirectAbsPt */\012ELSE[ ]	/* Else */\012PUSHB[ ]	/* 2 values pushed */\0120 23 \012MIAP[0]	/* MoveIndirectAbsPt */\012EIF[ ]	/* EndIf */\012PUSHB[ ]	/* 1 value pushed */\0120 \012RCVT[ ]	/* ReadCVT */\012IF[ ]	/* If */\012PUSHB[ ]	/* 1 value pushed */\01210 \012MDAP[1]	/* MoveDirectAbsPt */\012ELSE[ ]	/* Else */\012PUSHB[ ]	/* 2 values pushed */\01210 17 \012MIAP[0]	/* MoveIndirectAbsPt */\012EIF[ ]	/* EndIf */\012PUSHB[ ]	/* 1 value pushed */\0120 \012RCVT[ ]	/* ReadCVT */\012IF[ ]	/* If */\012PUSHB[ ]	/* 1 value pushed */\01214 \012MDAP[1]	/* MoveDirectAbsPt */\012ELSE[ ]	/* Else */\012PUSHB[ ]	/* 2 values pushed */\01214 17 \012MIAP[0]	/* MoveIndirectAbsPt */\012EIF[ ]	/* EndIf */\012PUSHB[ ]	/* 4 values pushed */\01216 3 12 4 \012CALL[ ]	/* CallFunction */\012PUSHB[ ]	/* 1 value pushed */\0120 \012SRP0[ ]	/* SetRefPoint0 */\012PUSHB[ ]	/* 2 values pushed */\0122 3 \012MIRP[10100]	/* MoveIndirectRelPt */\012PUSHB[ ]	/* 1 value pushed */\01216 \012SRP0[ ]	/* SetRefPoint0 */\012PUSHB[ ]	/* 1 value pushed */\0126 \012MDRP[10000]	/* MoveDirectRelPt */\012PUSHB[ ]	/* 1 value pushed */\0126 \012MDAP[1]	/* MoveDirectAbsPt */\012PUSHB[ ]	/* 2 values pushed */\0125 3 \012MIRP[10100]	/* MoveIndirectRelPt */\012PUSHB[ ]	/* 1 value pushed */\01210 \012SRP0[ ]	/* SetRefPoint0 */\012PUSHB[ ]	/* 2 values pushed */\0128 3 \012MIRP[10100]	/* MoveIndirectRelPt */\012PUSHB[ ]	/* 1 value pushed */\0122 \012SRP0[ ]	/* SetRefPoint0 */\012PUSHB[ ]	/* 1 value pushed */\01217 \012MDRP[10000]	/* MoveDirectRelPt */\012PUSHB[ ]	/* 1 value pushed */\01218 \012MDRP[10000]	/* MoveDirectRelPt */\012IUP[0]	/* InterpolateUntPts */\012IUP[1]	/* InterpolateUntPts */";
};
width = 1713;
}
);
leftKerningGroup = A;
note = AE;
rightKerningGroup = E;
unicode = 00C6;
},
{
color = 4;
glyphname = B;
lastChange = "2022-05-11 04:45:39 +0000";
layers = (
{
anchors = (
{
name = bottom;
position = "{656, 0}";
},
{
name = top;
position = "{656, 1427}";
}
);
layerId = "410E5E1C-5FD0-457E-A79B-7BF13808BDAC";
paths = (
{
closed = 1;
nodes = (
"770 0 LINE SMOOTH",
"914 0 OFFCURVE",
"1021.5 18.333 OFFCURVE",
"1091.5 81 CURVE SMOOTH",
"1161.5 143.667 OFFCURVE",
"1196 250 OFFCURVE",
"1196 426 CURVE SMOOTH",
"1196 514 OFFCURVE",
"1177 579.333 OFFCURVE",
"1149 626 CURVE SMOOTH",
"1135 649.333 OFFCURVE",
"1119.333 668.5 OFFCURVE",
"1102 683.5 CURVE SMOOTH",
"1054.75 724.39 OFFCURVE",
"996.852 743.239 OFFCURVE",
"954 748 CURVE",
"954 750 LINE",
"991.333 758 OFFCURVE",
"1037.333 772.667 OFFCURVE",
"1072 814 CURVE SMOOTH",
"1106.667 855.333 OFFCURVE",
"1133 922.667 OFFCURVE",
"1133 1036 CURVE SMOOTH",
"1133 1169.333 OFFCURVE",
"1104.833 1266.833 OFFCURVE",
"1041.5 1331.5 CURVE SMOOTH",
"978.167 1396.167 OFFCURVE",
"881 1427 OFFCURVE",
"741 1427 CURVE SMOOTH",
"182 1427 LINE",
"182 0 LINE"
);
},
{
closed = 1;
nodes = (
"422 1208 LINE",
"700 1208 LINE SMOOTH",
"828.699 1208 OFFCURVE",
"895 1161.165 OFFCURVE",
"895 1024 CURVE SMOOTH",
"895 859.109 OFFCURVE",
"844.479 825 OFFCURVE",
"694 825 CURVE SMOOTH",
"422 825 LINE"
);
},
{
closed = 1;
nodes = (
"422 621 LINE",
"729 621 LINE SMOOTH",
"885.359 621 OFFCURVE",
"944 590.401 OFFCURVE",
"944 422 CURVE SMOOTH",
"944 259.672 OFFCURVE",
"874.809 219 OFFCURVE",
"741 219 CURVE SMOOTH",
"422 219 LINE"
);
}
);
userData = {
assembly = "PUSHB[ ]	/* 4 values pushed */\01237 12 0 4 \012CALL[ ]	/* CallFunction */\012PUSHB[ ]	/* 4 values pushed */\0126 13 31 4 \012CALL[ ]	/* CallFunction */\012NPUSHB[ ]	/* 11 values pushed */\0129 31 25 31 41 31 57 31 73 31 5 \012DELTAP1[ ]	/* DeltaExceptionP1 */\012PUSHB[ ]	/* 3 values pushed */\01212 31 6 \012SRP1[ ]	/* SetRefPoint1 */\012SRP2[ ]	/* SetRefPoint2 */\012IP[ ]	/* InterpolatePts */\012PUSHB[ ]	/* 3 values pushed */\01244 31 6 \012SRP1[ ]	/* SetRefPoint1 */\012SRP2[ ]	/* SetRefPoint2 */\012IP[ ]	/* InterpolatePts */\012PUSHB[ ]	/* 1 value pushed */\01244 \012MDAP[1]	/* MoveDirectAbsPt */\012NPUSHB[ ]	/* 11 values pushed */\0129 44 25 44 41 44 57 44 73 44 5 \012DELTAP1[ ]	/* DeltaExceptionP1 */\012PUSHB[ ]	/* 2 values pushed */\01219 11 \012MIRP[10100]	/* MoveIndirectRelPt */\012PUSHB[ ]	/* 1 value pushed */\01237 \012SRP0[ ]	/* SetRefPoint0 */\012PUSHB[ ]	/* 1 value pushed */\01250 \012MDRP[10000]	/* MoveDirectRelPt */\012PUSHB[ ]	/* 1 value pushed */\01219 \012SRP0[ ]	/* SetRefPoint0 */\012PUSHB[ ]	/* 1 value pushed */\01253 \012MDRP[11100]	/* MoveDirectRelPt */\012SVTCA[0]	/* SetFreedomAndProjectionVectorToAxis */\012PUSHB[ ]	/* 1 value pushed */\0120 \012RCVT[ ]	/* ReadCVT */\012IF[ ]	/* If */\012PUSHB[ ]	/* 1 value pushed */\0120 \012MDAP[1]	/* MoveDirectAbsPt */\012ELSE[ ]	/* Else */\012PUSHB[ ]	/* 2 values pushed */\0120 23 \012MIAP[0]	/* MoveIndirectAbsPt */\012EIF[ ]	/* EndIf */\012PUSHB[ ]	/* 1 value pushed */\0120 \012RCVT[ ]	/* ReadCVT */\012IF[ ]	/* If */\012PUSHB[ ]	/* 1 value pushed */\01224 \012MDAP[1]	/* MoveDirectAbsPt */\012ELSE[ ]	/* Else */\012PUSHB[ ]	/* 2 values pushed */\01224 17 \012MIAP[0]	/* MoveIndirectAbsPt */\012EIF[ ]	/* EndIf */\012PUSHB[ ]	/* 4 values pushed */\01226 5 49 4 \012CALL[ ]	/* CallFunction */\012PUSHB[ ]	/* 3 values pushed */\01212 49 26 \012SRP1[ ]	/* SetRefPoint1 */\012SRP2[ ]	/* SetRefPoint2 */\012IP[ ]	/* InterpolatePts */\012PUSHB[ ]	/* 1 value pushed */\0120 \012SRP0[ ]	/* SetRefPoint0 */\012PUSHB[ ]	/* 2 values pushed */\01236 3 \012MIRP[10100]	/* MoveIndirectRelPt */\012PUSHB[ ]	/* 1 value pushed */\01224 \012SRP0[ ]	/* SetRefPoint0 */\012PUSHB[ ]	/* 2 values pushed */\01239 3 \012MIRP[10100]	/* MoveIndirectRelPt */\012IUP[0]	/* InterpolateUntPts */\012IUP[1]	/* InterpolateUntPts */";
};
width = 1312;
}
);
leftKerningGroup = H;
note = B;
rightKerningGroup = B;
unicode = 0042;
},
{
color = 4;
glyphname = C;
lastChange = "2022-05-11 05:00:11 +0000";
layers = (
{
anchors = (
{
name = bottom;
position = "{649, 0}";
},
{
name = top;
position = "{672, 1427}";
}
);
layerId = "410E5E1C-5FD0-457E-A79B-7BF13808BDAC";
paths = (
{
closed = 1;
nodes = (
"805.333 -25 OFFCURVE",
"905.667 -10 OFFCURVE",
"975 6 CURVE SMOOTH",
"1015 14.667 OFFCURVE",
"1049.667 25 OFFCURVE",
"1079 37 CURVE",
"1079 209 LINE",
"1055 207 OFFCURVE",
"1028 205 OFFCURVE",
"998 203 CURVE SMOOTH",
"947.333 200.333 OFFCURVE",
"874 197 OFFCURVE",
"786 197 CURVE SMOOTH",
"718 197 OFFCURVE",
"648.667 200.167 OFFCURVE",
"586 223.5 CURVE SMOOTH",
"554.667 235.167 OFFCURVE",
"525.667 252.333 OFFCURVE",
"499 275 CURVE SMOOTH",
"445.667 320.333 OFFCURVE",
"404.667 397.667 OFFCURVE",
"382 515 CURVE SMOOTH",
"370.667 573.667 OFFCURVE",
"365 644.333 OFFCURVE",
"365 727 CURVE SMOOTH",
"365 884.333 OFFCURVE",
"388.167 992.5 OFFCURVE",
"427.5 1066.5 CURVE SMOOTH",
"447.167 1103.5 OFFCURVE",
"470.333 1132.667 OFFCURVE",
"497 1154 CURVE SMOOTH",
"550.333 1196.667 OFFCURVE",
"613.167 1217.667 OFFCURVE",
"680.5 1223 CURVE SMOOTH",
"714.167 1225.667 OFFCURVE",
"748 1227 OFFCURVE",
"782 1227 CURVE SMOOTH",
"856.667 1227 OFFCURVE",
"927.667 1222.667 OFFCURVE",
"981 1220 CURVE SMOOTH",
"1012.333 1218 OFFCURVE",
"1041.667 1216 OFFCURVE",
"1069 1214 CURVE",
"1069 1386 LINE",
"1041.667 1398 OFFCURVE",
"1008.667 1408.667 OFFCURVE",
"970 1418 CURVE SMOOTH",
"903.333 1434 OFFCURVE",
"805.333 1450 OFFCURVE",
"672 1450 CURVE SMOOTH",
"593.333 1450 OFFCURVE",
"505.667 1435.333 OFFCURVE",
"423 1394 CURVE SMOOTH",
"381.667 1373.333 OFFCURVE",
"342.333 1345.5 OFFCURVE",
"305 1310.5 CURVE SMOOTH",
"230.333 1240.5 OFFCURVE",
"173.333 1133.167 OFFCURVE",
"140 984.5 CURVE SMOOTH",
"123.333 910.167 OFFCURVE",
"115 823.667 OFFCURVE",
"115 725 CURVE SMOOTH",
"115 519.667 OFFCURVE",
"146 368.833 OFFCURVE",
"198 257.5 CURVE SMOOTH",
"224 201.833 OFFCURVE",
"254.667 155.833 OFFCURVE",
"290 119.5 CURVE SMOOTH",
"360.667 46.833 OFFCURVE",
"443.167 5.333 OFFCURVE",
"534.5 -12 CURVE SMOOTH",
"580.167 -20.667 OFFCURVE",
"626 -25 OFFCURVE",
"672 -25 CURVE"
);
}
);
userData = {
assembly = "PUSHB[ ]	/* 4 values pushed */\01232 11 7 4 \012CALL[ ]	/* CallFunction */\012NPUSHB[ ]	/* 11 values pushed */\0126 32 22 32 38 32 54 32 70 32 5 \012DELTAP1[ ]	/* DeltaExceptionP1 */\012SVTCA[0]	/* SetFreedomAndProjectionVectorToAxis */\012PUSHB[ ]	/* 1 value pushed */\0120 \012RCVT[ ]	/* ReadCVT */\012IF[ ]	/* If */\012PUSHB[ ]	/* 1 value pushed */\01214 \012MDAP[1]	/* MoveDirectAbsPt */\012ELSE[ ]	/* Else */\012PUSHB[ ]	/* 2 values pushed */\01214 23 \012MIAP[0]	/* MoveIndirectAbsPt */\012EIF[ ]	/* EndIf */\012PUSHB[ ]	/* 1 value pushed */\0120 \012RCVT[ ]	/* ReadCVT */\012IF[ ]	/* If */\012PUSHB[ ]	/* 1 value pushed */\0120 \012MDAP[1]	/* MoveDirectAbsPt */\012ELSE[ ]	/* Else */\012PUSHB[ ]	/* 2 values pushed */\0120 17 \012MIAP[0]	/* MoveIndirectAbsPt */\012EIF[ ]	/* EndIf */\012PUSHB[ ]	/* 1 value pushed */\01214 \012SRP0[ ]	/* SetRefPoint0 */\012PUSHB[ ]	/* 2 values pushed */\01220 3 \012MIRP[10100]	/* MoveIndirectRelPt */\012PUSHB[ ]	/* 1 value pushed */\01222 \012MDRP[10000]	/* MoveDirectRelPt */\012PUSHB[ ]	/* 1 value pushed */\01222 \012MDAP[1]	/* MoveDirectAbsPt */\012PUSHB[ ]	/* 1 value pushed */\01225 \012MDRP[10000]	/* MoveDirectRelPt */\012PUSHB[ ]	/* 1 value pushed */\0120 \012SRP0[ ]	/* SetRefPoint0 */\012PUSHB[ ]	/* 2 values pushed */\01239 3 \012MIRP[10100]	/* MoveIndirectRelPt */\012NPUSHB[ ]	/* 11 values pushed */\0127 39 23 39 39 39 55 39 71 39 5 \012DELTAP1[ ]	/* DeltaExceptionP1 */\012PUSHB[ ]	/* 1 value pushed */\01242 \012MDRP[10000]	/* MoveDirectRelPt */\012PUSHB[ ]	/* 1 value pushed */\01242 \012MDAP[1]	/* MoveDirectAbsPt */\012PUSHB[ ]	/* 1 value pushed */\01244 \012MDRP[10000]	/* MoveDirectRelPt */\012PUSHB[ ]	/* 1 value pushed */\01244 \012MDAP[1]	/* MoveDirectAbsPt */\012IUP[0]	/* InterpolateUntPts */\012IUP[1]	/* InterpolateUntPts */";
};
width = 1179;
}
);
leftKerningGroup = O;
note = C;
rightKerningGroup = C;
unicode = 0043;
},
{
color = 4;
glyphname = D;
lastChange = "2022-05-11 04:45:39 +0000";
layers = (
{
anchors = (
{
name = bottom;
position = "{685, 0}";
},
{
name = center;
position = "{685, 714}";
},
{
name = top;
position = "{685, 1427}";
}
);
layerId = "410E5E1C-5FD0-457E-A79B-7BF13808BDAC";
paths = (
{
closed = 1;
nodes = (
"694 0 LINE SMOOTH",
"807.333 0 OFFCURVE",
"907.167 12.167 OFFCURVE",
"990.5 51.5 CURVE SMOOTH",
"1032.167 71.167 OFFCURVE",
"1069.333 98.167 OFFCURVE",
"1102 132.5 CURVE SMOOTH",
"1167.333 201.167 OFFCURVE",
"1213 307.167 OFFCURVE",
"1237 458.5 CURVE SMOOTH",
"1249 534.167 OFFCURVE",
"1255 623 OFFCURVE",
"1255 725 CURVE SMOOTH",
"1255 922.333 OFFCURVE",
"1228 1067 OFFCURVE",
"1180 1171 CURVE SMOOTH",
"1156 1223 OFFCURVE",
"1127 1265.667 OFFCURVE",
"1093 1299 CURVE SMOOTH",
"1025 1365.667 OFFCURVE",
"942.167 1401.333 OFFCURVE",
"845.5 1416 CURVE SMOOTH",
"797.167 1423.333 OFFCURVE",
"746.667 1427 OFFCURVE",
"694 1427 CURVE SMOOTH",
"182 1427 LINE",
"182 0 LINE"
);
},
{
closed = 1;
nodes = (
"422 1204 LINE",
"629 1204 LINE SMOOTH",
"699.667 1204 OFFCURVE",
"765 1202.833 OFFCURVE",
"821 1183.5 CURVE SMOOTH",
"849 1173.833 OFFCURVE",
"874.167 1159.167 OFFCURVE",
"896.5 1139.5 CURVE SMOOTH",
"941.167 1100.167 OFFCURVE",
"973.667 1030.833 OFFCURVE",
"991 923.5 CURVE SMOOTH",
"999.667 869.833 OFFCURVE",
"1004 804.333 OFFCURVE",
"1004 727 CURVE SMOOTH",
"1004 560.333 OFFCURVE",
"985.167 449.667 OFFCURVE",
"952.5 375 CURVE SMOOTH",
"936.167 337.667 OFFCURVE",
"916.5 308.833 OFFCURVE",
"893.5 288.5 CURVE SMOOTH",
"847.5 247.833 OFFCURVE",
"792 228.833 OFFCURVE",
"728 225.5 CURVE SMOOTH",
"696 223.833 OFFCURVE",
"663 223 OFFCURVE",
"629 223 CURVE SMOOTH",
"422 223 LINE"
);
}
);
userData = {
assembly = "PUSHB[ ]	/* 1 value pushed */\01234 \012MDAP[1]	/* MoveDirectAbsPt */\012PUSHB[ ]	/* 1 value pushed */\01224 \012MDAP[1]	/* MoveDirectAbsPt */\012PUSHB[ ]	/* 1 value pushed */\01234 \012SRP0[ ]	/* SetRefPoint0 */\012PUSHB[ ]	/* 1 value pushed */\0120 \012MDRP[10000]	/* MoveDirectRelPt */\012PUSHB[ ]	/* 1 value pushed */\0120 \012MDAP[1]	/* MoveDirectAbsPt */\012NPUSHB[ ]	/* 11 values pushed */\0129 24 25 24 41 24 57 24 73 24 5 \012DELTAP1[ ]	/* DeltaExceptionP1 */\012PUSHB[ ]	/* 1 value pushed */\01224 \012SRP0[ ]	/* SetRefPoint0 */\012PUSHB[ ]	/* 2 values pushed */\0128 11 \012MIRP[10100]	/* MoveIndirectRelPt */\012PUSHB[ ]	/* 1 value pushed */\0120 \012SRP0[ ]	/* SetRefPoint0 */\012PUSHB[ ]	/* 2 values pushed */\01232 12 \012MIRP[10100]	/* MoveIndirectRelPt */\012PUSHB[ ]	/* 1 value pushed */\0128 \012SRP0[ ]	/* SetRefPoint0 */\012PUSHB[ ]	/* 1 value pushed */\01235 \012MDRP[11100]	/* MoveDirectRelPt */\012SVTCA[0]	/* SetFreedomAndProjectionVectorToAxis */\012PUSHB[ ]	/* 1 value pushed */\0120 \012RCVT[ ]	/* ReadCVT */\012IF[ ]	/* If */\012PUSHB[ ]	/* 1 value pushed */\0120 \012MDAP[1]	/* MoveDirectAbsPt */\012ELSE[ ]	/* Else */\012PUSHB[ ]	/* 2 values pushed */\0120 23 \012MIAP[0]	/* MoveIndirectAbsPt */\012EIF[ ]	/* EndIf */\012PUSHB[ ]	/* 1 value pushed */\0120 \012RCVT[ ]	/* ReadCVT */\012IF[ ]	/* If */\012PUSHB[ ]	/* 1 value pushed */\01215 \012MDAP[1]	/* MoveDirectAbsPt */\012ELSE[ ]	/* Else */\012PUSHB[ ]	/* 2 values pushed */\01215 17 \012MIAP[0]	/* MoveIndirectAbsPt */\012EIF[ ]	/* EndIf */\012PUSHB[ ]	/* 2 values pushed */\01217 3 \012MIRP[10100]	/* MoveIndirectRelPt */\012PUSHB[ ]	/* 1 value pushed */\0120 \012SRP0[ ]	/* SetRefPoint0 */\012PUSHB[ ]	/* 2 values pushed */\01231 3 \012MIRP[10100]	/* MoveIndirectRelPt */\012IUP[0]	/* InterpolateUntPts */\012IUP[1]	/* InterpolateUntPts */";
};
width = 1370;
}
);
leftKerningGroup = H;
note = D;
rightKerningGroup = O;
unicode = 0044;
},
{
glyphname = Eth;
lastChange = "2022-05-11 04:40:54 +0000";
layers = (
{
layerId = "410E5E1C-5FD0-457E-A79B-7BF13808BDAC";
paths = (
{
closed = 1;
nodes = (
"743 0 LINE SMOOTH",
"856.333 0 OFFCURVE",
"956.167 12.167 OFFCURVE",
"1039.5 51.5 CURVE SMOOTH",
"1081.167 71.167 OFFCURVE",
"1118.333 98.167 OFFCURVE",
"1151 132.5 CURVE SMOOTH",
"1216.333 201.167 OFFCURVE",
"1262 307.167 OFFCURVE",
"1286 458.5 CURVE SMOOTH",
"1298 534.167 OFFCURVE",
"1304 623 OFFCURVE",
"1304 725 CURVE SMOOTH",
"1304 922.333 OFFCURVE",
"1277 1067 OFFCURVE",
"1229 1171 CURVE SMOOTH",
"1205 1223 OFFCURVE",
"1176 1265.667 OFFCURVE",
"1142 1299 CURVE SMOOTH",
"1074 1365.667 OFFCURVE",
"991.167 1401.333 OFFCURVE",
"894.5 1416 CURVE SMOOTH",
"846.167 1423.333 OFFCURVE",
"795.667 1427 OFFCURVE",
"743 1427 CURVE SMOOTH",
"231 1427 LINE",
"231 823 LINE",
"60 823 LINE",
"60 605 LINE",
"231 605 LINE",
"231 0 LINE"
);
},
{
closed = 1;
nodes = (
"471 605 LINE",
"795 605 LINE",
"795 823 LINE",
"471 823 LINE",
"471 1204 LINE",
"678 1204 LINE SMOOTH",
"748.667 1204 OFFCURVE",
"814 1202.833 OFFCURVE",
"870 1183.5 CURVE SMOOTH",
"898 1173.833 OFFCURVE",
"923.167 1159.167 OFFCURVE",
"945.5 1139.5 CURVE SMOOTH",
"990.167 1100.167 OFFCURVE",
"1022.667 1030.833 OFFCURVE",
"1040 923.5 CURVE SMOOTH",
"1048.667 869.833 OFFCURVE",
"1053 804.333 OFFCURVE",
"1053 727 CURVE SMOOTH",
"1053 560.333 OFFCURVE",
"1034.167 449.667 OFFCURVE",
"1001.5 375 CURVE SMOOTH",
"985.167 337.667 OFFCURVE",
"965.5 308.833 OFFCURVE",
"942.5 288.5 CURVE SMOOTH",
"896.5 247.833 OFFCURVE",
"841 228.833 OFFCURVE",
"777 225.5 CURVE SMOOTH",
"745 223.833 OFFCURVE",
"712 223 OFFCURVE",
"678 223 CURVE SMOOTH",
"471 223 LINE"
);
}
);
userData = {
assembly = "PUSHB[ ]	/* 4 values pushed */\01212 11 28 4 \012CALL[ ]	/* CallFunction */\012PUSHB[ ]	/* 3 values pushed */\01239 1 3 \012CALL[ ]	/* CallFunction */\012PUSHB[ ]	/* 3 values pushed */\0120 1 39 \012SRP1[ ]	/* SetRefPoint1 */\012SRP2[ ]	/* SetRefPoint2 */\012IP[ ]	/* InterpolatePts */\012PUSHB[ ]	/* 1 value pushed */\0120 \012MDAP[1]	/* MoveDirectAbsPt */\012PUSHB[ ]	/* 1 value pushed */\0123 \012MDRP[10000]	/* MoveDirectRelPt */\012NPUSHB[ ]	/* 11 values pushed */\0129 28 25 28 41 28 57 28 73 28 5 \012DELTAP1[ ]	/* DeltaExceptionP1 */\012PUSHB[ ]	/* 1 value pushed */\0120 \012SRP0[ ]	/* SetRefPoint0 */\012PUSHB[ ]	/* 2 values pushed */\01240 12 \012MIRP[10100]	/* MoveIndirectRelPt */\012PUSHB[ ]	/* 1 value pushed */\01236 \012MDRP[10000]	/* MoveDirectRelPt */\012PUSHB[ ]	/* 1 value pushed */\01212 \012SRP0[ ]	/* SetRefPoint0 */\012PUSHB[ ]	/* 1 value pushed */\01243 \012MDRP[11100]	/* MoveDirectRelPt */\012SVTCA[0]	/* SetFreedomAndProjectionVectorToAxis */\012PUSHB[ ]	/* 1 value pushed */\0120 \012RCVT[ ]	/* ReadCVT */\012IF[ ]	/* If */\012PUSHB[ ]	/* 1 value pushed */\0124 \012MDAP[1]	/* MoveDirectAbsPt */\012ELSE[ ]	/* Else */\012PUSHB[ ]	/* 2 values pushed */\0124 23 \012MIAP[0]	/* MoveIndirectAbsPt */\012EIF[ ]	/* EndIf */\012PUSHB[ ]	/* 1 value pushed */\0120 \012RCVT[ ]	/* ReadCVT */\012IF[ ]	/* If */\012PUSHB[ ]	/* 1 value pushed */\01219 \012MDAP[1]	/* MoveDirectAbsPt */\012ELSE[ ]	/* Else */\012PUSHB[ ]	/* 2 values pushed */\01219 17 \012MIAP[0]	/* MoveIndirectAbsPt */\012EIF[ ]	/* EndIf */\012PUSHB[ ]	/* 4 values pushed */\0123 3 0 4 \012CALL[ ]	/* CallFunction */\012PUSHB[ ]	/* 1 value pushed */\01219 \012SRP0[ ]	/* SetRefPoint0 */\012PUSHB[ ]	/* 2 values pushed */\01221 3 \012MIRP[10100]	/* MoveIndirectRelPt */\012PUSHB[ ]	/* 1 value pushed */\0124 \012SRP0[ ]	/* SetRefPoint0 */\012PUSHB[ ]	/* 2 values pushed */\01235 3 \012MIRP[10100]	/* MoveIndirectRelPt */\012PUSHB[ ]	/* 1 value pushed */\0123 \012SRP0[ ]	/* SetRefPoint0 */\012PUSHB[ ]	/* 1 value pushed */\01237 \012MDRP[10000]	/* MoveDirectRelPt */\012PUSHB[ ]	/* 1 value pushed */\0120 \012SRP0[ ]	/* SetRefPoint0 */\012PUSHB[ ]	/* 1 value pushed */\01239 \012MDRP[10000]	/* MoveDirectRelPt */\012IUP[0]	/* InterpolateUntPts */\012IUP[1]	/* InterpolateUntPts */";
};
width = 1419;
}
);
leftKerningGroup = H;
note = Eth;
rightKerningGroup = O;
unicode = 00D0;
},
{
glyphname = Dcroat;
lastChange = "2022-05-11 04:40:54 +0000";
layers = (
{
layerId = "410E5E1C-5FD0-457E-A79B-7BF13808BDAC";
paths = (
{
closed = 1;
nodes = (
"743 0 LINE SMOOTH",
"856.333 0 OFFCURVE",
"956.167 12.167 OFFCURVE",
"1039.5 51.5 CURVE SMOOTH",
"1081.167 71.167 OFFCURVE",
"1118.333 98.167 OFFCURVE",
"1151 132.5 CURVE SMOOTH",
"1216.333 201.167 OFFCURVE",
"1262 307.167 OFFCURVE",
"1286 458.5 CURVE SMOOTH",
"1298 534.167 OFFCURVE",
"1304 623 OFFCURVE",
"1304 725 CURVE SMOOTH",
"1304 922.333 OFFCURVE",
"1277 1067 OFFCURVE",
"1229 1171 CURVE SMOOTH",
"1205 1223 OFFCURVE",
"1176 1265.667 OFFCURVE",
"1142 1299 CURVE SMOOTH",
"1074 1365.667 OFFCURVE",
"991.167 1401.333 OFFCURVE",
"894.5 1416 CURVE SMOOTH",
"846.167 1423.333 OFFCURVE",
"795.667 1427 OFFCURVE",
"743 1427 CURVE SMOOTH",
"231 1427 LINE",
"231 823 LINE",
"60 823 LINE",
"60 605 LINE",
"231 605 LINE",
"231 0 LINE"
);
},
{
closed = 1;
nodes = (
"471 605 LINE",
"795 605 LINE",
"795 823 LINE",
"471 823 LINE",
"471 1204 LINE",
"678 1204 LINE SMOOTH",
"748.667 1204 OFFCURVE",
"814 1202.833 OFFCURVE",
"870 1183.5 CURVE SMOOTH",
"898 1173.833 OFFCURVE",
"923.167 1159.167 OFFCURVE",
"945.5 1139.5 CURVE SMOOTH",
"990.167 1100.167 OFFCURVE",
"1022.667 1030.833 OFFCURVE",
"1040 923.5 CURVE SMOOTH",
"1048.667 869.833 OFFCURVE",
"1053 804.333 OFFCURVE",
"1053 727 CURVE SMOOTH",
"1053 560.333 OFFCURVE",
"1034.167 449.667 OFFCURVE",
"1001.5 375 CURVE SMOOTH",
"985.167 337.667 OFFCURVE",
"965.5 308.833 OFFCURVE",
"942.5 288.5 CURVE SMOOTH",
"896.5 247.833 OFFCURVE",
"841 228.833 OFFCURVE",
"777 225.5 CURVE SMOOTH",
"745 223.833 OFFCURVE",
"712 223 OFFCURVE",
"678 223 CURVE SMOOTH",
"471 223 LINE"
);
}
);
userData = {
assembly = "PUSHB[ ]	/* 4 values pushed */\01212 11 28 4 \012CALL[ ]	/* CallFunction */\012PUSHB[ ]	/* 3 values pushed */\01239 1 3 \012CALL[ ]	/* CallFunction */\012PUSHB[ ]	/* 3 values pushed */\0120 1 39 \012SRP1[ ]	/* SetRefPoint1 */\012SRP2[ ]	/* SetRefPoint2 */\012IP[ ]	/* InterpolatePts */\012PUSHB[ ]	/* 1 value pushed */\0120 \012MDAP[1]	/* MoveDirectAbsPt */\012PUSHB[ ]	/* 1 value pushed */\0123 \012MDRP[10000]	/* MoveDirectRelPt */\012NPUSHB[ ]	/* 11 values pushed */\0129 28 25 28 41 28 57 28 73 28 5 \012DELTAP1[ ]	/* DeltaExceptionP1 */\012PUSHB[ ]	/* 1 value pushed */\0120 \012SRP0[ ]	/* SetRefPoint0 */\012PUSHB[ ]	/* 2 values pushed */\01240 12 \012MIRP[10100]	/* MoveIndirectRelPt */\012PUSHB[ ]	/* 1 value pushed */\01236 \012MDRP[10000]	/* MoveDirectRelPt */\012PUSHB[ ]	/* 1 value pushed */\01212 \012SRP0[ ]	/* SetRefPoint0 */\012PUSHB[ ]	/* 1 value pushed */\01243 \012MDRP[11100]	/* MoveDirectRelPt */\012SVTCA[0]	/* SetFreedomAndProjectionVectorToAxis */\012PUSHB[ ]	/* 1 value pushed */\0120 \012RCVT[ ]	/* ReadCVT */\012IF[ ]	/* If */\012PUSHB[ ]	/* 1 value pushed */\0124 \012MDAP[1]	/* MoveDirectAbsPt */\012ELSE[ ]	/* Else */\012PUSHB[ ]	/* 2 values pushed */\0124 23 \012MIAP[0]	/* MoveIndirectAbsPt */\012EIF[ ]	/* EndIf */\012PUSHB[ ]	/* 1 value pushed */\0120 \012RCVT[ ]	/* ReadCVT */\012IF[ ]	/* If */\012PUSHB[ ]	/* 1 value pushed */\01219 \012MDAP[1]	/* MoveDirectAbsPt */\012ELSE[ ]	/* Else */\012PUSHB[ ]	/* 2 values pushed */\01219 17 \012MIAP[0]	/* MoveIndirectAbsPt */\012EIF[ ]	/* EndIf */\012PUSHB[ ]	/* 4 values pushed */\0123 3 0 4 \012CALL[ ]	/* CallFunction */\012PUSHB[ ]	/* 1 value pushed */\01219 \012SRP0[ ]	/* SetRefPoint0 */\012PUSHB[ ]	/* 2 values pushed */\01221 3 \012MIRP[10100]	/* MoveIndirectRelPt */\012PUSHB[ ]	/* 1 value pushed */\0124 \012SRP0[ ]	/* SetRefPoint0 */\012PUSHB[ ]	/* 2 values pushed */\01235 3 \012MIRP[10100]	/* MoveIndirectRelPt */\012PUSHB[ ]	/* 1 value pushed */\0123 \012SRP0[ ]	/* SetRefPoint0 */\012PUSHB[ ]	/* 1 value pushed */\01237 \012MDRP[10000]	/* MoveDirectRelPt */\012PUSHB[ ]	/* 1 value pushed */\0120 \012SRP0[ ]	/* SetRefPoint0 */\012PUSHB[ ]	/* 1 value pushed */\01239 \012MDRP[10000]	/* MoveDirectRelPt */\012IUP[0]	/* InterpolateUntPts */\012IUP[1]	/* InterpolateUntPts */";
};
width = 1419;
}
);
leftKerningGroup = D;
note = Dcroat;
rightKerningGroup = D;
unicode = 0110;
},
{
color = 4;
glyphname = E;
lastChange = "2022-05-11 05:01:12 +0000";
layers = (
{
anchors = (
{
name = bottom;
position = "{615, 0}";
},
{
name = ogonek;
position = "{1057, 0}";
},
{
name = top;
position = "{621, 1427}";
},
{
name = topleft;
position = "{20, 1427}";
}
);
layerId = "410E5E1C-5FD0-457E-A79B-7BF13808BDAC";
paths = (
{
closed = 1;
nodes = (
"1057 0 LINE",
"1057 223 LINE",
"422 223 LINE",
"422 610 LINE",
"940 610 LINE",
"940 829 LINE",
"422 829 LINE",
"422 1204 LINE",
"1040 1204 LINE",
"1040 1427 LINE",
"182 1427 LINE",
"182 0 LINE"
);
}
);
userData = {
assembly = "PUSHB[ ]	/* 4 values pushed */\0123 12 0 4 \012CALL[ ]	/* CallFunction */\012PUSHB[ ]	/* 1 value pushed */\0123 \012SRP0[ ]	/* SetRefPoint0 */\012PUSHB[ ]	/* 1 value pushed */\0127 \012MDRP[10000]	/* MoveDirectRelPt */\012SVTCA[0]	/* SetFreedomAndProjectionVectorToAxis */\012PUSHB[ ]	/* 1 value pushed */\0120 \012RCVT[ ]	/* ReadCVT */\012IF[ ]	/* If */\012PUSHB[ ]	/* 1 value pushed */\0120 \012MDAP[1]	/* MoveDirectAbsPt */\012ELSE[ ]	/* Else */\012PUSHB[ ]	/* 2 values pushed */\0120 23 \012MIAP[0]	/* MoveIndirectAbsPt */\012EIF[ ]	/* EndIf */\012PUSHB[ ]	/* 1 value pushed */\0120 \012RCVT[ ]	/* ReadCVT */\012IF[ ]	/* If */\012PUSHB[ ]	/* 1 value pushed */\01210 \012MDAP[1]	/* MoveDirectAbsPt */\012ELSE[ ]	/* Else */\012PUSHB[ ]	/* 2 values pushed */\01210 17 \012MIAP[0]	/* MoveIndirectAbsPt */\012EIF[ ]	/* EndIf */\012PUSHB[ ]	/* 4 values pushed */\0125 3 6 4 \012CALL[ ]	/* CallFunction */\012PUSHB[ ]	/* 1 value pushed */\0120 \012SRP0[ ]	/* SetRefPoint0 */\012PUSHB[ ]	/* 2 values pushed */\0122 3 \012MIRP[10100]	/* MoveIndirectRelPt */\012PUSHB[ ]	/* 1 value pushed */\01210 \012SRP0[ ]	/* SetRefPoint0 */\012PUSHB[ ]	/* 2 values pushed */\0128 3 \012MIRP[10100]	/* MoveIndirectRelPt */\012IUP[0]	/* InterpolateUntPts */\012IUP[1]	/* InterpolateUntPts */";
};
width = 1149;
}
);
leftKerningGroup = H;
note = E;
rightKerningGroup = E;
unicode = 0045;
},
{
glyphname = Eogonek;
lastChange = "2022-05-11 04:40:54 +0000";
layers = (
{
layerId = "410E5E1C-5FD0-457E-A79B-7BF13808BDAC";
paths = (
{
closed = 1;
nodes = (
"795 0 LINE",
"729.685 -68.154 OFFCURVE",
"663 -166.939 OFFCURVE",
"663 -279 CURVE SMOOTH",
"663 -423.272 OFFCURVE",
"771.244 -500 OFFCURVE",
"915 -500 CURVE SMOOTH",
"953.667 -500 OFFCURVE",
"986.333 -495.333 OFFCURVE",
"1013 -490 CURVE SMOOTH",
"1027.667 -487.333 OFFCURVE",
"1041.667 -483.667 OFFCURVE",
"1055 -479 CURVE",
"1055 -311 LINE",
"1048.333 -312.333 OFFCURVE",
"1041.333 -313.333 OFFCURVE",
"1034 -314 CURVE SMOOTH",
"1020.667 -316 OFFCURVE",
"1004.333 -317 OFFCURVE",
"985 -317 CURVE SMOOTH",
"917 -317 OFFCURVE",
"885 -281 OFFCURVE",
"885 -225 CURVE SMOOTH",
"885 -157 OFFCURVE",
"931.667 -80 OFFCURVE",
"1057 0 CURVE",
"1057 223 LINE",
"422 223 LINE",
"422 610 LINE",
"940 610 LINE",
"940 829 LINE",
"422 829 LINE",
"422 1204 LINE",
"1040 1204 LINE",
"1040 1427 LINE",
"182 1427 LINE",
"182 0 LINE"
);
}
);
userData = {
assembly = "PUSHB[ ]	/* 1 value pushed */\01238 \012MDAP[1]	/* MoveDirectAbsPt */\012PUSHB[ ]	/* 1 value pushed */\01231 \012MDAP[1]	/* MoveDirectAbsPt */\012PUSHB[ ]	/* 1 value pushed */\01238 \012SRP0[ ]	/* SetRefPoint0 */\012PUSHB[ ]	/* 1 value pushed */\0120 \012MDRP[10000]	/* MoveDirectRelPt */\012PUSHB[ ]	/* 1 value pushed */\0120 \012MDAP[1]	/* MoveDirectAbsPt */\012PUSHB[ ]	/* 2 values pushed */\0123 12 \012MIRP[10100]	/* MoveIndirectRelPt */\012PUSHB[ ]	/* 1 value pushed */\0127 \012MDRP[10000]	/* MoveDirectRelPt */\012NPUSHB[ ]	/* 11 values pushed */\0129 31 25 31 41 31 57 31 73 31 5 \012DELTAP1[ ]	/* DeltaExceptionP1 */\012PUSHB[ ]	/* 1 value pushed */\01231 \012SRP0[ ]	/* SetRefPoint0 */\012PUSHB[ ]	/* 2 values pushed */\01213 10 \012MIRP[10100]	/* MoveIndirectRelPt */\012PUSHB[ ]	/* 3 values pushed */\01236 31 13 \012SRP1[ ]	/* SetRefPoint1 */\012SRP2[ ]	/* SetRefPoint2 */\012IP[ ]	/* InterpolatePts */\012PUSHB[ ]	/* 1 value pushed */\01239 \012MDRP[11100]	/* MoveDirectRelPt */\012SVTCA[0]	/* SetFreedomAndProjectionVectorToAxis */\012PUSHB[ ]	/* 1 value pushed */\0120 \012RCVT[ ]	/* ReadCVT */\012IF[ ]	/* If */\012PUSHB[ ]	/* 1 value pushed */\0120 \012MDAP[1]	/* MoveDirectAbsPt */\012ELSE[ ]	/* Else */\012PUSHB[ ]	/* 2 values pushed */\0120 23 \012MIAP[0]	/* MoveIndirectAbsPt */\012EIF[ ]	/* EndIf */\012PUSHB[ ]	/* 1 value pushed */\0120 \012RCVT[ ]	/* ReadCVT */\012IF[ ]	/* If */\012PUSHB[ ]	/* 1 value pushed */\01210 \012MDAP[1]	/* MoveDirectAbsPt */\012ELSE[ ]	/* Else */\012PUSHB[ ]	/* 2 values pushed */\01210 17 \012MIAP[0]	/* MoveIndirectAbsPt */\012EIF[ ]	/* EndIf */\012PUSHB[ ]	/* 1 value pushed */\0120 \012RCVT[ ]	/* ReadCVT */\012IF[ ]	/* If */\012PUSHB[ ]	/* 1 value pushed */\01236 \012MDAP[1]	/* MoveDirectAbsPt */\012ELSE[ ]	/* Else */\012PUSHB[ ]	/* 2 values pushed */\01236 17 \012MIAP[0]	/* MoveIndirectAbsPt */\012EIF[ ]	/* EndIf */\012PUSHB[ ]	/* 1 value pushed */\0120 \012RCVT[ ]	/* ReadCVT */\012IF[ ]	/* If */\012PUSHB[ ]	/* 1 value pushed */\01223 \012MDAP[1]	/* MoveDirectAbsPt */\012ELSE[ ]	/* Else */\012PUSHB[ ]	/* 2 values pushed */\01223 19 \012MIAP[0]	/* MoveIndirectAbsPt */\012EIF[ ]	/* EndIf */\012PUSHB[ ]	/* 1 value pushed */\0120 \012RCVT[ ]	/* ReadCVT */\012IF[ ]	/* If */\012PUSHB[ ]	/* 1 value pushed */\01226 \012MDAP[1]	/* MoveDirectAbsPt */\012ELSE[ ]	/* Else */\012PUSHB[ ]	/* 2 values pushed */\01226 19 \012MIAP[0]	/* MoveIndirectAbsPt */\012EIF[ ]	/* EndIf */\012PUSHB[ ]	/* 4 values pushed */\0125 3 6 4 \012CALL[ ]	/* CallFunction */\012PUSHB[ ]	/* 1 value pushed */\0120 \012SRP0[ ]	/* SetRefPoint0 */\012PUSHB[ ]	/* 2 values pushed */\0122 3 \012MIRP[10100]	/* MoveIndirectRelPt */\012PUSHB[ ]	/* 1 value pushed */\01236 \012SRP0[ ]	/* SetRefPoint0 */\012PUSHB[ ]	/* 2 values pushed */\0128 3 \012MIRP[10100]	/* MoveIndirectRelPt */\012PUSHB[ ]	/* 1 value pushed */\0129 \012MDRP[10000]	/* MoveDirectRelPt */\012PUSHB[ ]	/* 1 value pushed */\01223 \012SRP0[ ]	/* SetRefPoint0 */\012PUSHB[ ]	/* 2 values pushed */\01216 4 \012MIRP[10100]	/* MoveIndirectRelPt */\012NPUSHB[ ]	/* 11 values pushed */\0127 16 23 16 39 16 55 16 71 16 5 \012DELTAP1[ ]	/* DeltaExceptionP1 */\012IUP[0]	/* InterpolateUntPts */\012IUP[1]	/* InterpolateUntPts */";
};
width = 1149;
}
);
leftKerningGroup = H;
note = Eogonek;
rightKerningGroup = E;
unicode = 0118;
},
{
color = 4;
glyphname = F;
lastChange = "2022-05-11 05:38:11 +0000";
layers = (
{
anchors = (
{
name = bottom;
position = "{555, 0}";
},
{
name = top;
position = "{612, 1427}";
}
);
layerId = "410E5E1C-5FD0-457E-A79B-7BF13808BDAC";
paths = (
{
closed = 1;
nodes = (
"422 0 LINE",
"422 551 LINE",
"963 551 LINE",
"963 774 LINE",
"422 774 LINE",
"422 1204 LINE",
"1040 1204 LINE",
"1040 1427 LINE",
"182 1427 LINE",
"182 0 LINE"
);
}
);
userData = {
assembly = "PUSHB[ ]	/* 4 values pushed */\0123 12 0 4 \012CALL[ ]	/* CallFunction */\012PUSHB[ ]	/* 1 value pushed */\0123 \012SRP0[ ]	/* SetRefPoint0 */\012PUSHB[ ]	/* 1 value pushed */\0127 \012MDRP[10000]	/* MoveDirectRelPt */\012SVTCA[0]	/* SetFreedomAndProjectionVectorToAxis */\012PUSHB[ ]	/* 1 value pushed */\0120 \012RCVT[ ]	/* ReadCVT */\012IF[ ]	/* If */\012PUSHB[ ]	/* 1 value pushed */\0120 \012MDAP[1]	/* MoveDirectAbsPt */\012ELSE[ ]	/* Else */\012PUSHB[ ]	/* 2 values pushed */\0120 23 \012MIAP[0]	/* MoveIndirectAbsPt */\012EIF[ ]	/* EndIf */\012PUSHB[ ]	/* 1 value pushed */\0120 \012RCVT[ ]	/* ReadCVT */\012IF[ ]	/* If */\012PUSHB[ ]	/* 1 value pushed */\0128 \012MDAP[1]	/* MoveDirectAbsPt */\012ELSE[ ]	/* Else */\012PUSHB[ ]	/* 2 values pushed */\0128 17 \012MIAP[0]	/* MoveIndirectAbsPt */\012EIF[ ]	/* EndIf */\012PUSHB[ ]	/* 4 values pushed */\0125 3 6 4 \012CALL[ ]	/* CallFunction */\012PUSHB[ ]	/* 1 value pushed */\0120 \012SRP0[ ]	/* SetRefPoint0 */\012PUSHB[ ]	/* 2 values pushed */\0122 3 \012MIRP[10100]	/* MoveIndirectRelPt */\012IUP[0]	/* InterpolateUntPts */\012IUP[1]	/* InterpolateUntPts */";
};
width = 1110;
}
);
leftKerningGroup = H;
note = F;
rightKerningGroup = F;
unicode = 0046;
},
{
color = 4;
glyphname = G;
lastChange = "2022-05-11 04:45:39 +0000";
layers = (
{
anchors = (
{
name = bottom;
position = "{675, 0}";
},
{
name = top;
position = "{675, 1427}";
}
);
layerId = "410E5E1C-5FD0-457E-A79B-7BF13808BDAC";
paths = (
{
closed = 1;
nodes = (
"115 431 OFFCURVE",
"176 242 OFFCURVE",
"288 126 CURVE SMOOTH",
"400 10 OFFCURVE",
"563.333 -31 OFFCURVE",
"770 -31 CURVE SMOOTH",
"896.667 -31 OFFCURVE",
"1008 -7.333 OFFCURVE",
"1088 18 CURVE SMOOTH",
"1134.667 32.667 OFFCURVE",
"1177.667 49.333 OFFCURVE",
"1217 68 CURVE",
"1217 799 LINE",
"719 799 LINE",
"719 580 LINE",
"979 580 LINE",
"979 213 LINE",
"962.333 208.333 OFFCURVE",
"943 204.333 OFFCURVE",
"921 201 CURVE SMOOTH",
"883.667 194.333 OFFCURVE",
"829.333 190 OFFCURVE",
"764 190 CURVE SMOOTH",
"613.333 190 OFFCURVE",
"512.667 229.333 OFFCURVE",
"450 316 CURVE SMOOTH",
"387.333 402.667 OFFCURVE",
"362 536.333 OFFCURVE",
"362 727 CURVE SMOOTH",
"362 913.667 OFFCURVE",
"385 1040 OFFCURVE",
"449 1120 CURVE SMOOTH",
"513 1200 OFFCURVE",
"619.333 1233 OFFCURVE",
"786 1233 CURVE SMOOTH",
"882 1233 OFFCURVE",
"976.333 1227.333 OFFCURVE",
"1047 1222 CURVE SMOOTH",
"1088.333 1219.333 OFFCURVE",
"1127 1216 OFFCURVE",
"1163 1212 CURVE",
"1163 1393 LINE",
"1129.667 1404.333 OFFCURVE",
"1092 1414.667 OFFCURVE",
"1050 1424 CURVE SMOOTH",
"976.667 1440 OFFCURVE",
"874.333 1456 OFFCURVE",
"745 1456 CURVE SMOOTH",
"553 1456 OFFCURVE",
"396.5 1410.5 OFFCURVE",
"286.5 1296.5 CURVE SMOOTH",
"176.5 1182.5 OFFCURVE",
"115 1000.333 OFFCURVE",
"115 727 CURVE"
);
}
);
userData = {
assembly = "PUSHB[ ]	/* 1 value pushed */\01246 \012MDAP[1]	/* MoveDirectAbsPt */\012PUSHB[ ]	/* 1 value pushed */\01231 \012MDAP[1]	/* MoveDirectAbsPt */\012PUSHB[ ]	/* 1 value pushed */\01246 \012SRP0[ ]	/* SetRefPoint0 */\012PUSHB[ ]	/* 1 value pushed */\0120 \012MDRP[10000]	/* MoveDirectRelPt */\012PUSHB[ ]	/* 1 value pushed */\0120 \012MDAP[1]	/* MoveDirectAbsPt */\012PUSHB[ ]	/* 2 values pushed */\01221 12 \012MIRP[10100]	/* MoveIndirectRelPt */\012NPUSHB[ ]	/* 11 values pushed */\0126 21 22 21 38 21 54 21 70 21 5 \012DELTAP1[ ]	/* DeltaExceptionP1 */\012PUSHB[ ]	/* 1 value pushed */\01231 \012SRP0[ ]	/* SetRefPoint0 */\012PUSHB[ ]	/* 2 values pushed */\01236 13 \012MIRP[10100]	/* MoveIndirectRelPt */\012PUSHB[ ]	/* 1 value pushed */\01247 \012MDRP[11100]	/* MoveDirectRelPt */\012SVTCA[0]	/* SetFreedomAndProjectionVectorToAxis */\012PUSHB[ ]	/* 1 value pushed */\0120 \012RCVT[ ]	/* ReadCVT */\012IF[ ]	/* If */\012PUSHB[ ]	/* 1 value pushed */\0125 \012MDAP[1]	/* MoveDirectAbsPt */\012ELSE[ ]	/* Else */\012PUSHB[ ]	/* 2 values pushed */\0125 23 \012MIAP[0]	/* MoveIndirectAbsPt */\012EIF[ ]	/* EndIf */\012PUSHB[ ]	/* 1 value pushed */\0120 \012RCVT[ ]	/* ReadCVT */\012IF[ ]	/* If */\012PUSHB[ ]	/* 1 value pushed */\01241 \012MDAP[1]	/* MoveDirectAbsPt */\012ELSE[ ]	/* Else */\012PUSHB[ ]	/* 2 values pushed */\01241 17 \012MIAP[0]	/* MoveIndirectAbsPt */\012EIF[ ]	/* EndIf */\012PUSHB[ ]	/* 4 values pushed */\01235 3 32 4 \012CALL[ ]	/* CallFunction */\012PUSHB[ ]	/* 1 value pushed */\0125 \012SRP0[ ]	/* SetRefPoint0 */\012PUSHB[ ]	/* 2 values pushed */\01213 3 \012MIRP[10100]	/* MoveIndirectRelPt */\012NPUSHB[ ]	/* 11 values pushed */\0128 13 24 13 40 13 56 13 72 13 5 \012DELTAP1[ ]	/* DeltaExceptionP1 */\012PUSHB[ ]	/* 1 value pushed */\01216 \012MDRP[10000]	/* MoveDirectRelPt */\012PUSHB[ ]	/* 1 value pushed */\01241 \012SRP0[ ]	/* SetRefPoint0 */\012PUSHB[ ]	/* 2 values pushed */\01226 3 \012MIRP[10100]	/* MoveIndirectRelPt */\012NPUSHB[ ]	/* 11 values pushed */\0127 26 23 26 39 26 55 26 71 26 5 \012DELTAP1[ ]	/* DeltaExceptionP1 */\012IUP[0]	/* InterpolateUntPts */\012IUP[1]	/* InterpolateUntPts */";
};
width = 1350;
}
);
leftKerningGroup = O;
note = G;
rightKerningGroup = G;
unicode = 0047;
},
{
color = 4;
glyphname = H;
lastChange = "2022-05-11 04:45:39 +0000";
layers = (
{
anchors = (
{
name = bottom;
position = "{728, 0}";
},
{
name = center;
position = "{728, 714}";
},
{
name = top;
position = "{728, 1427}";
},
{
name = topleft;
position = "{20, 1427}";
}
);
layerId = "410E5E1C-5FD0-457E-A79B-7BF13808BDAC";
paths = (
{
closed = 1;
nodes = (
"422 0 LINE",
"422 612 LINE",
"1034 612 LINE",
"1034 0 LINE",
"1274 0 LINE",
"1274 1427 LINE",
"1034 1427 LINE",
"1034 836 LINE",
"422 836 LINE",
"422 1427 LINE",
"182 1427 LINE",
"182 0 LINE"
);
}
);
userData = {
assembly = "PUSHB[ ]	/* 1 value pushed */\01212 \012MDAP[1]	/* MoveDirectAbsPt */\012PUSHB[ ]	/* 1 value pushed */\0124 \012MDAP[1]	/* MoveDirectAbsPt */\012PUSHB[ ]	/* 1 value pushed */\01212 \012SRP0[ ]	/* SetRefPoint0 */\012PUSHB[ ]	/* 1 value pushed */\0120 \012MDRP[10000]	/* MoveDirectRelPt */\012PUSHB[ ]	/* 1 value pushed */\0120 \012MDAP[1]	/* MoveDirectAbsPt */\012PUSHB[ ]	/* 2 values pushed */\0121 12 \012MIRP[10100]	/* MoveIndirectRelPt */\012PUSHB[ ]	/* 1 value pushed */\0124 \012SRP0[ ]	/* SetRefPoint0 */\012PUSHB[ ]	/* 2 values pushed */\0125 12 \012MIRP[10100]	/* MoveIndirectRelPt */\012PUSHB[ ]	/* 1 value pushed */\0124 \012SRP0[ ]	/* SetRefPoint0 */\012PUSHB[ ]	/* 1 value pushed */\0127 \012MDRP[10000]	/* MoveDirectRelPt */\012PUSHB[ ]	/* 1 value pushed */\0121 \012SRP0[ ]	/* SetRefPoint0 */\012PUSHB[ ]	/* 1 value pushed */\0129 \012MDRP[10000]	/* MoveDirectRelPt */\012PUSHB[ ]	/* 1 value pushed */\0125 \012SRP0[ ]	/* SetRefPoint0 */\012PUSHB[ ]	/* 1 value pushed */\01213 \012MDRP[11100]	/* MoveDirectRelPt */\012SVTCA[0]	/* SetFreedomAndProjectionVectorToAxis */\012PUSHB[ ]	/* 1 value pushed */\0120 \012RCVT[ ]	/* ReadCVT */\012IF[ ]	/* If */\012PUSHB[ ]	/* 1 value pushed */\0120 \012MDAP[1]	/* MoveDirectAbsPt */\012ELSE[ ]	/* Else */\012PUSHB[ ]	/* 2 values pushed */\0120 23 \012MIAP[0]	/* MoveIndirectAbsPt */\012EIF[ ]	/* EndIf */\012PUSHB[ ]	/* 1 value pushed */\0120 \012RCVT[ ]	/* ReadCVT */\012IF[ ]	/* If */\012PUSHB[ ]	/* 1 value pushed */\0124 \012MDAP[1]	/* MoveDirectAbsPt */\012ELSE[ ]	/* Else */\012PUSHB[ ]	/* 2 values pushed */\0124 23 \012MIAP[0]	/* MoveIndirectAbsPt */\012EIF[ ]	/* EndIf */\012PUSHB[ ]	/* 1 value pushed */\0120 \012RCVT[ ]	/* ReadCVT */\012IF[ ]	/* If */\012PUSHB[ ]	/* 1 value pushed */\0126 \012MDAP[1]	/* MoveDirectAbsPt */\012ELSE[ ]	/* Else */\012PUSHB[ ]	/* 2 values pushed */\0126 17 \012MIAP[0]	/* MoveIndirectAbsPt */\012EIF[ ]	/* EndIf */\012PUSHB[ ]	/* 1 value pushed */\0120 \012RCVT[ ]	/* ReadCVT */\012IF[ ]	/* If */\012PUSHB[ ]	/* 1 value pushed */\01210 \012MDAP[1]	/* MoveDirectAbsPt */\012ELSE[ ]	/* Else */\012PUSHB[ ]	/* 2 values pushed */\01210 17 \012MIAP[0]	/* MoveIndirectAbsPt */\012EIF[ ]	/* EndIf */\012PUSHB[ ]	/* 4 values pushed */\0123 3 8 4 \012CALL[ ]	/* CallFunction */\012IUP[0]	/* InterpolateUntPts */\012IUP[1]	/* InterpolateUntPts */";
};
width = 1456;
}
);
leftKerningGroup = H;
note = H;
rightKerningGroup = H;
unicode = 0048;
},
{
glyphname = Hbar;
lastChange = "2022-05-11 04:40:54 +0000";
layers = (
{
layerId = "410E5E1C-5FD0-457E-A79B-7BF13808BDAC";
paths = (
{
closed = 1;
nodes = (
"455 0 LINE",
"455 612 LINE",
"1067 612 LINE",
"1067 0 LINE",
"1307 0 LINE",
"1307 1016 LINE",
"1491 1016 LINE",
"1491 1182 LINE",
"1307 1182 LINE",
"1307 1427 LINE",
"1067 1427 LINE",
"1067 1182 LINE",
"455 1182 LINE",
"455 1427 LINE",
"215 1427 LINE",
"215 1182 LINE",
"0 1182 LINE",
"0 1016 LINE",
"215 1016 LINE",
"215 0 LINE"
);
},
{
closed = 1;
nodes = (
"455 1016 LINE",
"1067 1016 LINE",
"1067 836 LINE",
"455 836 LINE"
);
}
);
userData = {
assembly = "PUSHB[ ]	/* 4 values pushed */\01222 12 0 4 \012CALL[ ]	/* CallFunction */\012PUSHB[ ]	/* 4 values pushed */\01210 12 7 4 \012CALL[ ]	/* CallFunction */\012PUSHB[ ]	/* 1 value pushed */\0120 \012SRP0[ ]	/* SetRefPoint0 */\012PUSHB[ ]	/* 1 value pushed */\0123 \012MDRP[10000]	/* MoveDirectRelPt */\012PUSHB[ ]	/* 1 value pushed */\01222 \012SRP0[ ]	/* SetRefPoint0 */\012PUSHB[ ]	/* 1 value pushed */\0125 \012MDRP[10000]	/* MoveDirectRelPt */\012PUSHB[ ]	/* 1 value pushed */\01210 \012SRP0[ ]	/* SetRefPoint0 */\012PUSHB[ ]	/* 1 value pushed */\01213 \012MDRP[10000]	/* MoveDirectRelPt */\012PUSHB[ ]	/* 1 value pushed */\0127 \012SRP0[ ]	/* SetRefPoint0 */\012PUSHB[ ]	/* 1 value pushed */\01215 \012MDRP[10000]	/* MoveDirectRelPt */\012PUSHB[ ]	/* 1 value pushed */\01222 \012SRP0[ ]	/* SetRefPoint0 */\012PUSHB[ ]	/* 1 value pushed */\01217 \012MDRP[10000]	/* MoveDirectRelPt */\012PUSHB[ ]	/* 1 value pushed */\0127 \012SRP0[ ]	/* SetRefPoint0 */\012PUSHB[ ]	/* 1 value pushed */\01220 \012MDRP[10000]	/* MoveDirectRelPt */\012PUSHB[ ]	/* 1 value pushed */\01210 \012SRP0[ ]	/* SetRefPoint0 */\012PUSHB[ ]	/* 1 value pushed */\01225 \012MDRP[11100]	/* MoveDirectRelPt */\012SVTCA[0]	/* SetFreedomAndProjectionVectorToAxis */\012PUSHB[ ]	/* 1 value pushed */\0120 \012RCVT[ ]	/* ReadCVT */\012IF[ ]	/* If */\012PUSHB[ ]	/* 1 value pushed */\0124 \012MDAP[1]	/* MoveDirectAbsPt */\012ELSE[ ]	/* Else */\012PUSHB[ ]	/* 2 values pushed */\0124 23 \012MIAP[0]	/* MoveIndirectAbsPt */\012EIF[ ]	/* EndIf */\012PUSHB[ ]	/* 1 value pushed */\0120 \012RCVT[ ]	/* ReadCVT */\012IF[ ]	/* If */\012PUSHB[ ]	/* 1 value pushed */\0128 \012MDAP[1]	/* MoveDirectAbsPt */\012ELSE[ ]	/* Else */\012PUSHB[ ]	/* 2 values pushed */\0128 23 \012MIAP[0]	/* MoveIndirectAbsPt */\012EIF[ ]	/* EndIf */\012PUSHB[ ]	/* 1 value pushed */\0120 \012RCVT[ ]	/* ReadCVT */\012IF[ ]	/* If */\012PUSHB[ ]	/* 1 value pushed */\01214 \012MDAP[1]	/* MoveDirectAbsPt */\012ELSE[ ]	/* Else */\012PUSHB[ ]	/* 2 values pushed */\01214 17 \012MIAP[0]	/* MoveIndirectAbsPt */\012EIF[ ]	/* EndIf */\012PUSHB[ ]	/* 1 value pushed */\0120 \012RCVT[ ]	/* ReadCVT */\012IF[ ]	/* If */\012PUSHB[ ]	/* 1 value pushed */\01218 \012MDAP[1]	/* MoveDirectAbsPt */\012ELSE[ ]	/* Else */\012PUSHB[ ]	/* 2 values pushed */\01218 17 \012MIAP[0]	/* MoveIndirectAbsPt */\012EIF[ ]	/* EndIf */\012PUSHB[ ]	/* 4 values pushed */\0123 7 0 4 \012CALL[ ]	/* CallFunction */\012PUSHB[ ]	/* 4 values pushed */\01220 3 16 4 \012CALL[ ]	/* CallFunction */\012PUSHB[ ]	/* 1 value pushed */\0123 \012SRP0[ ]	/* SetRefPoint0 */\012PUSHB[ ]	/* 1 value pushed */\0126 \012MDRP[10000]	/* MoveDirectRelPt */\012PUSHB[ ]	/* 1 value pushed */\0123 \012SRP0[ ]	/* SetRefPoint0 */\012PUSHB[ ]	/* 1 value pushed */\01210 \012MDRP[10000]	/* MoveDirectRelPt */\012PUSHB[ ]	/* 1 value pushed */\0120 \012SRP0[ ]	/* SetRefPoint0 */\012PUSHB[ ]	/* 1 value pushed */\01212 \012MDRP[10000]	/* MoveDirectRelPt */\012PUSHB[ ]	/* 1 value pushed */\0120 \012SRP0[ ]	/* SetRefPoint0 */\012PUSHB[ ]	/* 1 value pushed */\01221 \012MDRP[10000]	/* MoveDirectRelPt */\012IUP[0]	/* InterpolateUntPts */\012IUP[1]	/* InterpolateUntPts */";
};
width = 1491;
}
);
leftKerningGroup = H;
note = Hbar;
rightKerningGroup = H;
unicode = 0126;
},
{
color = 4;
glyphname = I;
lastChange = "2022-05-11 04:45:39 +0000";
layers = (
{
anchors = (
{
name = bottom;
position = "{302, 0}";
},
{
name = ogonek;
position = "{544, 10}";
},
{
name = top;
position = "{302, 1427}";
},
{
name = topleft;
position = "{20, 1427}";
}
);
layerId = "410E5E1C-5FD0-457E-A79B-7BF13808BDAC";
paths = (
{
closed = 1;
nodes = (
"422 0 LINE",
"422 1427 LINE",
"182 1427 LINE",
"182 0 LINE"
);
}
);
userData = {
assembly = "PUSHB[ ]	/* 4 values pushed */\0121 12 0 4 \012CALL[ ]	/* CallFunction */\012SVTCA[0]	/* SetFreedomAndProjectionVectorToAxis */\012PUSHB[ ]	/* 1 value pushed */\0120 \012RCVT[ ]	/* ReadCVT */\012IF[ ]	/* If */\012PUSHB[ ]	/* 1 value pushed */\0120 \012MDAP[1]	/* MoveDirectAbsPt */\012ELSE[ ]	/* Else */\012PUSHB[ ]	/* 2 values pushed */\0120 23 \012MIAP[0]	/* MoveIndirectAbsPt */\012EIF[ ]	/* EndIf */\012PUSHB[ ]	/* 1 value pushed */\0120 \012RCVT[ ]	/* ReadCVT */\012IF[ ]	/* If */\012PUSHB[ ]	/* 1 value pushed */\0122 \012MDAP[1]	/* MoveDirectAbsPt */\012ELSE[ ]	/* Else */\012PUSHB[ ]	/* 2 values pushed */\0122 17 \012MIAP[0]	/* MoveIndirectAbsPt */\012EIF[ ]	/* EndIf */\012IUP[0]	/* InterpolateUntPts */\012IUP[1]	/* InterpolateUntPts */";
};
width = 604;
}
);
leftKerningGroup = H;
note = I;
rightKerningGroup = H;
unicode = 0049;
},
{
glyphname = Iogonek;
lastChange = "2022-05-11 04:40:54 +0000";
layers = (
{
layerId = "410E5E1C-5FD0-457E-A79B-7BF13808BDAC";
paths = (
{
closed = 1;
nodes = (
"144.596 -47.452 OFFCURVE",
"65 -154.095 OFFCURVE",
"65 -279 CURVE SMOOTH",
"65 -423.272 OFFCURVE",
"173.244 -500 OFFCURVE",
"317 -500 CURVE SMOOTH",
"355.667 -500 OFFCURVE",
"388.333 -495.333 OFFCURVE",
"415 -490 CURVE SMOOTH",
"429.667 -487.333 OFFCURVE",
"443.667 -483.667 OFFCURVE",
"457 -479 CURVE",
"457 -311 LINE",
"450.333 -312.333 OFFCURVE",
"443.333 -313.333 OFFCURVE",
"436 -314 CURVE SMOOTH",
"422.667 -316 OFFCURVE",
"406.333 -317 OFFCURVE",
"387 -317 CURVE SMOOTH",
"319 -317 OFFCURVE",
"287 -281 OFFCURVE",
"287 -225 CURVE SMOOTH",
"287 -157 OFFCURVE",
"333.667 -80 OFFCURVE",
"459 0 CURVE",
"459 1427 LINE",
"219 1427 LINE",
"219 21 LINE"
);
}
);
userData = {
assembly = "PUSHB[ ]	/* 4 values pushed */\0121 12 0 4 \012CALL[ ]	/* CallFunction */\012PUSHB[ ]	/* 3 values pushed */\0125 0 1 \012SRP1[ ]	/* SetRefPoint1 */\012SRP2[ ]	/* SetRefPoint2 */\012IP[ ]	/* InterpolatePts */\012PUSHB[ ]	/* 1 value pushed */\0125 \012MDAP[1]	/* MoveDirectAbsPt */\012PUSHB[ ]	/* 1 value pushed */\0121 \012SRP0[ ]	/* SetRefPoint0 */\012PUSHB[ ]	/* 1 value pushed */\01212 \012MDRP[10000]	/* MoveDirectRelPt */\012PUSHB[ ]	/* 1 value pushed */\01212 \012MDAP[1]	/* MoveDirectAbsPt */\012PUSHB[ ]	/* 1 value pushed */\0125 \012SRP0[ ]	/* SetRefPoint0 */\012PUSHB[ ]	/* 2 values pushed */\01223 10 \012MIRP[10100]	/* MoveIndirectRelPt */\012SVTCA[0]	/* SetFreedomAndProjectionVectorToAxis */\012PUSHB[ ]	/* 1 value pushed */\0120 \012RCVT[ ]	/* ReadCVT */\012IF[ ]	/* If */\012PUSHB[ ]	/* 1 value pushed */\0120 \012MDAP[1]	/* MoveDirectAbsPt */\012ELSE[ ]	/* Else */\012PUSHB[ ]	/* 2 values pushed */\0120 23 \012MIAP[0]	/* MoveIndirectAbsPt */\012EIF[ ]	/* EndIf */\012PUSHB[ ]	/* 1 value pushed */\0120 \012RCVT[ ]	/* ReadCVT */\012IF[ ]	/* If */\012PUSHB[ ]	/* 1 value pushed */\0122 \012MDAP[1]	/* MoveDirectAbsPt */\012ELSE[ ]	/* Else */\012PUSHB[ ]	/* 2 values pushed */\0122 17 \012MIAP[0]	/* MoveIndirectAbsPt */\012EIF[ ]	/* EndIf */\012PUSHB[ ]	/* 1 value pushed */\0120 \012RCVT[ ]	/* ReadCVT */\012IF[ ]	/* If */\012PUSHB[ ]	/* 1 value pushed */\01215 \012MDAP[1]	/* MoveDirectAbsPt */\012ELSE[ ]	/* Else */\012PUSHB[ ]	/* 2 values pushed */\01215 19 \012MIAP[0]	/* MoveIndirectAbsPt */\012EIF[ ]	/* EndIf */\012PUSHB[ ]	/* 1 value pushed */\0120 \012RCVT[ ]	/* ReadCVT */\012IF[ ]	/* If */\012PUSHB[ ]	/* 1 value pushed */\01218 \012MDAP[1]	/* MoveDirectAbsPt */\012ELSE[ ]	/* Else */\012PUSHB[ ]	/* 2 values pushed */\01218 19 \012MIAP[0]	/* MoveIndirectAbsPt */\012EIF[ ]	/* EndIf */\012PUSHB[ ]	/* 1 value pushed */\01215 \012SRP0[ ]	/* SetRefPoint0 */\012PUSHB[ ]	/* 2 values pushed */\0128 4 \012MIRP[10100]	/* MoveIndirectRelPt */\012NPUSHB[ ]	/* 11 values pushed */\0127 8 23 8 39 8 55 8 71 8 5 \012DELTAP1[ ]	/* DeltaExceptionP1 */\012IUP[0]	/* InterpolateUntPts */\012IUP[1]	/* InterpolateUntPts */";
};
width = 641;
}
);
leftKerningGroup = H;
note = Iogonek;
rightKerningGroup = H;
unicode = 012E;
},
{
color = 4;
glyphname = J;
lastChange = "2022-05-11 05:37:49 +0000";
layers = (
{
anchors = (
{
name = bottom;
position = "{353, 0}";
},
{
name = top;
position = "{412, 1427}";
}
);
layerId = "410E5E1C-5FD0-457E-A79B-7BF13808BDAC";
paths = (
{
closed = 1;
nodes = (
"36 3.333 OFFCURVE",
"60 -2.667 OFFCURVE",
"86 -8 CURVE SMOOTH",
"130 -17.333 OFFCURVE",
"189 -25 OFFCURVE",
"253 -25 CURVE SMOOTH",
"342.333 -25 OFFCURVE",
"410.5 -10.167 OFFCURVE",
"456.5 30.5 CURVE SMOOTH",
"502.5 71.167 OFFCURVE",
"526 137 OFFCURVE",
"526 238 CURVE SMOOTH",
"525 1427 LINE",
"284 1427 LINE",
"284 311 LINE SMOOTH",
"284 191.337 OFFCURVE",
"250.217 178 OFFCURVE",
"153 178 CURVE SMOOTH",
"123.667 178 OFFCURVE",
"90 178.667 OFFCURVE",
"62 180 CURVE SMOOTH",
"45.333 180.667 OFFCURVE",
"29.333 181.333 OFFCURVE",
"14 182 CURVE",
"14 10 LINE"
);
}
);
userData = {
assembly = "PUSHB[ ]	/* 4 values pushed */\01213 12 10 4 \012CALL[ ]	/* CallFunction */\012SVTCA[0]	/* SetFreedomAndProjectionVectorToAxis */\012PUSHB[ ]	/* 1 value pushed */\0120 \012RCVT[ ]	/* ReadCVT */\012IF[ ]	/* If */\012PUSHB[ ]	/* 1 value pushed */\01211 \012MDAP[1]	/* MoveDirectAbsPt */\012ELSE[ ]	/* Else */\012PUSHB[ ]	/* 2 values pushed */\01211 23 \012MIAP[0]	/* MoveIndirectAbsPt */\012EIF[ ]	/* EndIf */\012PUSHB[ ]	/* 1 value pushed */\0120 \012RCVT[ ]	/* ReadCVT */\012IF[ ]	/* If */\012PUSHB[ ]	/* 1 value pushed */\01218 \012MDAP[1]	/* MoveDirectAbsPt */\012ELSE[ ]	/* Else */\012PUSHB[ ]	/* 2 values pushed */\01218 17 \012MIAP[0]	/* MoveIndirectAbsPt */\012EIF[ ]	/* EndIf */\012PUSHB[ ]	/* 2 values pushed */\0120 5 \012MIRP[10100]	/* MoveIndirectRelPt */\012PUSHB[ ]	/* 1 value pushed */\0122 \012MDRP[10000]	/* MoveDirectRelPt */\012PUSHB[ ]	/* 1 value pushed */\0122 \012MDAP[1]	/* MoveDirectAbsPt */\012PUSHB[ ]	/* 1 value pushed */\0125 \012MDRP[10000]	/* MoveDirectRelPt */\012IUP[0]	/* InterpolateUntPts */\012IUP[1]	/* InterpolateUntPts */";
};
width = 706;
}
);
leftKerningGroup = J;
note = J;
rightKerningGroup = J;
unicode = 004A;
},
{
color = 4;
glyphname = K;
lastChange = "2022-05-11 04:45:39 +0000";
layers = (
{
anchors = (
{
name = bottom;
position = "{657, 0}";
},
{
name = top;
position = "{657, 1427}";
}
);
layerId = "410E5E1C-5FD0-457E-A79B-7BF13808BDAC";
paths = (
{
closed = 1;
nodes = (
"422 0 LINE",
"422 621 LINE",
"642 621 LINE",
"994 0 LINE",
"1275 0 LINE",
"854 737 LINE",
"1252 1427 LINE",
"975 1427 LINE",
"642 844 LINE",
"422 844 LINE",
"422 1427 LINE",
"182 1427 LINE",
"182 0 LINE"
);
}
);
userData = {
assembly = "PUSHB[ ]	/* 4 values pushed */\0121 12 0 4 \012CALL[ ]	/* CallFunction */\012PUSHB[ ]	/* 1 value pushed */\0121 \012SRP0[ ]	/* SetRefPoint0 */\012PUSHB[ ]	/* 1 value pushed */\01210 \012MDRP[10000]	/* MoveDirectRelPt */\012SVTCA[0]	/* SetFreedomAndProjectionVectorToAxis */\012PUSHB[ ]	/* 1 value pushed */\0120 \012RCVT[ ]	/* ReadCVT */\012IF[ ]	/* If */\012PUSHB[ ]	/* 1 value pushed */\0120 \012MDAP[1]	/* MoveDirectAbsPt */\012ELSE[ ]	/* Else */\012PUSHB[ ]	/* 2 values pushed */\0120 23 \012MIAP[0]	/* MoveIndirectAbsPt */\012EIF[ ]	/* EndIf */\012PUSHB[ ]	/* 1 value pushed */\0120 \012RCVT[ ]	/* ReadCVT */\012IF[ ]	/* If */\012PUSHB[ ]	/* 1 value pushed */\0124 \012MDAP[1]	/* MoveDirectAbsPt */\012ELSE[ ]	/* Else */\012PUSHB[ ]	/* 2 values pushed */\0124 23 \012MIAP[0]	/* MoveIndirectAbsPt */\012EIF[ ]	/* EndIf */\012PUSHB[ ]	/* 1 value pushed */\0120 \012RCVT[ ]	/* ReadCVT */\012IF[ ]	/* If */\012PUSHB[ ]	/* 1 value pushed */\0127 \012MDAP[1]	/* MoveDirectAbsPt */\012ELSE[ ]	/* Else */\012PUSHB[ ]	/* 2 values pushed */\0127 17 \012MIAP[0]	/* MoveIndirectAbsPt */\012EIF[ ]	/* EndIf */\012PUSHB[ ]	/* 1 value pushed */\0120 \012RCVT[ ]	/* ReadCVT */\012IF[ ]	/* If */\012PUSHB[ ]	/* 1 value pushed */\01211 \012MDAP[1]	/* MoveDirectAbsPt */\012ELSE[ ]	/* Else */\012PUSHB[ ]	/* 2 values pushed */\01211 17 \012MIAP[0]	/* MoveIndirectAbsPt */\012EIF[ ]	/* EndIf */\012PUSHB[ ]	/* 4 values pushed */\0123 3 9 4 \012CALL[ ]	/* CallFunction */\012IUP[0]	/* InterpolateUntPts */\012IUP[1]	/* InterpolateUntPts */";
};
width = 1313;
}
);
leftKerningGroup = H;
note = K;
rightKerningGroup = K;
unicode = 004B;
},
{
color = 4;
glyphname = L;
lastChange = "2022-05-11 04:45:39 +0000";
layers = (
{
anchors = (
{
name = bottom;
position = "{528, 0}";
},
{
name = center;
position = "{528, 714}";
},
{
name = top;
position = "{528, 1427}";
},
{
name = topright;
position = "{1036, 1427}";
}
);
layerId = "410E5E1C-5FD0-457E-A79B-7BF13808BDAC";
paths = (
{
closed = 1;
nodes = (
"1012 0 LINE",
"1012 223 LINE",
"422 223 LINE",
"422 1427 LINE",
"182 1427 LINE",
"182 0 LINE"
);
}
);
userData = {
assembly = "PUSHB[ ]	/* 4 values pushed */\0121 12 0 4 \012CALL[ ]	/* CallFunction */\012SVTCA[0]	/* SetFreedomAndProjectionVectorToAxis */\012PUSHB[ ]	/* 1 value pushed */\0120 \012RCVT[ ]	/* ReadCVT */\012IF[ ]	/* If */\012PUSHB[ ]	/* 1 value pushed */\0120 \012MDAP[1]	/* MoveDirectAbsPt */\012ELSE[ ]	/* Else */\012PUSHB[ ]	/* 2 values pushed */\0120 23 \012MIAP[0]	/* MoveIndirectAbsPt */\012EIF[ ]	/* EndIf */\012PUSHB[ ]	/* 1 value pushed */\0120 \012RCVT[ ]	/* ReadCVT */\012IF[ ]	/* If */\012PUSHB[ ]	/* 1 value pushed */\0124 \012MDAP[1]	/* MoveDirectAbsPt */\012ELSE[ ]	/* Else */\012PUSHB[ ]	/* 2 values pushed */\0124 17 \012MIAP[0]	/* MoveIndirectAbsPt */\012EIF[ ]	/* EndIf */\012PUSHB[ ]	/* 2 values pushed */\0122 3 \012MIRP[10100]	/* MoveIndirectRelPt */\012IUP[0]	/* InterpolateUntPts */\012IUP[1]	/* InterpolateUntPts */";
};
width = 1056;
}
);
leftKerningGroup = H;
note = L;
rightKerningGroup = L;
unicode = 004C;
},
{
glyphname = Lcaron;
lastChange = "2022-05-11 05:00:43 +0000";
layers = (
{
layerId = "410E5E1C-5FD0-457E-A79B-7BF13808BDAC";
paths = (
{
closed = 1;
nodes = (
"721 958 LINE",
"743 1003 OFFCURVE",
"764 1045 OFFCURVE",
"783 1085 CURVE SMOOTH",
"798 1116 OFFCURVE",
"862 1251 OFFCURVE",
"870 1270 CURVE SMOOTH",
"893 1319 OFFCURVE",
"905 1356 OFFCURVE",
"905 1382 CURVE SMOOTH",
"905 1422 OFFCURVE",
"878 1439 OFFCURVE",
"825 1458 CURVE SMOOTH",
"796 1467 OFFCURVE",
"765 1472 OFFCURVE",
"740 1476 CURVE SMOOTH",
"725 1478 OFFCURVE",
"711 1480 OFFCURVE",
"698 1481 CURVE",
"573 1007 LINE"
);
},
{
closed = 1;
nodes = (
"1012 0 LINE",
"1012 223 LINE",
"422 223 LINE",
"422 1427 LINE",
"182 1427 LINE",
"182 0 LINE"
);
}
);
userData = {
assembly = "PUSHB[ ]	/* 1 value pushed */\01225 \012MDAP[1]	/* MoveDirectAbsPt */\012PUSHB[ ]	/* 1 value pushed */\01218 \012MDAP[1]	/* MoveDirectAbsPt */\012PUSHB[ ]	/* 2 values pushed */\0128 15 \012MIRP[10100]	/* MoveIndirectRelPt */\012PUSHB[ ]	/* 1 value pushed */\01225 \012SRP0[ ]	/* SetRefPoint0 */\012PUSHB[ ]	/* 1 value pushed */\01219 \012MDRP[10000]	/* MoveDirectRelPt */\012PUSHB[ ]	/* 1 value pushed */\01219 \012MDAP[1]	/* MoveDirectAbsPt */\012PUSHB[ ]	/* 2 values pushed */\01220 12 \012MIRP[10100]	/* MoveIndirectRelPt */\012PUSHB[ ]	/* 1 value pushed */\0128 \012SRP0[ ]	/* SetRefPoint0 */\012PUSHB[ ]	/* 1 value pushed */\01226 \012MDRP[11100]	/* MoveDirectRelPt */\012SVTCA[0]	/* SetFreedomAndProjectionVectorToAxis */\012PUSHB[ ]	/* 1 value pushed */\0120 \012RCVT[ ]	/* ReadCVT */\012IF[ ]	/* If */\012PUSHB[ ]	/* 1 value pushed */\01219 \012MDAP[1]	/* MoveDirectAbsPt */\012ELSE[ ]	/* Else */\012PUSHB[ ]	/* 2 values pushed */\01219 23 \012MIAP[0]	/* MoveIndirectAbsPt */\012EIF[ ]	/* EndIf */\012PUSHB[ ]	/* 1 value pushed */\0120 \012RCVT[ ]	/* ReadCVT */\012IF[ ]	/* If */\012PUSHB[ ]	/* 1 value pushed */\01223 \012MDAP[1]	/* MoveDirectAbsPt */\012ELSE[ ]	/* Else */\012PUSHB[ ]	/* 2 values pushed */\01223 17 \012MIAP[0]	/* MoveIndirectAbsPt */\012EIF[ ]	/* EndIf */\012PUSHB[ ]	/* 4 values pushed */\0120 9 17 4 \012CALL[ ]	/* CallFunction */\012PUSHB[ ]	/* 1 value pushed */\01223 \012SRP0[ ]	/* SetRefPoint0 */\012PUSHB[ ]	/* 2 values pushed */\01221 3 \012MIRP[10100]	/* MoveIndirectRelPt */\012IUP[0]	/* InterpolateUntPts */\012IUP[1]	/* InterpolateUntPts */";
};
width = 1062;
}
);
leftKerningGroup = H;
note = Lcaron;
rightKerningGroup = L;
unicode = 013D;
},
{
glyphname = Lslash;
lastChange = "2022-05-11 04:40:54 +0000";
layers = (
{
layerId = "410E5E1C-5FD0-457E-A79B-7BF13808BDAC";
paths = (
{
closed = 1;
nodes = (
"1112 0 LINE",
"1112 229 LINE",
"520 229 LINE",
"520 578 LINE",
"850 793 LINE",
"850 1047 LINE",
"520 829 LINE",
"520 1427 LINE",
"283 1427 LINE",
"283 702 LINE",
"123 602 LINE",
"123 352 LINE",
"283 453 LINE",
"283 0 LINE"
);
}
);
userData = {
assembly = "PUSHB[ ]	/* 4 values pushed */\0129 13 3 4 \012CALL[ ]	/* CallFunction */\012PUSHB[ ]	/* 1 value pushed */\0123 \012SRP0[ ]	/* SetRefPoint0 */\012PUSHB[ ]	/* 1 value pushed */\0120 \012MDRP[10000]	/* MoveDirectRelPt */\012PUSHB[ ]	/* 1 value pushed */\0129 \012SRP0[ ]	/* SetRefPoint0 */\012PUSHB[ ]	/* 1 value pushed */\0125 \012MDRP[10000]	/* MoveDirectRelPt */\012SVTCA[0]	/* SetFreedomAndProjectionVectorToAxis */\012PUSHB[ ]	/* 1 value pushed */\0120 \012RCVT[ ]	/* ReadCVT */\012IF[ ]	/* If */\012PUSHB[ ]	/* 1 value pushed */\0124 \012MDAP[1]	/* MoveDirectAbsPt */\012ELSE[ ]	/* Else */\012PUSHB[ ]	/* 2 values pushed */\0124 23 \012MIAP[0]	/* MoveIndirectAbsPt */\012EIF[ ]	/* EndIf */\012PUSHB[ ]	/* 1 value pushed */\0120 \012RCVT[ ]	/* ReadCVT */\012IF[ ]	/* If */\012PUSHB[ ]	/* 1 value pushed */\01212 \012MDAP[1]	/* MoveDirectAbsPt */\012ELSE[ ]	/* Else */\012PUSHB[ ]	/* 2 values pushed */\01212 17 \012MIAP[0]	/* MoveIndirectAbsPt */\012EIF[ ]	/* EndIf */\012PUSHB[ ]	/* 3 values pushed */\0120 12 4 \012SRP1[ ]	/* SetRefPoint1 */\012SRP2[ ]	/* SetRefPoint2 */\012IP[ ]	/* InterpolatePts */\012PUSHB[ ]	/* 3 values pushed */\0121 12 4 \012SRP1[ ]	/* SetRefPoint1 */\012SRP2[ ]	/* SetRefPoint2 */\012IP[ ]	/* InterpolatePts */\012PUSHB[ ]	/* 3 values pushed */\0126 12 4 \012SRP1[ ]	/* SetRefPoint1 */\012SRP2[ ]	/* SetRefPoint2 */\012IP[ ]	/* InterpolatePts */\012PUSHB[ ]	/* 3 values pushed */\0127 12 4 \012SRP1[ ]	/* SetRefPoint1 */\012SRP2[ ]	/* SetRefPoint2 */\012IP[ ]	/* InterpolatePts */\012PUSHB[ ]	/* 2 values pushed */\01210 3 \012MIRP[10100]	/* MoveIndirectRelPt */\012IUP[0]	/* InterpolateUntPts */\012IUP[1]	/* InterpolateUntPts */";
};
width = 1182;
}
);
leftKerningGroup = H;
note = Lslash;
rightKerningGroup = L;
unicode = 0141;
},
{
color = 4;
glyphname = M;
lastChange = "2022-05-11 04:45:39 +0000";
layers = (
{
anchors = (
{
name = bottom;
position = "{867, 0}";
},
{
name = top;
position = "{867, 1427}";
}
);
layerId = "410E5E1C-5FD0-457E-A79B-7BF13808BDAC";
paths = (
{
closed = 1;
nodes = (
"422 0 LINE",
"422 1204 LINE",
"428 1204 LINE",
"437.333 1173.333 OFFCURVE",
"446.333 1143.667 OFFCURVE",
"455 1115 CURVE SMOOTH",
"469.667 1065.667 OFFCURVE",
"488.667 1007 OFFCURVE",
"502 967 CURVE SMOOTH",
"690 387 LINE",
"1049 387 LINE",
"1233 963 LINE SMOOTH",
"1246.333 1003 OFFCURVE",
"1265.333 1063.333 OFFCURVE",
"1280 1114 CURVE SMOOTH",
"1307 1204 LINE",
"1313 1204 LINE",
"1313 0 LINE",
"1552 0 LINE",
"1552 1427 LINE",
"1143 1427 LINE",
"870 567 LINE",
"862 567 LINE",
"598 1427 LINE",
"182 1427 LINE",
"182 0 LINE"
);
}
);
userData = {
assembly = "PUSHB[ ]	/* 1 value pushed */\01225 \012MDAP[1]	/* MoveDirectAbsPt */\012PUSHB[ ]	/* 1 value pushed */\0127 \012MDAP[1]	/* MoveDirectAbsPt */\012PUSHB[ ]	/* 1 value pushed */\01225 \012SRP0[ ]	/* SetRefPoint0 */\012PUSHB[ ]	/* 1 value pushed */\0120 \012MDRP[10000]	/* MoveDirectRelPt */\012PUSHB[ ]	/* 1 value pushed */\0120 \012MDAP[1]	/* MoveDirectAbsPt */\012PUSHB[ ]	/* 1 value pushed */\0127 \012SRP0[ ]	/* SetRefPoint0 */\012PUSHB[ ]	/* 2 values pushed */\0126 12 \012MIRP[10100]	/* MoveIndirectRelPt */\012PUSHB[ ]	/* 1 value pushed */\0127 \012SRP0[ ]	/* SetRefPoint0 */\012PUSHB[ ]	/* 1 value pushed */\0129 \012MDRP[10000]	/* MoveDirectRelPt */\012PUSHB[ ]	/* 1 value pushed */\0129 \012MDAP[1]	/* MoveDirectAbsPt */\012PUSHB[ ]	/* 1 value pushed */\0120 \012SRP0[ ]	/* SetRefPoint0 */\012PUSHB[ ]	/* 2 values pushed */\01222 12 \012MIRP[10100]	/* MoveIndirectRelPt */\012PUSHB[ ]	/* 1 value pushed */\0126 \012SRP0[ ]	/* SetRefPoint0 */\012PUSHB[ ]	/* 1 value pushed */\01226 \012MDRP[11100]	/* MoveDirectRelPt */\012SVTCA[0]	/* SetFreedomAndProjectionVectorToAxis */\012PUSHB[ ]	/* 1 value pushed */\0120 \012RCVT[ ]	/* ReadCVT */\012IF[ ]	/* If */\012PUSHB[ ]	/* 1 value pushed */\0120 \012MDAP[1]	/* MoveDirectAbsPt */\012ELSE[ ]	/* Else */\012PUSHB[ ]	/* 2 values pushed */\0120 23 \012MIAP[0]	/* MoveIndirectAbsPt */\012EIF[ ]	/* EndIf */\012PUSHB[ ]	/* 1 value pushed */\0120 \012RCVT[ ]	/* ReadCVT */\012IF[ ]	/* If */\012PUSHB[ ]	/* 1 value pushed */\0124 \012MDAP[1]	/* MoveDirectAbsPt */\012ELSE[ ]	/* Else */\012PUSHB[ ]	/* 2 values pushed */\0124 23 \012MIAP[0]	/* MoveIndirectAbsPt */\012EIF[ ]	/* EndIf */\012PUSHB[ ]	/* 1 value pushed */\0120 \012RCVT[ ]	/* ReadCVT */\012IF[ ]	/* If */\012PUSHB[ ]	/* 1 value pushed */\0126 \012MDAP[1]	/* MoveDirectAbsPt */\012ELSE[ ]	/* Else */\012PUSHB[ ]	/* 2 values pushed */\0126 17 \012MIAP[0]	/* MoveIndirectAbsPt */\012EIF[ ]	/* EndIf */\012PUSHB[ ]	/* 1 value pushed */\0120 \012RCVT[ ]	/* ReadCVT */\012IF[ ]	/* If */\012PUSHB[ ]	/* 1 value pushed */\01223 \012MDAP[1]	/* MoveDirectAbsPt */\012ELSE[ ]	/* Else */\012PUSHB[ ]	/* 2 values pushed */\01223 17 \012MIAP[0]	/* MoveIndirectAbsPt */\012EIF[ ]	/* EndIf */\012PUSHB[ ]	/* 4 values pushed */\0123 4 14 4 \012CALL[ ]	/* CallFunction */\012PUSHB[ ]	/* 1 value pushed */\0124 \012SRP0[ ]	/* SetRefPoint0 */\012PUSHB[ ]	/* 2 values pushed */\0128 3 \012MIRP[10100]	/* MoveIndirectRelPt */\012PUSHB[ ]	/* 1 value pushed */\01221 \012MDRP[10000]	/* MoveDirectRelPt */\012PUSHB[ ]	/* 1 value pushed */\01222 \012MDRP[10000]	/* MoveDirectRelPt */\012IUP[0]	/* InterpolateUntPts */\012IUP[1]	/* InterpolateUntPts */";
};
width = 1734;
}
);
leftKerningGroup = M;
note = M;
rightKerningGroup = M;
unicode = 004D;
},
{
color = 4;
glyphname = N;
lastChange = "2022-05-11 04:45:39 +0000";
layers = (
{
anchors = (
{
name = bottom;
position = "{761, 0}";
},
{
name = top;
position = "{761, 1427}";
}
);
layerId = "410E5E1C-5FD0-457E-A79B-7BF13808BDAC";
paths = (
{
closed = 1;
nodes = (
"420 0 LINE",
"420 1204 LINE",
"424 1204 LINE",
"431.333 1186 OFFCURVE",
"439.667 1166.333 OFFCURVE",
"449 1145 CURVE SMOOTH",
"456.333 1127 OFFCURVE",
"465.333 1106 OFFCURVE",
"476 1082 CURVE SMOOTH",
"486.667 1058 OFFCURVE",
"498 1032 OFFCURVE",
"510 1004 CURVE SMOOTH",
"950 0 LINE",
"1339 0 LINE",
"1339 1427 LINE",
"1102 1427 LINE",
"1102 436 LINE SMOOTH",
"1102 413.333 OFFCURVE",
"1102 389.667 OFFCURVE",
"1102 365 CURVE SMOOTH",
"1102 340.333 OFFCURVE",
"1102.333 317.333 OFFCURVE",
"1103 296 CURVE SMOOTH",
"1103.667 271.333 OFFCURVE",
"1104.333 247 OFFCURVE",
"1105 223 CURVE",
"1100 223 LINE",
"580 1427 LINE",
"182 1427 LINE",
"182 0 LINE"
);
}
);
userData = {
assembly = "PUSHB[ ]	/* 1 value pushed */\01222 \012MDAP[1]	/* MoveDirectAbsPt */\012PUSHB[ ]	/* 1 value pushed */\0128 \012MDAP[1]	/* MoveDirectAbsPt */\012PUSHB[ ]	/* 1 value pushed */\01222 \012SRP0[ ]	/* SetRefPoint0 */\012PUSHB[ ]	/* 1 value pushed */\0120 \012MDRP[10000]	/* MoveDirectRelPt */\012PUSHB[ ]	/* 1 value pushed */\0120 \012MDAP[1]	/* MoveDirectAbsPt */\012PUSHB[ ]	/* 1 value pushed */\0128 \012SRP0[ ]	/* SetRefPoint0 */\012PUSHB[ ]	/* 1 value pushed */\0122 \012MDRP[10000]	/* MoveDirectRelPt */\012PUSHB[ ]	/* 1 value pushed */\0122 \012MDAP[1]	/* MoveDirectAbsPt */\012PUSHB[ ]	/* 1 value pushed */\0128 \012SRP0[ ]	/* SetRefPoint0 */\012PUSHB[ ]	/* 2 values pushed */\01211 13 \012MIRP[10100]	/* MoveIndirectRelPt */\012PUSHB[ ]	/* 3 values pushed */\0123 8 11 \012SRP1[ ]	/* SetRefPoint1 */\012SRP2[ ]	/* SetRefPoint2 */\012IP[ ]	/* InterpolatePts */\012PUSHB[ ]	/* 1 value pushed */\0128 \012SRP0[ ]	/* SetRefPoint0 */\012PUSHB[ ]	/* 1 value pushed */\0125 \012MDRP[10000]	/* MoveDirectRelPt */\012PUSHB[ ]	/* 1 value pushed */\0125 \012MDAP[1]	/* MoveDirectAbsPt */\012PUSHB[ ]	/* 1 value pushed */\0120 \012SRP0[ ]	/* SetRefPoint0 */\012PUSHB[ ]	/* 2 values pushed */\01219 13 \012MIRP[10100]	/* MoveIndirectRelPt */\012PUSHB[ ]	/* 1 value pushed */\01211 \012SRP0[ ]	/* SetRefPoint0 */\012PUSHB[ ]	/* 1 value pushed */\01223 \012MDRP[11100]	/* MoveDirectRelPt */\012SVTCA[0]	/* SetFreedomAndProjectionVectorToAxis */\012PUSHB[ ]	/* 1 value pushed */\0120 \012RCVT[ ]	/* ReadCVT */\012IF[ ]	/* If */\012PUSHB[ ]	/* 1 value pushed */\0120 \012MDAP[1]	/* MoveDirectAbsPt */\012ELSE[ ]	/* Else */\012PUSHB[ ]	/* 2 values pushed */\0120 23 \012MIAP[0]	/* MoveIndirectAbsPt */\012EIF[ ]	/* EndIf */\012PUSHB[ ]	/* 1 value pushed */\0120 \012RCVT[ ]	/* ReadCVT */\012IF[ ]	/* If */\012PUSHB[ ]	/* 1 value pushed */\0129 \012MDAP[1]	/* MoveDirectAbsPt */\012ELSE[ ]	/* Else */\012PUSHB[ ]	/* 2 values pushed */\0129 23 \012MIAP[0]	/* MoveIndirectAbsPt */\012EIF[ ]	/* EndIf */\012PUSHB[ ]	/* 1 value pushed */\0120 \012RCVT[ ]	/* ReadCVT */\012IF[ ]	/* If */\012PUSHB[ ]	/* 1 value pushed */\01211 \012MDAP[1]	/* MoveDirectAbsPt */\012ELSE[ ]	/* Else */\012PUSHB[ ]	/* 2 values pushed */\01211 17 \012MIAP[0]	/* MoveIndirectAbsPt */\012EIF[ ]	/* EndIf */\012PUSHB[ ]	/* 1 value pushed */\0120 \012RCVT[ ]	/* ReadCVT */\012IF[ ]	/* If */\012PUSHB[ ]	/* 1 value pushed */\01220 \012MDAP[1]	/* MoveDirectAbsPt */\012ELSE[ ]	/* Else */\012PUSHB[ ]	/* 2 values pushed */\01220 17 \012MIAP[0]	/* MoveIndirectAbsPt */\012EIF[ ]	/* EndIf */\012PUSHB[ ]	/* 1 value pushed */\01211 \012SRP0[ ]	/* SetRefPoint0 */\012PUSHB[ ]	/* 2 values pushed */\0122 3 \012MIRP[10100]	/* MoveIndirectRelPt */\012PUSHB[ ]	/* 1 value pushed */\0120 \012SRP0[ ]	/* SetRefPoint0 */\012PUSHB[ ]	/* 2 values pushed */\01218 3 \012MIRP[10100]	/* MoveIndirectRelPt */\012NPUSHB[ ]	/* 11 values pushed */\0128 18 24 18 40 18 56 18 72 18 5 \012DELTAP1[ ]	/* DeltaExceptionP1 */\012IUP[0]	/* InterpolateUntPts */\012IUP[1]	/* InterpolateUntPts */";
};
width = 1521;
}
);
leftKerningGroup = H;
note = N;
rightKerningGroup = H;
unicode = 004E;
},
{
color = 4;
glyphname = Eng;
lastChange = "2022-05-11 04:45:36 +0000";
layers = (
{
layerId = "410E5E1C-5FD0-457E-A79B-7BF13808BDAC";
paths = (
{
closed = 1;
nodes = (
"420 0 LINE",
"420 1204 LINE",
"424 1204 LINE",
"431.333 1186 OFFCURVE",
"439.667 1166.333 OFFCURVE",
"449 1145 CURVE SMOOTH",
"456.333 1127 OFFCURVE",
"465.333 1106 OFFCURVE",
"476 1082 CURVE SMOOTH",
"486.667 1058 OFFCURVE",
"498 1032 OFFCURVE",
"510 1004 CURVE SMOOTH",
"950 0 LINE",
"1098 0 LINE",
"1098 -164 LINE SMOOTH",
"1098 -283.663 OFFCURVE",
"1064.217 -297 OFFCURVE",
"967 -297 CURVE SMOOTH",
"937.667 -297 OFFCURVE",
"904 -296.333 OFFCURVE",
"876 -295 CURVE SMOOTH",
"859.333 -294.333 OFFCURVE",
"843.333 -293.667 OFFCURVE",
"828 -293 CURVE",
"828 -465 LINE",
"850 -471.667 OFFCURVE",
"874 -477.667 OFFCURVE",
"900 -483 CURVE SMOOTH",
"944 -492.333 OFFCURVE",
"1003 -500 OFFCURVE",
"1067 -500 CURVE SMOOTH",
"1156.333 -500 OFFCURVE",
"1224.5 -485.167 OFFCURVE",
"1270.5 -444.5 CURVE SMOOTH",
"1316.5 -403.833 OFFCURVE",
"1340 -338.333 OFFCURVE",
"1340 -237 CURVE SMOOTH",
"1339 77 LINE",
"1339 1427 LINE",
"1102 1427 LINE",
"1102 436 LINE SMOOTH",
"1102 413.333 OFFCURVE",
"1102 389.667 OFFCURVE",
"1102 365 CURVE SMOOTH",
"1102 340.333 OFFCURVE",
"1102.333 317.333 OFFCURVE",
"1103 296 CURVE SMOOTH",
"1103.667 271.333 OFFCURVE",
"1104.333 247 OFFCURVE",
"1105 223 CURVE",
"1100 223 LINE",
"580 1427 LINE",
"182 1427 LINE",
"182 0 LINE"
);
}
);
userData = {
assembly = "PUSHB[ ]	/* 4 values pushed */\01212 12 33 4 \012CALL[ ]	/* CallFunction */\012PUSHB[ ]	/* 4 values pushed */\01242 13 0 4 \012CALL[ ]	/* CallFunction */\012PUSHB[ ]	/* 1 value pushed */\01233 \012SRP0[ ]	/* SetRefPoint0 */\012PUSHB[ ]	/* 1 value pushed */\0123 \012MDRP[10000]	/* MoveDirectRelPt */\012PUSHB[ ]	/* 1 value pushed */\0123 \012MDAP[1]	/* MoveDirectAbsPt */\012PUSHB[ ]	/* 1 value pushed */\01233 \012SRP0[ ]	/* SetRefPoint0 */\012PUSHB[ ]	/* 1 value pushed */\0125 \012MDRP[10000]	/* MoveDirectRelPt */\012PUSHB[ ]	/* 1 value pushed */\0125 \012MDAP[1]	/* MoveDirectAbsPt */\012PUSHB[ ]	/* 1 value pushed */\01233 \012SRP0[ ]	/* SetRefPoint0 */\012PUSHB[ ]	/* 1 value pushed */\0128 \012MDRP[10000]	/* MoveDirectRelPt */\012PUSHB[ ]	/* 1 value pushed */\0128 \012MDAP[1]	/* MoveDirectAbsPt */\012PUSHB[ ]	/* 1 value pushed */\01212 \012SRP0[ ]	/* SetRefPoint0 */\012PUSHB[ ]	/* 1 value pushed */\01210 \012MDRP[10000]	/* MoveDirectRelPt */\012PUSHB[ ]	/* 1 value pushed */\01210 \012MDAP[1]	/* MoveDirectAbsPt */\012PUSHB[ ]	/* 1 value pushed */\01212 \012SRP0[ ]	/* SetRefPoint0 */\012PUSHB[ ]	/* 1 value pushed */\01246 \012MDRP[11100]	/* MoveDirectRelPt */\012SVTCA[0]	/* SetFreedomAndProjectionVectorToAxis */\012PUSHB[ ]	/* 1 value pushed */\0120 \012RCVT[ ]	/* ReadCVT */\012IF[ ]	/* If */\012PUSHB[ ]	/* 1 value pushed */\0120 \012MDAP[1]	/* MoveDirectAbsPt */\012ELSE[ ]	/* Else */\012PUSHB[ ]	/* 2 values pushed */\0120 23 \012MIAP[0]	/* MoveIndirectAbsPt */\012EIF[ ]	/* EndIf */\012PUSHB[ ]	/* 1 value pushed */\0120 \012RCVT[ ]	/* ReadCVT */\012IF[ ]	/* If */\012PUSHB[ ]	/* 1 value pushed */\0129 \012MDAP[1]	/* MoveDirectAbsPt */\012ELSE[ ]	/* Else */\012PUSHB[ ]	/* 2 values pushed */\0129 23 \012MIAP[0]	/* MoveIndirectAbsPt */\012EIF[ ]	/* EndIf */\012PUSHB[ ]	/* 1 value pushed */\0120 \012RCVT[ ]	/* ReadCVT */\012IF[ ]	/* If */\012PUSHB[ ]	/* 1 value pushed */\01234 \012MDAP[1]	/* MoveDirectAbsPt */\012ELSE[ ]	/* Else */\012PUSHB[ ]	/* 2 values pushed */\01234 17 \012MIAP[0]	/* MoveIndirectAbsPt */\012EIF[ ]	/* EndIf */\012PUSHB[ ]	/* 1 value pushed */\0120 \012RCVT[ ]	/* ReadCVT */\012IF[ ]	/* If */\012PUSHB[ ]	/* 1 value pushed */\01243 \012MDAP[1]	/* MoveDirectAbsPt */\012ELSE[ ]	/* Else */\012PUSHB[ ]	/* 2 values pushed */\01243 17 \012MIAP[0]	/* MoveIndirectAbsPt */\012EIF[ ]	/* EndIf */\012PUSHB[ ]	/* 1 value pushed */\0120 \012RCVT[ ]	/* ReadCVT */\012IF[ ]	/* If */\012PUSHB[ ]	/* 1 value pushed */\01217 \012MDAP[1]	/* MoveDirectAbsPt */\012ELSE[ ]	/* Else */\012PUSHB[ ]	/* 2 values pushed */\01217 19 \012MIAP[0]	/* MoveIndirectAbsPt */\012EIF[ ]	/* EndIf */\012PUSHB[ ]	/* 1 value pushed */\01234 \012SRP0[ ]	/* SetRefPoint0 */\012PUSHB[ ]	/* 2 values pushed */\0122 3 \012MIRP[10100]	/* MoveIndirectRelPt */\012PUSHB[ ]	/* 1 value pushed */\01217 \012SRP0[ ]	/* SetRefPoint0 */\012PUSHB[ ]	/* 2 values pushed */\01223 5 \012MIRP[10100]	/* MoveIndirectRelPt */\012PUSHB[ ]	/* 1 value pushed */\01225 \012MDRP[10000]	/* MoveDirectRelPt */\012PUSHB[ ]	/* 1 value pushed */\01225 \012MDAP[1]	/* MoveDirectAbsPt */\012PUSHB[ ]	/* 1 value pushed */\01228 \012MDRP[10000]	/* MoveDirectRelPt */\012PUSHB[ ]	/* 1 value pushed */\0120 \012SRP0[ ]	/* SetRefPoint0 */\012PUSHB[ ]	/* 2 values pushed */\01241 3 \012MIRP[10100]	/* MoveIndirectRelPt */\012NPUSHB[ ]	/* 11 values pushed */\0128 41 24 41 40 41 56 41 72 41 5 \012DELTAP1[ ]	/* DeltaExceptionP1 */\012IUP[0]	/* InterpolateUntPts */\012IUP[1]	/* InterpolateUntPts */";
};
width = 1521;
}
);
leftKerningGroup = Eng;
note = Eng;
rightKerningGroup = Eng;
unicode = 014A;
},
{
glyphname = O;
lastChange = "2022-05-11 05:36:18 +0000";
layers = (
{
anchors = (
{
name = bottom;
position = "{701, 0}";
},
{
name = center;
position = "{701, 714}";
},
{
name = ogonek;
position = "{1261, 10}";
},
{
name = top;
position = "{701, 1446}";
},
{
name = topleft;
position = "{20, 1427}";
},
{
name = topright;
position = "{1411, 1427}";
}
);
layerId = "410E5E1C-5FD0-457E-A79B-7BF13808BDAC";
paths = (
{
closed = 1;
nodes = (
"831.333 -31 OFFCURVE",
"936 -11.333 OFFCURVE",
"1016 28 CURVE SMOOTH",
"1059.333 49.333 OFFCURVE",
"1097.667 78.167 OFFCURVE",
"1131 114.5 CURVE SMOOTH",
"1199 188.167 OFFCURVE",
"1244.667 299 OFFCURVE",
"1268 447 CURVE SMOOTH",
"1280 522.333 OFFCURVE",
"1286 609.667 OFFCURVE",
"1286 709 CURVE SMOOTH",
"1286 901.667 OFFCURVE",
"1262.5 1054.667 OFFCURVE",
"1215.5 1168 CURVE SMOOTH",
"1192.5 1223.333 OFFCURVE",
"1164.333 1269.5 OFFCURVE",
"1131 1306.5 CURVE SMOOTH",
"1067 1377.5 OFFCURVE",
"980.667 1422.667 OFFCURVE",
"872 1442 CURVE SMOOTH",
"819.333 1451.333 OFFCURVE",
"762.667 1456 OFFCURVE",
"702 1456 CURVE SMOOTH",
"508.667 1456 OFFCURVE",
"368.333 1413.5 OFFCURVE",
"271 1307.5 CURVE SMOOTH",
"167 1193.5 OFFCURVE",
"115 1003.667 OFFCURVE",
"115 709 CURVE SMOOTH",
"115 515 OFFCURVE",
"138.667 362.167 OFFCURVE",
"186 250.5 CURVE SMOOTH",
"209.333 195.5 OFFCURVE",
"237.833 150 OFFCURVE",
"271.5 114 CURVE SMOOTH",
"337.167 43.333 OFFCURVE",
"423.667 -0.667 OFFCURVE",
"531 -18 CURVE SMOOTH",
"583.667 -26.667 OFFCURVE",
"640.667 -31 OFFCURVE",
"702 -31 CURVE"
);
},
{
closed = 1;
nodes = (
"567.333 190 OFFCURVE",
"485.333 219.167 OFFCURVE",
"436 294.5 CURVE SMOOTH",
"386.667 371.167 OFFCURVE",
"367 497 OFFCURVE",
"367 709 CURVE SMOOTH",
"367 922.333 OFFCURVE",
"386.667 1048.5 OFFCURVE",
"436 1126.5 CURVE SMOOTH",
"485.333 1203.167 OFFCURVE",
"567.333 1233 OFFCURVE",
"702 1233 CURVE SMOOTH",
"836.667 1233 OFFCURVE",
"917.667 1203.167 OFFCURVE",
"967 1126.5 CURVE SMOOTH",
"1016.333 1048.5 OFFCURVE",
"1036 922.333 OFFCURVE",
"1036 709 CURVE SMOOTH",
"1036 497 OFFCURVE",
"1016.333 371.167 OFFCURVE",
"967 294.5 CURVE SMOOTH",
"917.667 219.167 OFFCURVE",
"836.667 190 OFFCURVE",
"702 190 CURVE"
);
}
);
width = 1401;
}
);
leftKerningGroup = O;
note = O;
rightKerningGroup = O;
unicode = 004F;
},
{
glyphname = Oslash;
lastChange = "2022-05-11 05:39:01 +0000";
layers = (
{
anchors = (
{
name = bottom;
position = "{726, 0}";
},
{
name = top;
position = "{726, 1427}";
}
);
layerId = "410E5E1C-5FD0-457E-A79B-7BF13808BDAC";
paths = (
{
closed = 1;
nodes = (
"429 -172 LINE",
"504 -6 LINE",
"570.667 -24.667 OFFCURVE",
"644.333 -31 OFFCURVE",
"727 -31 CURVE SMOOTH",
"848.333 -31 OFFCURVE",
"954.333 -14.667 OFFCURVE",
"1041 28 CURVE SMOOTH",
"1084.333 49.333 OFFCURVE",
"1122.667 78.167 OFFCURVE",
"1156 114.5 CURVE SMOOTH",
"1222.667 187.167 OFFCURVE",
"1269 296.333 OFFCURVE",
"1293 447 CURVE SMOOTH",
"1305 522.333 OFFCURVE",
"1311 609.667 OFFCURVE",
"1311 709 CURVE SMOOTH",
"1311 877 OFFCURVE",
"1294.333 1009.167 OFFCURVE",
"1261 1112.5 CURVE SMOOTH",
"1227.667 1215.833 OFFCURVE",
"1179.667 1290.667 OFFCURVE",
"1117 1344 CURVE",
"1231 1595 LINE",
"1012 1595 LINE",
"938 1433 LINE",
"874 1449 OFFCURVE",
"804.333 1456 OFFCURVE",
"727 1456 CURVE SMOOTH",
"544.333 1456 OFFCURVE",
"397.333 1418.833 OFFCURVE",
"296 1307.5 CURVE SMOOTH",
"194.667 1196.167 OFFCURVE",
"140 1009 OFFCURVE",
"140 709 CURVE SMOOTH",
"140 545 OFFCURVE",
"156 415.5 OFFCURVE",
"188 313.5 CURVE SMOOTH",
"220 211.5 OFFCURVE",
"266 137 OFFCURVE",
"326 85 CURVE",
"209 -172 LINE"
);
},
{
closed = 1;
nodes = (
"404.333 415 OFFCURVE",
"392 533 OFFCURVE",
"392 709 CURVE SMOOTH",
"392 917 OFFCURVE",
"410.333 1047.167 OFFCURVE",
"461 1126.5 CURVE SMOOTH",
"511.667 1205.833 OFFCURVE",
"596.333 1233 OFFCURVE",
"727 1233 CURVE SMOOTH",
"771.667 1233 OFFCURVE",
"810.333 1229.667 OFFCURVE",
"843 1223 CURVE",
"439 335 LINE"
);
},
{
closed = 1;
nodes = (
"1046 1018.667 OFFCURVE",
"1061 895.667 OFFCURVE",
"1061 709 CURVE SMOOTH",
"1061 502.333 OFFCURVE",
"1042.667 372.5 OFFCURVE",
"992 294.5 CURVE SMOOTH",
"941.333 216.5 OFFCURVE",
"857.667 190 OFFCURVE",
"727 190 CURVE SMOOTH",
"677.667 190 OFFCURVE",
"635 192.667 OFFCURVE",
"599 202 CURVE",
"1006 1100 LINE"
);
}
);
userData = {
assembly = "PUSHB[ ]	/* 3 values pushed */\01215 33 3 \012CALL[ ]	/* CallFunction */\012PUSHB[ ]	/* 3 values pushed */\01241 33 15 \012SRP1[ ]	/* SetRefPoint1 */\012SRP2[ ]	/* SetRefPoint2 */\012IP[ ]	/* InterpolatePts */\012PUSHB[ ]	/* 1 value pushed */\01241 \012MDAP[1]	/* MoveDirectAbsPt */\012PUSHB[ ]	/* 2 values pushed */\0125 11 \012MIRP[10100]	/* MoveIndirectRelPt */\012PUSHB[ ]	/* 3 values pushed */\01253 33 15 \012SRP1[ ]	/* SetRefPoint1 */\012SRP2[ ]	/* SetRefPoint2 */\012IP[ ]	/* InterpolatePts */\012PUSHB[ ]	/* 1 value pushed */\01253 \012MDAP[1]	/* MoveDirectAbsPt */\012NPUSHB[ ]	/* 11 values pushed */\0129 53 25 53 41 53 57 53 73 53 5 \012DELTAP1[ ]	/* DeltaExceptionP1 */\012PUSHB[ ]	/* 2 values pushed */\01221 11 \012MIRP[10100]	/* MoveIndirectRelPt */\012PUSHB[ ]	/* 3 values pushed */\01244 33 15 \012SRP1[ ]	/* SetRefPoint1 */\012SRP2[ ]	/* SetRefPoint2 */\012IP[ ]	/* InterpolatePts */\012PUSHB[ ]	/* 3 values pushed */\01256 33 15 \012SRP1[ ]	/* SetRefPoint1 */\012SRP2[ ]	/* SetRefPoint2 */\012IP[ ]	/* InterpolatePts */\012PUSHB[ ]	/* 1 value pushed */\01258 \012MDRP[11100]	/* MoveDirectRelPt */\012SVTCA[0]	/* SetFreedomAndProjectionVectorToAxis */\012PUSHB[ ]	/* 1 value pushed */\0120 \012RCVT[ ]	/* ReadCVT */\012IF[ ]	/* If */\012PUSHB[ ]	/* 1 value pushed */\01210 \012MDAP[1]	/* MoveDirectAbsPt */\012ELSE[ ]	/* Else */\012PUSHB[ ]	/* 2 values pushed */\01210 23 \012MIAP[0]	/* MoveIndirectAbsPt */\012EIF[ ]	/* EndIf */\012PUSHB[ ]	/* 1 value pushed */\0120 \012RCVT[ ]	/* ReadCVT */\012IF[ ]	/* If */\012PUSHB[ ]	/* 1 value pushed */\01228 \012MDAP[1]	/* MoveDirectAbsPt */\012ELSE[ ]	/* Else */\012PUSHB[ ]	/* 2 values pushed */\01228 17 \012MIAP[0]	/* MoveIndirectAbsPt */\012EIF[ ]	/* EndIf */\012PUSHB[ ]	/* 3 values pushed */\01214 32 3 \012CALL[ ]	/* CallFunction */\012PUSHB[ ]	/* 1 value pushed */\01210 \012SRP0[ ]	/* SetRefPoint0 */\012PUSHB[ ]	/* 2 values pushed */\01236 3 \012MIRP[10100]	/* MoveIndirectRelPt */\012NPUSHB[ ]	/* 11 values pushed */\0128 36 24 36 40 36 56 36 72 36 5 \012DELTAP1[ ]	/* DeltaExceptionP1 */\012PUSHB[ ]	/* 3 values pushed */\01244 32 14 \012SRP1[ ]	/* SetRefPoint1 */\012SRP2[ ]	/* SetRefPoint2 */\012IP[ ]	/* InterpolatePts */\012PUSHB[ ]	/* 1 value pushed */\01228 \012SRP0[ ]	/* SetRefPoint0 */\012PUSHB[ ]	/* 2 values pushed */\01248 3 \012MIRP[10100]	/* MoveIndirectRelPt */\012NPUSHB[ ]	/* 11 values pushed */\0127 48 23 48 39 48 55 48 71 48 5 \012DELTAP1[ ]	/* DeltaExceptionP1 */\012PUSHB[ ]	/* 3 values pushed */\01256 32 14 \012SRP1[ ]	/* SetRefPoint1 */\012SRP2[ ]	/* SetRefPoint2 */\012IP[ ]	/* InterpolatePts */\012IUP[0]	/* InterpolateUntPts */\012IUP[1]	/* InterpolateUntPts */";
};
width = 1451;
}
);
leftKerningGroup = O;
note = Oslash;
rightKerningGroup = O;
unicode = 00D8;
},
{
glyphname = OE;
lastChange = "2022-05-11 04:40:54 +0000";
layers = (
{
layerId = "410E5E1C-5FD0-457E-A79B-7BF13808BDAC";
paths = (
{
closed = 1;
nodes = (
"744 -16 OFFCURVE",
"827 -12 OFFCURVE",
"891 -8 CURVE SMOOTH",
"928.333 -5.333 OFFCURVE",
"965 -2.667 OFFCURVE",
"1001 0 CURVE",
"1876 0 LINE",
"1876 223 LINE",
"1241 223 LINE",
"1241 610 LINE",
"1759 610 LINE",
"1759 829 LINE",
"1241 829 LINE",
"1241 1204 LINE",
"1860 1204 LINE",
"1860 1427 LINE",
"1008 1427 LINE",
"970.667 1430.333 OFFCURVE",
"932.667 1433.333 OFFCURVE",
"894 1436 CURVE SMOOTH",
"827.333 1441.333 OFFCURVE",
"744 1446 OFFCURVE",
"672 1446 CURVE SMOOTH",
"589.333 1446 OFFCURVE",
"499.667 1432.333 OFFCURVE",
"417 1391 CURVE SMOOTH",
"375.667 1370.333 OFFCURVE",
"336.833 1342.667 OFFCURVE",
"300.5 1308 CURVE SMOOTH",
"227.833 1238.667 OFFCURVE",
"171 1133.167 OFFCURVE",
"139 984.5 CURVE SMOOTH",
"123 910.167 OFFCURVE",
"115 823.667 OFFCURVE",
"115 725 CURVE SMOOTH",
"115 519.667 OFFCURVE",
"147.833 369.333 OFFCURVE",
"200.5 260 CURVE SMOOTH",
"226.833 205.333 OFFCURVE",
"257.833 160.167 OFFCURVE",
"293.5 124.5 CURVE SMOOTH",
"364.833 53.167 OFFCURVE",
"448.5 12 OFFCURVE",
"538.5 -4 CURVE SMOOTH",
"583.5 -12 OFFCURVE",
"628 -16 OFFCURVE",
"672 -16 CURVE"
);
},
{
closed = 1;
nodes = (
"718 205 OFFCURVE",
"648.667 207.5 OFFCURVE",
"586 229.5 CURVE SMOOTH",
"554.667 240.5 OFFCURVE",
"525.667 257 OFFCURVE",
"499 279 CURVE SMOOTH",
"445.667 323 OFFCURVE",
"404.667 399 OFFCURVE",
"382 515 CURVE SMOOTH",
"370.667 573 OFFCURVE",
"365 643.667 OFFCURVE",
"365 727 CURVE SMOOTH",
"365 884.333 OFFCURVE",
"388.167 991.667 OFFCURVE",
"427.5 1065 CURVE SMOOTH",
"447.167 1101.667 OFFCURVE",
"470.333 1130.5 OFFCURVE",
"497 1151.5 CURVE SMOOTH",
"550.333 1193.5 OFFCURVE",
"613.167 1212.833 OFFCURVE",
"680.5 1217.5 CURVE SMOOTH",
"714.167 1219.833 OFFCURVE",
"748 1221 OFFCURVE",
"782 1221 CURVE SMOOTH",
"868.667 1221 OFFCURVE",
"945 1221 OFFCURVE",
"1001 1217 CURVE",
"1001 205 LINE",
"786 205 LINE"
);
}
);
userData = {
assembly = "PUSHB[ ]	/* 1 value pushed */\01254 \012MDAP[1]	/* MoveDirectAbsPt */\012PUSHB[ ]	/* 1 value pushed */\01235 \012MDAP[1]	/* MoveDirectAbsPt */\012PUSHB[ ]	/* 1 value pushed */\01254 \012SRP0[ ]	/* SetRefPoint0 */\012PUSHB[ ]	/* 1 value pushed */\0127 \012MDRP[10000]	/* MoveDirectRelPt */\012PUSHB[ ]	/* 1 value pushed */\0127 \012MDAP[1]	/* MoveDirectAbsPt */\012PUSHB[ ]	/* 1 value pushed */\01235 \012SRP0[ ]	/* SetRefPoint0 */\012PUSHB[ ]	/* 1 value pushed */\01219 \012MDRP[10000]	/* MoveDirectRelPt */\012PUSHB[ ]	/* 1 value pushed */\01219 \012MDAP[1]	/* MoveDirectAbsPt */\012PUSHB[ ]	/* 1 value pushed */\01235 \012SRP0[ ]	/* SetRefPoint0 */\012PUSHB[ ]	/* 2 values pushed */\01227 12 \012MIRP[10100]	/* MoveIndirectRelPt */\012PUSHB[ ]	/* 1 value pushed */\01222 \012MDRP[10000]	/* MoveDirectRelPt */\012PUSHB[ ]	/* 1 value pushed */\01235 \012SRP0[ ]	/* SetRefPoint0 */\012PUSHB[ ]	/* 1 value pushed */\01230 \012MDRP[10000]	/* MoveDirectRelPt */\012PUSHB[ ]	/* 1 value pushed */\0127 \012SRP0[ ]	/* SetRefPoint0 */\012PUSHB[ ]	/* 2 values pushed */\01246 11 \012MIRP[10100]	/* MoveIndirectRelPt */\012NPUSHB[ ]	/* 11 values pushed */\0126 46 22 46 38 46 54 46 70 46 5 \012DELTAP1[ ]	/* DeltaExceptionP1 */\012SVTCA[0]	/* SetFreedomAndProjectionVectorToAxis */\012PUSHB[ ]	/* 1 value pushed */\0120 \012RCVT[ ]	/* ReadCVT */\012IF[ ]	/* If */\012PUSHB[ ]	/* 1 value pushed */\01217 \012MDAP[1]	/* MoveDirectAbsPt */\012ELSE[ ]	/* Else */\012PUSHB[ ]	/* 2 values pushed */\01217 23 \012MIAP[0]	/* MoveIndirectAbsPt */\012EIF[ ]	/* EndIf */\012PUSHB[ ]	/* 1 value pushed */\0120 \012RCVT[ ]	/* ReadCVT */\012IF[ ]	/* If */\012PUSHB[ ]	/* 1 value pushed */\01219 \012MDAP[1]	/* MoveDirectAbsPt */\012ELSE[ ]	/* Else */\012PUSHB[ ]	/* 2 values pushed */\01219 23 \012MIAP[0]	/* MoveIndirectAbsPt */\012EIF[ ]	/* EndIf */\012PUSHB[ ]	/* 1 value pushed */\0120 \012RCVT[ ]	/* ReadCVT */\012IF[ ]	/* If */\012PUSHB[ ]	/* 1 value pushed */\01214 \012MDAP[1]	/* MoveDirectAbsPt */\012ELSE[ ]	/* Else */\012PUSHB[ ]	/* 2 values pushed */\01214 23 \012MIAP[0]	/* MoveIndirectAbsPt */\012EIF[ ]	/* EndIf */\012PUSHB[ ]	/* 1 value pushed */\0120 \012RCVT[ ]	/* ReadCVT */\012IF[ ]	/* If */\012PUSHB[ ]	/* 1 value pushed */\0120 \012MDAP[1]	/* MoveDirectAbsPt */\012ELSE[ ]	/* Else */\012PUSHB[ ]	/* 2 values pushed */\0120 17 \012MIAP[0]	/* MoveIndirectAbsPt */\012EIF[ ]	/* EndIf */\012PUSHB[ ]	/* 1 value pushed */\0120 \012RCVT[ ]	/* ReadCVT */\012IF[ ]	/* If */\012PUSHB[ ]	/* 1 value pushed */\01232 \012MDAP[1]	/* MoveDirectAbsPt */\012ELSE[ ]	/* Else */\012PUSHB[ ]	/* 2 values pushed */\01232 17 \012MIAP[0]	/* MoveIndirectAbsPt */\012EIF[ ]	/* EndIf */\012PUSHB[ ]	/* 1 value pushed */\0120 \012RCVT[ ]	/* ReadCVT */\012IF[ ]	/* If */\012PUSHB[ ]	/* 1 value pushed */\01229 \012MDAP[1]	/* MoveDirectAbsPt */\012ELSE[ ]	/* Else */\012PUSHB[ ]	/* 2 values pushed */\01229 17 \012MIAP[0]	/* MoveIndirectAbsPt */\012EIF[ ]	/* EndIf */\012PUSHB[ ]	/* 4 values pushed */\01224 3 25 4 \012CALL[ ]	/* CallFunction */\012PUSHB[ ]	/* 1 value pushed */\01219 \012SRP0[ ]	/* SetRefPoint0 */\012PUSHB[ ]	/* 2 values pushed */\01221 3 \012MIRP[10100]	/* MoveIndirectRelPt */\012PUSHB[ ]	/* 1 value pushed */\01232 \012SRP0[ ]	/* SetRefPoint0 */\012PUSHB[ ]	/* 2 values pushed */\01227 3 \012MIRP[10100]	/* MoveIndirectRelPt */\012PUSHB[ ]	/* 1 value pushed */\01228 \012MDRP[10000]	/* MoveDirectRelPt */\012PUSHB[ ]	/* 1 value pushed */\01232 \012SRP0[ ]	/* SetRefPoint0 */\012PUSHB[ ]	/* 2 values pushed */\01235 3 \012MIRP[10100]	/* MoveIndirectRelPt */\012PUSHB[ ]	/* 1 value pushed */\01219 \012SRP0[ ]	/* SetRefPoint0 */\012PUSHB[ ]	/* 2 values pushed */\01236 5 \012MIRP[10100]	/* MoveIndirectRelPt */\012PUSHB[ ]	/* 1 value pushed */\01239 \012MDRP[10000]	/* MoveDirectRelPt */\012IUP[0]	/* InterpolateUntPts */\012IUP[1]	/* InterpolateUntPts */";
};
width = 1968;
}
);
leftKerningGroup = O;
note = OE;
rightKerningGroup = E;
unicode = 0152;
},
{
color = 4;
glyphname = P;
lastChange = "2022-05-11 04:45:39 +0000";
layers = (
{
anchors = (
{
name = bottom;
position = "{608, 0}";
},
{
name = top;
position = "{608, 1427}";
}
);
layerId = "410E5E1C-5FD0-457E-A79B-7BF13808BDAC";
paths = (
{
closed = 1;
nodes = (
"422 0 LINE",
"422 502 LINE",
"739 502 LINE SMOOTH",
"799 502 OFFCURVE",
"862.333 508.833 OFFCURVE",
"921 533.5 CURVE SMOOTH",
"950.333 545.833 OFFCURVE",
"978 562.667 OFFCURVE",
"1004 584 CURVE SMOOTH",
"1056 626.667 OFFCURVE",
"1095.333 693.833 OFFCURVE",
"1118 790.5 CURVE SMOOTH",
"1129.333 838.833 OFFCURVE",
"1135 895.667 OFFCURVE",
"1135 961 CURVE SMOOTH",
"1135 1091.667 OFFCURVE",
"1113.333 1187.833 OFFCURVE",
"1076 1256.5 CURVE SMOOTH",
"1057.333 1290.833 OFFCURVE",
"1035.667 1319 OFFCURVE",
"1011 1341 CURVE SMOOTH",
"961.667 1385 OFFCURVE",
"903.667 1410.667 OFFCURVE",
"841 1420 CURVE SMOOTH",
"809.667 1424.667 OFFCURVE",
"778.667 1427 OFFCURVE",
"748 1427 CURVE SMOOTH",
"182 1427 LINE",
"182 0 LINE"
);
},
{
closed = 1;
nodes = (
"422 1204 LINE",
"711 1204 LINE SMOOTH",
"850.265 1204 OFFCURVE",
"885 1097.442 OFFCURVE",
"885 961 CURVE SMOOTH",
"885 822.647 OFFCURVE",
"850.888 725 OFFCURVE",
"711 725 CURVE SMOOTH",
"422 725 LINE"
);
}
);
userData = {
assembly = "PUSHB[ ]	/* 1 value pushed */\01232 \012MDAP[1]	/* MoveDirectAbsPt */\012PUSHB[ ]	/* 1 value pushed */\01224 \012MDAP[1]	/* MoveDirectAbsPt */\012PUSHB[ ]	/* 1 value pushed */\01232 \012SRP0[ ]	/* SetRefPoint0 */\012PUSHB[ ]	/* 1 value pushed */\0120 \012MDRP[10000]	/* MoveDirectRelPt */\012PUSHB[ ]	/* 1 value pushed */\0120 \012MDAP[1]	/* MoveDirectAbsPt */\012NPUSHB[ ]	/* 11 values pushed */\0129 24 25 24 41 24 57 24 73 24 5 \012DELTAP1[ ]	/* DeltaExceptionP1 */\012PUSHB[ ]	/* 1 value pushed */\01224 \012SRP0[ ]	/* SetRefPoint0 */\012PUSHB[ ]	/* 2 values pushed */\0128 11 \012MIRP[10100]	/* MoveIndirectRelPt */\012PUSHB[ ]	/* 1 value pushed */\0120 \012SRP0[ ]	/* SetRefPoint0 */\012PUSHB[ ]	/* 2 values pushed */\01230 12 \012MIRP[10100]	/* MoveIndirectRelPt */\012PUSHB[ ]	/* 1 value pushed */\01216 \012MDRP[10000]	/* MoveDirectRelPt */\012PUSHB[ ]	/* 1 value pushed */\0128 \012SRP0[ ]	/* SetRefPoint0 */\012PUSHB[ ]	/* 1 value pushed */\01233 \012MDRP[11100]	/* MoveDirectRelPt */\012SVTCA[0]	/* SetFreedomAndProjectionVectorToAxis */\012PUSHB[ ]	/* 1 value pushed */\0120 \012RCVT[ ]	/* ReadCVT */\012IF[ ]	/* If */\012PUSHB[ ]	/* 1 value pushed */\0120 \012MDAP[1]	/* MoveDirectAbsPt */\012ELSE[ ]	/* Else */\012PUSHB[ ]	/* 2 values pushed */\0120 23 \012MIAP[0]	/* MoveIndirectAbsPt */\012EIF[ ]	/* EndIf */\012PUSHB[ ]	/* 1 value pushed */\0120 \012RCVT[ ]	/* ReadCVT */\012IF[ ]	/* If */\012PUSHB[ ]	/* 1 value pushed */\01217 \012MDAP[1]	/* MoveDirectAbsPt */\012ELSE[ ]	/* Else */\012PUSHB[ ]	/* 2 values pushed */\01217 17 \012MIAP[0]	/* MoveIndirectAbsPt */\012EIF[ ]	/* EndIf */\012PUSHB[ ]	/* 4 values pushed */\01219 3 15 4 \012CALL[ ]	/* CallFunction */\012PUSHB[ ]	/* 1 value pushed */\0120 \012SRP0[ ]	/* SetRefPoint0 */\012PUSHB[ ]	/* 2 values pushed */\01229 3 \012MIRP[10100]	/* MoveIndirectRelPt */\012IUP[0]	/* InterpolateUntPts */\012IUP[1]	/* InterpolateUntPts */";
};
width = 1215;
}
);
leftKerningGroup = H;
note = P;
rightKerningGroup = P;
unicode = 0050;
},
{
color = 4;
glyphname = Thorn;
lastChange = "2022-05-11 04:45:39 +0000";
layers = (
{
anchors = (
{
name = bottom;
position = "{614, 0}";
},
{
name = top;
position = "{614, 1427}";
}
);
layerId = "410E5E1C-5FD0-457E-A79B-7BF13808BDAC";
paths = (
{
closed = 1;
nodes = (
"422 0 LINE",
"422 266 LINE",
"486.443 244.519 OFFCURVE",
"615.953 214 OFFCURVE",
"723 214 CURVE SMOOTH",
"852.333 214 OFFCURVE",
"966.667 237.5 OFFCURVE",
"1048 311.5 CURVE SMOOTH",
"1129.333 385.5 OFFCURVE",
"1178 509.667 OFFCURVE",
"1178 711 CURVE SMOOTH",
"1178 908.333 OFFCURVE",
"1128.167 1032.5 OFFCURVE",
"1047.5 1106.5 CURVE SMOOTH",
"966.833 1180.5 OFFCURVE",
"855 1205 OFFCURVE",
"731 1205 CURVE SMOOTH",
"614.813 1205 OFFCURVE",
"485.427 1174.029 OFFCURVE",
"422 1154 CURVE",
"422 1427 LINE",
"182 1427 LINE",
"182 0 LINE"
);
},
{
closed = 1;
nodes = (
"460.881 986.86 OFFCURVE",
"582.991 996 OFFCURVE",
"659 996 CURVE SMOOTH",
"752.333 996 OFFCURVE",
"821.667 984.333 OFFCURVE",
"867 943 CURVE SMOOTH",
"912.333 901.667 OFFCURVE",
"934 830.333 OFFCURVE",
"934 713 CURVE SMOOTH",
"934 594.333 OFFCURVE",
"906.833 522.5 OFFCURVE",
"855.5 480.5 CURVE SMOOTH",
"804.167 438.5 OFFCURVE",
"730.333 425 OFFCURVE",
"637 425 CURVE SMOOTH",
"583 425 OFFCURVE",
"537 427.167 OFFCURVE",
"499 431.5 CURVE SMOOTH",
"461 435.833 OFFCURVE",
"435.333 439.333 OFFCURVE",
"422 442 CURVE",
"422 982 LINE"
);
}
);
userData = {
assembly = "PUSHB[ ]	/* 1 value pushed */\01244 \012MDAP[1]	/* MoveDirectAbsPt */\012PUSHB[ ]	/* 1 value pushed */\01233 \012MDAP[1]	/* MoveDirectAbsPt */\012PUSHB[ ]	/* 1 value pushed */\01244 \012SRP0[ ]	/* SetRefPoint0 */\012PUSHB[ ]	/* 1 value pushed */\0120 \012MDRP[10000]	/* MoveDirectRelPt */\012PUSHB[ ]	/* 1 value pushed */\0120 \012MDAP[1]	/* MoveDirectAbsPt */\012PUSHB[ ]	/* 2 values pushed */\0121 12 \012MIRP[10100]	/* MoveIndirectRelPt */\012NPUSHB[ ]	/* 11 values pushed */\0129 33 25 33 41 33 57 33 73 33 5 \012DELTAP1[ ]	/* DeltaExceptionP1 */\012PUSHB[ ]	/* 1 value pushed */\01233 \012SRP0[ ]	/* SetRefPoint0 */\012PUSHB[ ]	/* 2 values pushed */\01212 12 \012MIRP[10100]	/* MoveIndirectRelPt */\012PUSHB[ ]	/* 1 value pushed */\0121 \012SRP0[ ]	/* SetRefPoint0 */\012PUSHB[ ]	/* 1 value pushed */\01222 \012MDRP[10000]	/* MoveDirectRelPt */\012PUSHB[ ]	/* 1 value pushed */\0121 \012SRP0[ ]	/* SetRefPoint0 */\012PUSHB[ ]	/* 1 value pushed */\01225 \012MDRP[10000]	/* MoveDirectRelPt */\012PUSHB[ ]	/* 1 value pushed */\01212 \012SRP0[ ]	/* SetRefPoint0 */\012PUSHB[ ]	/* 1 value pushed */\01245 \012MDRP[11100]	/* MoveDirectRelPt */\012SVTCA[0]	/* SetFreedomAndProjectionVectorToAxis */\012PUSHB[ ]	/* 1 value pushed */\0120 \012RCVT[ ]	/* ReadCVT */\012IF[ ]	/* If */\012PUSHB[ ]	/* 1 value pushed */\0120 \012MDAP[1]	/* MoveDirectAbsPt */\012ELSE[ ]	/* Else */\012PUSHB[ ]	/* 2 values pushed */\0120 23 \012MIAP[0]	/* MoveIndirectAbsPt */\012EIF[ ]	/* EndIf */\012PUSHB[ ]	/* 1 value pushed */\0120 \012RCVT[ ]	/* ReadCVT */\012IF[ ]	/* If */\012PUSHB[ ]	/* 1 value pushed */\01223 \012MDAP[1]	/* MoveDirectAbsPt */\012ELSE[ ]	/* Else */\012PUSHB[ ]	/* 2 values pushed */\01223 17 \012MIAP[0]	/* MoveIndirectAbsPt */\012EIF[ ]	/* EndIf */\012PUSHB[ ]	/* 4 values pushed */\01228 5 17 4 \012CALL[ ]	/* CallFunction */\012PUSHB[ ]	/* 4 values pushed */\0127 5 38 4 \012CALL[ ]	/* CallFunction */\012PUSHB[ ]	/* 3 values pushed */\0122 38 7 \012SRP1[ ]	/* SetRefPoint1 */\012SRP2[ ]	/* SetRefPoint2 */\012IP[ ]	/* InterpolatePts */\012PUSHB[ ]	/* 3 values pushed */\01222 17 28 \012SRP1[ ]	/* SetRefPoint1 */\012SRP2[ ]	/* SetRefPoint2 */\012IP[ ]	/* InterpolatePts */\012PUSHB[ ]	/* 1 value pushed */\01238 \012SRP0[ ]	/* SetRefPoint0 */\012PUSHB[ ]	/* 1 value pushed */\01243 \012MDRP[10000]	/* MoveDirectRelPt */\012PUSHB[ ]	/* 1 value pushed */\01243 \012MDAP[1]	/* MoveDirectAbsPt */\012IUP[0]	/* InterpolateUntPts */\012IUP[1]	/* InterpolateUntPts */";
};
width = 1228;
}
);
leftKerningGroup = H;
note = Thorn;
rightKerningGroup = Thorn;
unicode = 00DE;
},
{
color = 4;
glyphname = Q;
lastChange = "2022-05-11 04:45:39 +0000";
layers = (
{
anchors = (
{
name = bottom;
position = "{702, 0}";
},
{
name = top;
position = "{702, 1427}";
}
);
layerId = "410E5E1C-5FD0-457E-A79B-7BF13808BDAC";
paths = (
{
closed = 1;
nodes = (
"795.333 -31 OFFCURVE",
"877.667 -20.667 OFFCURVE",
"951 2 CURVE",
"1034 -115 LINE",
"1252 -115 LINE",
"1106 90 LINE",
"1163.333 143.333 OFFCURVE",
"1209.5 216.667 OFFCURVE",
"1239.5 318 CURVE SMOOTH",
"1269.5 419.333 OFFCURVE",
"1286 547.667 OFFCURVE",
"1286 709 CURVE SMOOTH",
"1286 907.667 OFFCURVE",
"1261.5 1057.333 OFFCURVE",
"1215.5 1168 CURVE SMOOTH",
"1192.5 1223.333 OFFCURVE",
"1164.333 1269.5 OFFCURVE",
"1131 1306.5 CURVE SMOOTH",
"1064.333 1380.5 OFFCURVE",
"977.333 1423.333 OFFCURVE",
"872 1442 CURVE SMOOTH",
"819.333 1451.333 OFFCURVE",
"762.667 1456 OFFCURVE",
"702 1456 CURVE SMOOTH",
"519.333 1456 OFFCURVE",
"372.333 1418.833 OFFCURVE",
"271 1307.5 CURVE SMOOTH",
"169.667 1196.167 OFFCURVE",
"115 1009 OFFCURVE",
"115 709 CURVE SMOOTH",
"115 509 OFFCURVE",
"139.333 360.5 OFFCURVE",
"186 250.5 CURVE SMOOTH",
"209.333 195.5 OFFCURVE",
"237.833 150 OFFCURVE",
"271.5 114 CURVE SMOOTH",
"338.833 42 OFFCURVE",
"425.667 -0.667 OFFCURVE",
"531 -18 CURVE SMOOTH",
"583.667 -26.667 OFFCURVE",
"640.667 -31 OFFCURVE",
"702 -31 CURVE"
);
},
{
closed = 1;
nodes = (
"571.333 190 OFFCURVE",
"486.667 216.5 OFFCURVE",
"436 294.5 CURVE SMOOTH",
"385.333 372.5 OFFCURVE",
"367 502.333 OFFCURVE",
"367 709 CURVE SMOOTH",
"367 917 OFFCURVE",
"385.333 1047.167 OFFCURVE",
"436 1126.5 CURVE SMOOTH",
"486.667 1205.833 OFFCURVE",
"571.333 1233 OFFCURVE",
"702 1233 CURVE SMOOTH",
"832.667 1233 OFFCURVE",
"916.333 1205.833 OFFCURVE",
"967 1126.5 CURVE SMOOTH",
"1017.667 1047.167 OFFCURVE",
"1036 917 OFFCURVE",
"1036 709 CURVE SMOOTH",
"1036 494.333 OFFCURVE",
"1017 363.333 OFFCURVE",
"961 286 CURVE",
"862 430 LINE",
"647 430 LINE",
"809 198 LINE",
"778.333 192.667 OFFCURVE",
"742 190 OFFCURVE",
"702 190 CURVE"
);
}
);
userData = {
assembly = "PUSHB[ ]	/* 1 value pushed */\01254 \012MDAP[1]	/* MoveDirectAbsPt */\012PUSHB[ ]	/* 1 value pushed */\01239 \012MDAP[1]	/* MoveDirectAbsPt */\012PUSHB[ ]	/* 1 value pushed */\01254 \012SRP0[ ]	/* SetRefPoint0 */\012PUSHB[ ]	/* 1 value pushed */\0127 \012MDRP[10000]	/* MoveDirectRelPt */\012PUSHB[ ]	/* 1 value pushed */\0127 \012MDAP[1]	/* MoveDirectAbsPt */\012NPUSHB[ ]	/* 11 values pushed */\0129 39 25 39 41 39 57 39 73 39 5 \012DELTAP1[ ]	/* DeltaExceptionP1 */\012PUSHB[ ]	/* 1 value pushed */\01239 \012SRP0[ ]	/* SetRefPoint0 */\012PUSHB[ ]	/* 2 values pushed */\01219 11 \012MIRP[10100]	/* MoveIndirectRelPt */\012PUSHB[ ]	/* 3 values pushed */\01225 39 19 \012SRP1[ ]	/* SetRefPoint1 */\012SRP2[ ]	/* SetRefPoint2 */\012IP[ ]	/* InterpolatePts */\012PUSHB[ ]	/* 1 value pushed */\01239 \012SRP0[ ]	/* SetRefPoint0 */\012PUSHB[ ]	/* 1 value pushed */\01226 \012MDRP[10000]	/* MoveDirectRelPt */\012PUSHB[ ]	/* 1 value pushed */\01226 \012MDAP[1]	/* MoveDirectAbsPt */\012PUSHB[ ]	/* 3 values pushed */\01233 7 19 \012SRP1[ ]	/* SetRefPoint1 */\012SRP2[ ]	/* SetRefPoint2 */\012IP[ ]	/* InterpolatePts */\012PUSHB[ ]	/* 3 values pushed */\01234 7 19 \012SRP1[ ]	/* SetRefPoint1 */\012SRP2[ ]	/* SetRefPoint2 */\012IP[ ]	/* InterpolatePts */\012PUSHB[ ]	/* 3 values pushed */\01236 7 19 \012SRP1[ ]	/* SetRefPoint1 */\012SRP2[ ]	/* SetRefPoint2 */\012IP[ ]	/* InterpolatePts */\012PUSHB[ ]	/* 1 value pushed */\0127 \012SRP0[ ]	/* SetRefPoint0 */\012PUSHB[ ]	/* 2 values pushed */\01249 11 \012MIRP[10100]	/* MoveIndirectRelPt */\012NPUSHB[ ]	/* 11 values pushed */\0126 49 22 49 38 49 54 49 70 49 5 \012DELTAP1[ ]	/* DeltaExceptionP1 */\012PUSHB[ ]	/* 1 value pushed */\01219 \012SRP0[ ]	/* SetRefPoint0 */\012PUSHB[ ]	/* 1 value pushed */\01255 \012MDRP[11100]	/* MoveDirectRelPt */\012SVTCA[0]	/* SetFreedomAndProjectionVectorToAxis */\012PUSHB[ ]	/* 1 value pushed */\0120 \012RCVT[ ]	/* ReadCVT */\012IF[ ]	/* If */\012PUSHB[ ]	/* 1 value pushed */\01212 \012MDAP[1]	/* MoveDirectAbsPt */\012ELSE[ ]	/* Else */\012PUSHB[ ]	/* 2 values pushed */\01212 23 \012MIAP[0]	/* MoveIndirectAbsPt */\012EIF[ ]	/* EndIf */\012PUSHB[ ]	/* 1 value pushed */\0120 \012RCVT[ ]	/* ReadCVT */\012IF[ ]	/* If */\012PUSHB[ ]	/* 1 value pushed */\0120 \012MDAP[1]	/* MoveDirectAbsPt */\012ELSE[ ]	/* Else */\012PUSHB[ ]	/* 2 values pushed */\0120 17 \012MIAP[0]	/* MoveIndirectAbsPt */\012EIF[ ]	/* EndIf */\012PUSHB[ ]	/* 2 values pushed */\01230 3 \012MIRP[10100]	/* MoveIndirectRelPt */\012NPUSHB[ ]	/* 11 values pushed */\0127 30 23 30 39 30 55 30 71 30 5 \012DELTAP1[ ]	/* DeltaExceptionP1 */\012PUSHB[ ]	/* 1 value pushed */\01233 \012MDRP[10000]	/* MoveDirectRelPt */\012PUSHB[ ]	/* 1 value pushed */\01233 \012MDAP[1]	/* MoveDirectAbsPt */\012PUSHB[ ]	/* 3 values pushed */\01236 0 12 \012SRP1[ ]	/* SetRefPoint1 */\012SRP2[ ]	/* SetRefPoint2 */\012IP[ ]	/* InterpolatePts */\012PUSHB[ ]	/* 1 value pushed */\01212 \012SRP0[ ]	/* SetRefPoint0 */\012PUSHB[ ]	/* 2 values pushed */\01244 3 \012MIRP[10100]	/* MoveIndirectRelPt */\012NPUSHB[ ]	/* 11 values pushed */\0128 44 24 44 40 44 56 44 72 44 5 \012DELTAP1[ ]	/* DeltaExceptionP1 */\012IUP[0]	/* InterpolateUntPts */\012IUP[1]	/* InterpolateUntPts */";
};
width = 1403;
}
);
leftKerningGroup = O;
note = Q;
rightKerningGroup = O;
unicode = 0051;
},
{
color = 4;
glyphname = R;
lastChange = "2022-05-11 04:45:39 +0000";
layers = (
{
anchors = (
{
name = bottom;
position = "{643, 0}";
},
{
name = top;
position = "{643, 1427}";
}
);
layerId = "410E5E1C-5FD0-457E-A79B-7BF13808BDAC";
paths = (
{
closed = 1;
nodes = (
"422 0 LINE",
"422 524 LINE",
"659 524 LINE",
"926 0 LINE",
"1200 0 LINE",
"899 578 LINE",
"899 580 LINE",
"945 592.667 OFFCURVE",
"986.333 615 OFFCURVE",
"1023 647 CURVE SMOOTH",
"1096.285 713.912 OFFCURVE",
"1147 814.614 OFFCURVE",
"1147 969 CURVE SMOOTH",
"1147 1097 OFFCURVE",
"1124.833 1190 OFFCURVE",
"1085.5 1258 CURVE SMOOTH",
"1065.833 1292 OFFCURVE",
"1042.667 1319.833 OFFCURVE",
"1016 1341.5 CURVE SMOOTH",
"962.667 1384.833 OFFCURVE",
"897.167 1409.5 OFFCURVE",
"824.5 1419.5 CURVE SMOOTH",
"788.167 1424.5 OFFCURVE",
"751 1427 OFFCURVE",
"713 1427 CURVE SMOOTH",
"182 1427 LINE",
"182 0 LINE"
);
},
{
closed = 1;
nodes = (
"422 1204 LINE",
"705 1204 LINE SMOOTH",
"832.561 1204 OFFCURVE",
"899 1137.377 OFFCURVE",
"899 983 CURVE SMOOTH",
"899 827.667 OFFCURVE",
"836.333 750 OFFCURVE",
"711 750 CURVE SMOOTH",
"422 750 LINE"
);
}
);
userData = {
assembly = "PUSHB[ ]	/* 1 value pushed */\01233 \012MDAP[1]	/* MoveDirectAbsPt */\012PUSHB[ ]	/* 1 value pushed */\01225 \012MDAP[1]	/* MoveDirectAbsPt */\012PUSHB[ ]	/* 1 value pushed */\01233 \012SRP0[ ]	/* SetRefPoint0 */\012PUSHB[ ]	/* 1 value pushed */\0120 \012MDRP[10000]	/* MoveDirectRelPt */\012PUSHB[ ]	/* 1 value pushed */\0120 \012MDAP[1]	/* MoveDirectAbsPt */\012NPUSHB[ ]	/* 11 values pushed */\0129 25 25 25 41 25 57 25 73 25 5 \012DELTAP1[ ]	/* DeltaExceptionP1 */\012PUSHB[ ]	/* 1 value pushed */\01225 \012SRP0[ ]	/* SetRefPoint0 */\012PUSHB[ ]	/* 2 values pushed */\0128 12 \012MIRP[10100]	/* MoveIndirectRelPt */\012PUSHB[ ]	/* 1 value pushed */\01225 \012SRP0[ ]	/* SetRefPoint0 */\012PUSHB[ ]	/* 1 value pushed */\01215 \012MDRP[10000]	/* MoveDirectRelPt */\012PUSHB[ ]	/* 1 value pushed */\0120 \012SRP0[ ]	/* SetRefPoint0 */\012PUSHB[ ]	/* 2 values pushed */\01231 12 \012MIRP[10100]	/* MoveIndirectRelPt */\012PUSHB[ ]	/* 1 value pushed */\01220 \012MDRP[10000]	/* MoveDirectRelPt */\012PUSHB[ ]	/* 1 value pushed */\0128 \012SRP0[ ]	/* SetRefPoint0 */\012PUSHB[ ]	/* 1 value pushed */\01234 \012MDRP[11100]	/* MoveDirectRelPt */\012SVTCA[0]	/* SetFreedomAndProjectionVectorToAxis */\012PUSHB[ ]	/* 1 value pushed */\0120 \012RCVT[ ]	/* ReadCVT */\012IF[ ]	/* If */\012PUSHB[ ]	/* 1 value pushed */\0120 \012MDAP[1]	/* MoveDirectAbsPt */\012ELSE[ ]	/* Else */\012PUSHB[ ]	/* 2 values pushed */\0120 23 \012MIAP[0]	/* MoveIndirectAbsPt */\012EIF[ ]	/* EndIf */\012PUSHB[ ]	/* 1 value pushed */\0120 \012RCVT[ ]	/* ReadCVT */\012IF[ ]	/* If */\012PUSHB[ ]	/* 1 value pushed */\01217 \012MDAP[1]	/* MoveDirectAbsPt */\012ELSE[ ]	/* Else */\012PUSHB[ ]	/* 2 values pushed */\01217 17 \012MIAP[0]	/* MoveIndirectAbsPt */\012EIF[ ]	/* EndIf */\012PUSHB[ ]	/* 1 value pushed */\0120 \012RCVT[ ]	/* ReadCVT */\012IF[ ]	/* If */\012PUSHB[ ]	/* 1 value pushed */\01221 \012MDAP[1]	/* MoveDirectAbsPt */\012ELSE[ ]	/* Else */\012PUSHB[ ]	/* 2 values pushed */\01221 17 \012MIAP[0]	/* MoveIndirectAbsPt */\012EIF[ ]	/* EndIf */\012PUSHB[ ]	/* 4 values pushed */\01223 3 19 4 \012CALL[ ]	/* CallFunction */\012PUSHB[ ]	/* 1 value pushed */\0120 \012SRP0[ ]	/* SetRefPoint0 */\012PUSHB[ ]	/* 2 values pushed */\01230 3 \012MIRP[10100]	/* MoveIndirectRelPt */\012IUP[0]	/* InterpolateUntPts */\012IUP[1]	/* InterpolateUntPts */";
};
width = 1285;
}
);
leftKerningGroup = H;
note = R;
rightKerningGroup = R;
unicode = 0052;
},
{
color = 4;
glyphname = S;
lastChange = "2022-05-11 05:38:50 +0000";
layers = (
{
anchors = (
{
name = bottom;
position = "{555, 0}";
},
{
name = top;
position = "{555, 1427}";
}
);
layerId = "410E5E1C-5FD0-457E-A79B-7BF13808BDAC";
paths = (
{
closed = 1;
nodes = (
"141.333 24.333 OFFCURVE",
"170.333 13 OFFCURVE",
"207 3 CURVE SMOOTH",
"271 -14.333 OFFCURVE",
"369.333 -31 OFFCURVE",
"524 -31 CURVE SMOOTH",
"724 -31 OFFCURVE",
"845 0.833 OFFCURVE",
"917 69.5 CURVE SMOOTH",
"989 138.167 OFFCURVE",
"1010 246 OFFCURVE",
"1010 398 CURVE SMOOTH",
"1010 475 OFFCURVE",
"1002 549 OFFCURVE",
"985 605 CURVE SMOOTH",
"976 632 OFFCURVE",
"965 656 OFFCURVE",
"951 676 CURVE SMOOTH",
"922 716 OFFCURVE",
"883 746 OFFCURVE",
"829 768 CURVE SMOOTH",
"802 779 OFFCURVE",
"771 789 OFFCURVE",
"736 799 CURVE SMOOTH",
"465 877 LINE SMOOTH",
"363 906 OFFCURVE",
"346 945 OFFCURVE",
"346 1057 CURVE SMOOTH",
"346 1134 OFFCURVE",
"361 1178.667 OFFCURVE",
"405 1204 CURVE SMOOTH",
"449 1229.333 OFFCURVE",
"522.333 1235 OFFCURVE",
"641 1235 CURVE SMOOTH",
"717 1235 OFFCURVE",
"790.667 1229.667 OFFCURVE",
"848 1223 CURVE SMOOTH",
"881.333 1219.667 OFFCURVE",
"913 1216 OFFCURVE",
"943 1212 CURVE",
"943 1397 LINE",
"910.333 1407.667 OFFCURVE",
"874 1417.333 OFFCURVE",
"834 1426 CURVE SMOOTH",
"766 1440.667 OFFCURVE",
"670.333 1456 OFFCURVE",
"557 1456 CURVE SMOOTH",
"421 1456 OFFCURVE",
"308.5 1424.667 OFFCURVE",
"230.5 1358 CURVE SMOOTH",
"152.5 1291.333 OFFCURVE",
"108 1188.333 OFFCURVE",
"108 1047 CURVE SMOOTH",
"108 935 OFFCURVE",
"125 848 OFFCURVE",
"165 785 CURVE SMOOTH",
"204 722 OFFCURVE",
"267 683 OFFCURVE",
"359 659 CURVE SMOOTH",
"650 583 LINE SMOOTH",
"758 555 OFFCURVE",
"773 493 OFFCURVE",
"773 383 CURVE SMOOTH",
"773 320.333 OFFCURVE",
"766 272.167 OFFCURVE",
"726 239.5 CURVE SMOOTH",
"686 206.833 OFFCURVE",
"614.333 190 OFFCURVE",
"485 190 CURVE SMOOTH",
"387.667 190 OFFCURVE",
"298 194.333 OFFCURVE",
"230 201 CURVE SMOOTH",
"190.667 204.333 OFFCURVE",
"154 208.333 OFFCURVE",
"120 213 CURVE",
"120 37 LINE"
);
}
);
userData = {
assembly = "PUSHB[ ]	/* 1 value pushed */\01266 \012MDAP[1]	/* MoveDirectAbsPt */\012PUSHB[ ]	/* 1 value pushed */\01210 \012MDAP[1]	/* MoveDirectAbsPt */\012PUSHB[ ]	/* 1 value pushed */\01266 \012SRP0[ ]	/* SetRefPoint0 */\012PUSHB[ ]	/* 1 value pushed */\01221 \012MDRP[10000]	/* MoveDirectRelPt */\012PUSHB[ ]	/* 1 value pushed */\01221 \012MDAP[1]	/* MoveDirectAbsPt */\012PUSHB[ ]	/* 1 value pushed */\0120 \012MDRP[10000]	/* MoveDirectRelPt */\012PUSHB[ ]	/* 1 value pushed */\0120 \012MDAP[1]	/* MoveDirectAbsPt */\012NPUSHB[ ]	/* 11 values pushed */\0129 10 25 10 41 10 57 10 73 10 5 \012DELTAP1[ ]	/* DeltaExceptionP1 */\012PUSHB[ ]	/* 1 value pushed */\01221 \012SRP0[ ]	/* SetRefPoint0 */\012PUSHB[ ]	/* 2 values pushed */\01242 13 \012MIRP[10100]	/* MoveIndirectRelPt */\012PUSHB[ ]	/* 7 values pushed */\0126 42 22 42 38 42 3 \012DELTAP1[ ]	/* DeltaExceptionP1 */\012PUSHB[ ]	/* 5 values pushed */\01254 42 70 42 2 \012DELTAP1[ ]	/* DeltaExceptionP1 */\012PUSHB[ ]	/* 1 value pushed */\01216 \012MDRP[10000]	/* MoveDirectRelPt */\012PUSHB[ ]	/* 1 value pushed */\01216 \012MDAP[1]	/* MoveDirectAbsPt */\012PUSHB[ ]	/* 1 value pushed */\01210 \012SRP0[ ]	/* SetRefPoint0 */\012PUSHB[ ]	/* 2 values pushed */\01255 13 \012MIRP[10100]	/* MoveIndirectRelPt */\012PUSHB[ ]	/* 1 value pushed */\01267 \012MDRP[11100]	/* MoveDirectRelPt */\012SVTCA[0]	/* SetFreedomAndProjectionVectorToAxis */\012PUSHB[ ]	/* 1 value pushed */\0120 \012RCVT[ ]	/* ReadCVT */\012IF[ ]	/* If */\012PUSHB[ ]	/* 1 value pushed */\01226 \012MDAP[1]	/* MoveDirectAbsPt */\012ELSE[ ]	/* Else */\012PUSHB[ ]	/* 2 values pushed */\01226 23 \012MIAP[0]	/* MoveIndirectAbsPt */\012EIF[ ]	/* EndIf */\012PUSHB[ ]	/* 1 value pushed */\0120 \012RCVT[ ]	/* ReadCVT */\012IF[ ]	/* If */\012PUSHB[ ]	/* 1 value pushed */\01260 \012MDAP[1]	/* MoveDirectAbsPt */\012ELSE[ ]	/* Else */\012PUSHB[ ]	/* 2 values pushed */\01260 17 \012MIAP[0]	/* MoveIndirectAbsPt */\012EIF[ ]	/* EndIf */\012PUSHB[ ]	/* 2 values pushed */\0122 3 \012MIRP[10100]	/* MoveIndirectRelPt */\012NPUSHB[ ]	/* 11 values pushed */\0127 2 23 2 39 2 55 2 71 2 5 \012DELTAP1[ ]	/* DeltaExceptionP1 */\012PUSHB[ ]	/* 1 value pushed */\0125 \012MDRP[10000]	/* MoveDirectRelPt */\012PUSHB[ ]	/* 1 value pushed */\01226 \012SRP0[ ]	/* SetRefPoint0 */\012PUSHB[ ]	/* 2 values pushed */\01234 3 \012MIRP[10100]	/* MoveIndirectRelPt */\012NPUSHB[ ]	/* 11 values pushed */\0128 34 24 34 40 34 56 34 72 34 5 \012DELTAP1[ ]	/* DeltaExceptionP1 */\012PUSHB[ ]	/* 1 value pushed */\01237 \012MDRP[10000]	/* MoveDirectRelPt */\012IUP[0]	/* InterpolateUntPts */\012IUP[1]	/* InterpolateUntPts */";
};
width = 1110;
}
);
leftKerningGroup = S;
note = S;
rightKerningGroup = S;
unicode = 0053;
},
{
glyphname = Saltillo;
lastChange = "2022-05-11 05:37:28 +0000";
layers = (
{
layerId = "410E5E1C-5FD0-457E-A79B-7BF13808BDAC";
paths = (
{
closed = 1;
nodes = (
"422 438 LINE",
"422 1427 LINE",
"182 1427 LINE",
"182 438 LINE"
);
}
);
width = 604;
}
);
leftKerningGroup = Saltillo;
rightKerningGroup = Saltillo;
unicode = A78B;
},
{
color = 4;
glyphname = Germandbls;
lastChange = "2022-05-11 05:37:28 +0000";
layers = (
{
background = {
components = (
{
name = H;
transform = "{1, 0, 0, 1, -1, 0}";
}
);
};
layerId = "410E5E1C-5FD0-457E-A79B-7BF13808BDAC";
paths = (
{
closed = 1;
nodes = (
"1278 652 OFFCURVE",
"1267 676 OFFCURVE",
"1253 696 CURVE SMOOTH",
"1224 736 OFFCURVE",
"1185 766 OFFCURVE",
"1131 788 CURVE SMOOTH",
"1104 799 OFFCURVE",
"1073 809 OFFCURVE",
"1038 819 CURVE SMOOTH",
"940 847 LINE",
"1239 1268 LINE",
"1239 1427 LINE",
"182 1427 LINE",
"182 0 LINE",
"421 0 LINE",
"421 1214 LINE",
"915 1214 LINE",
"915 1212 LINE",
"619 726 LINE",
"952 605 LINE SMOOTH",
"1060 566 OFFCURVE",
"1075 515 OFFCURVE",
"1075 383 CURVE SMOOTH",
"1075 320 OFFCURVE",
"1068 272 OFFCURVE",
"1028 240 CURVE SMOOTH",
"988 207 OFFCURVE",
"916 190 OFFCURVE",
"837 190 CURVE SMOOTH",
"790 190 OFFCURVE",
"740 194 OFFCURVE",
"672 200 CURVE SMOOTH",
"633 204 OFFCURVE",
"596 208 OFFCURVE",
"562 213 CURVE",
"562 37 LINE",
"583 24 OFFCURVE",
"612 13 OFFCURVE",
"649 3 CURVE SMOOTH",
"713 -14 OFFCURVE",
"771 -31 OFFCURVE",
"876 -31 CURVE SMOOTH",
"1026 -31 OFFCURVE",
"1147 1 OFFCURVE",
"1219 70 CURVE SMOOTH",
"1291 138 OFFCURVE",
"1312 246 OFFCURVE",
"1312 398 CURVE SMOOTH",
"1312 495 OFFCURVE",
"1304 569 OFFCURVE",
"1287 625 CURVE SMOOTH"
);
}
);
width = 1412;
}
);
leftKerningGroup = Germandbls;
leftMetricsKey = H;
rightKerningGroup = Germandbls;
rightMetricsKey = S;
unicode = 1E9E;
},
{
glyphname = Schwa;
lastChange = "2022-05-11 05:37:28 +0000";
layers = (
{
layerId = "410E5E1C-5FD0-457E-A79B-7BF13808BDAC";
paths = (
{
closed = 1;
nodes = (
"1308 996 OFFCURVE",
"1247 1185 OFFCURVE",
"1135 1301 CURVE SMOOTH",
"1023 1417 OFFCURVE",
"860 1458 OFFCURVE",
"683 1458 CURVE SMOOTH",
"291 1458 OFFCURVE",
"57 1170 OFFCURVE",
"127 627 CURVE",
"1156 628 LINE",
"1156 847 LINE",
"389 849 LINE",
"347 1139 OFFCURVE",
"502 1237 OFFCURVE",
"699 1237 CURVE SMOOTH",
"810 1237 OFFCURVE",
"910 1198 OFFCURVE",
"973 1111 CURVE SMOOTH",
"1036 1024 OFFCURVE",
"1061 891 OFFCURVE",
"1061 700 CURVE SMOOTH",
"1061 513 OFFCURVE",
"1038 387 OFFCURVE",
"974 307 CURVE SMOOTH",
"910 227 OFFCURVE",
"804 194 OFFCURVE",
"637 194 CURVE SMOOTH",
"541 194 OFFCURVE",
"447 200 OFFCURVE",
"376 205 CURVE SMOOTH",
"335 208 OFFCURVE",
"296 211 OFFCURVE",
"260 215 CURVE",
"260 34 LINE",
"293 23 OFFCURVE",
"331 12 OFFCURVE",
"373 3 CURVE SMOOTH",
"446 -13 OFFCURVE",
"549 -29 OFFCURVE",
"678 -29 CURVE SMOOTH",
"870 -29 OFFCURVE",
"1026 16 OFFCURVE",
"1136 130 CURVE SMOOTH",
"1246 244 OFFCURVE",
"1308 427 OFFCURVE",
"1308 700 CURVE"
);
}
);
width = 1423;
}
);
leftKerningGroup = O;
leftMetricsKey = O;
rightKerningGroup = O;
rightMetricsKey = O;
unicode = 018F;
},
{
color = 4;
glyphname = T;
lastChange = "2022-05-11 04:45:39 +0000";
layers = (
{
anchors = (
{
name = bottom;
position = "{561, 0}";
},
{
name = center;
position = "{561, 714}";
},
{
name = top;
position = "{561, 1427}";
}
);
layerId = "410E5E1C-5FD0-457E-A79B-7BF13808BDAC";
paths = (
{
closed = 1;
nodes = (
"678 0 LINE",
"678 1206 LINE",
"1110 1206 LINE",
"1110 1427 LINE",
"12 1427 LINE",
"12 1206 LINE",
"440 1206 LINE",
"440 0 LINE"
);
}
);
userData = {
assembly = "PUSHB[ ]	/* 4 values pushed */\0125 13 0 4 \012CALL[ ]	/* CallFunction */\012SVTCA[0]	/* SetFreedomAndProjectionVectorToAxis */\012PUSHB[ ]	/* 1 value pushed */\0120 \012RCVT[ ]	/* ReadCVT */\012IF[ ]	/* If */\012PUSHB[ ]	/* 1 value pushed */\0122 \012MDAP[1]	/* MoveDirectAbsPt */\012ELSE[ ]	/* Else */\012PUSHB[ ]	/* 2 values pushed */\0122 23 \012MIAP[0]	/* MoveIndirectAbsPt */\012EIF[ ]	/* EndIf */\012PUSHB[ ]	/* 1 value pushed */\0120 \012RCVT[ ]	/* ReadCVT */\012IF[ ]	/* If */\012PUSHB[ ]	/* 1 value pushed */\0126 \012MDAP[1]	/* MoveDirectAbsPt */\012ELSE[ ]	/* Else */\012PUSHB[ ]	/* 2 values pushed */\0126 17 \012MIAP[0]	/* MoveIndirectAbsPt */\012EIF[ ]	/* EndIf */\012PUSHB[ ]	/* 1 value pushed */\0122 \012SRP0[ ]	/* SetRefPoint0 */\012PUSHB[ ]	/* 2 values pushed */\0120 3 \012MIRP[10100]	/* MoveIndirectRelPt */\012PUSHB[ ]	/* 1 value pushed */\0124 \012MDRP[10000]	/* MoveDirectRelPt */\012PUSHB[ ]	/* 1 value pushed */\0125 \012MDRP[10000]	/* MoveDirectRelPt */\012IUP[0]	/* InterpolateUntPts */\012IUP[1]	/* InterpolateUntPts */";
};
width = 1122;
}
);
leftKerningGroup = T;
note = T;
rightKerningGroup = T;
unicode = 0054;
},
{
glyphname = Tbar;
lastChange = "2022-05-11 04:40:54 +0000";
layers = (
{
layerId = "410E5E1C-5FD0-457E-A79B-7BF13808BDAC";
paths = (
{
closed = 1;
nodes = (
"707 0 LINE",
"707 603 LINE",
"996 603 LINE",
"996 797 LINE",
"707 797 LINE",
"707 1206 LINE",
"1139 1206 LINE",
"1139 1427 LINE",
"41 1427 LINE",
"41 1206 LINE",
"469 1206 LINE",
"469 797 LINE",
"185 797 LINE",
"185 603 LINE",
"469 603 LINE",
"469 0 LINE"
);
}
);
userData = {
assembly = "PUSHB[ ]	/* 3 values pushed */\01212 1 3 \012CALL[ ]	/* CallFunction */\012PUSHB[ ]	/* 3 values pushed */\0120 1 12 \012SRP1[ ]	/* SetRefPoint1 */\012SRP2[ ]	/* SetRefPoint2 */\012IP[ ]	/* InterpolatePts */\012PUSHB[ ]	/* 1 value pushed */\0120 \012MDAP[1]	/* MoveDirectAbsPt */\012PUSHB[ ]	/* 1 value pushed */\0123 \012MDRP[10000]	/* MoveDirectRelPt */\012PUSHB[ ]	/* 1 value pushed */\0120 \012SRP0[ ]	/* SetRefPoint0 */\012PUSHB[ ]	/* 2 values pushed */\01213 13 \012MIRP[10100]	/* MoveIndirectRelPt */\012PUSHB[ ]	/* 1 value pushed */\0129 \012MDRP[10000]	/* MoveDirectRelPt */\012PUSHB[ ]	/* 1 value pushed */\01212 \012SRP0[ ]	/* SetRefPoint0 */\012PUSHB[ ]	/* 1 value pushed */\01217 \012MDRP[11100]	/* MoveDirectRelPt */\012SVTCA[0]	/* SetFreedomAndProjectionVectorToAxis */\012PUSHB[ ]	/* 1 value pushed */\0120 \012RCVT[ ]	/* ReadCVT */\012IF[ ]	/* If */\012PUSHB[ ]	/* 1 value pushed */\0126 \012MDAP[1]	/* MoveDirectAbsPt */\012ELSE[ ]	/* Else */\012PUSHB[ ]	/* 2 values pushed */\0126 23 \012MIAP[0]	/* MoveIndirectAbsPt */\012EIF[ ]	/* EndIf */\012PUSHB[ ]	/* 1 value pushed */\0120 \012RCVT[ ]	/* ReadCVT */\012IF[ ]	/* If */\012PUSHB[ ]	/* 1 value pushed */\01214 \012MDAP[1]	/* MoveDirectAbsPt */\012ELSE[ ]	/* Else */\012PUSHB[ ]	/* 2 values pushed */\01214 17 \012MIAP[0]	/* MoveIndirectAbsPt */\012EIF[ ]	/* EndIf */\012PUSHB[ ]	/* 4 values pushed */\0123 8 0 4 \012CALL[ ]	/* CallFunction */\012PUSHB[ ]	/* 1 value pushed */\0126 \012SRP0[ ]	/* SetRefPoint0 */\012PUSHB[ ]	/* 2 values pushed */\0124 3 \012MIRP[10100]	/* MoveIndirectRelPt */\012PUSHB[ ]	/* 1 value pushed */\0128 \012MDRP[10000]	/* MoveDirectRelPt */\012PUSHB[ ]	/* 1 value pushed */\0129 \012MDRP[10000]	/* MoveDirectRelPt */\012PUSHB[ ]	/* 1 value pushed */\0123 \012SRP0[ ]	/* SetRefPoint0 */\012PUSHB[ ]	/* 1 value pushed */\01210 \012MDRP[10000]	/* MoveDirectRelPt */\012PUSHB[ ]	/* 1 value pushed */\0120 \012SRP0[ ]	/* SetRefPoint0 */\012PUSHB[ ]	/* 1 value pushed */\01212 \012MDRP[10000]	/* MoveDirectRelPt */\012IUP[0]	/* InterpolateUntPts */\012IUP[1]	/* InterpolateUntPts */";
};
width = 1180;
}
);
leftKerningGroup = T;
note = Tbar;
rightKerningGroup = T;
unicode = 0166;
},
{
color = 4;
glyphname = U;
lastChange = "2022-05-11 05:34:24 +0000";
layers = (
{
anchors = (
{
name = bottom;
position = "{703, 0}";
},
{
name = ogonek;
position = "{1265, 10}";
},
{
name = top;
position = "{703, 1427}";
},
{
name = topright;
position = "{1570, 1427}";
}
);
layerId = "410E5E1C-5FD0-457E-A79B-7BF13808BDAC";
paths = (
{
closed = 1;
nodes = (
"177 289.667 OFFCURVE",
"213.833 168 OFFCURVE",
"298.5 88 CURVE SMOOTH",
"383.167 8 OFFCURVE",
"514.667 -31 OFFCURVE",
"704 -31 CURVE SMOOTH",
"893.333 -31 OFFCURVE",
"1024 8.833 OFFCURVE",
"1108 89.5 CURVE SMOOTH",
"1192 170.167 OFFCURVE",
"1228 292.333 OFFCURVE",
"1228 459 CURVE SMOOTH",
"1228 1427 LINE",
"990 1427 LINE",
"990 473 LINE SMOOTH",
"990 359.667 OFFCURVE",
"967 288.5 OFFCURVE",
"919 246.5 CURVE SMOOTH",
"871 204.5 OFFCURVE",
"800 190 OFFCURVE",
"704 190 CURVE SMOOTH",
"597.333 190 OFFCURVE",
"525.5 204.5 OFFCURVE",
"479.5 246.5 CURVE SMOOTH",
"433.5 288.5 OFFCURVE",
"415 359.667 OFFCURVE",
"415 473 CURVE SMOOTH",
"415 1427 LINE",
"177 1427 LINE",
"177 455 LINE"
);
}
);
userData = {
assembly = "PUSHB[ ]	/* 1 value pushed */\01226 \012MDAP[1]	/* MoveDirectAbsPt */\012PUSHB[ ]	/* 1 value pushed */\01212 \012MDAP[1]	/* MoveDirectAbsPt */\012PUSHB[ ]	/* 1 value pushed */\01226 \012SRP0[ ]	/* SetRefPoint0 */\012PUSHB[ ]	/* 1 value pushed */\0120 \012MDRP[10000]	/* MoveDirectRelPt */\012PUSHB[ ]	/* 1 value pushed */\0120 \012MDAP[1]	/* MoveDirectAbsPt */\012PUSHB[ ]	/* 2 values pushed */\0121 13 \012MIRP[10100]	/* MoveIndirectRelPt */\012PUSHB[ ]	/* 1 value pushed */\01212 \012SRP0[ ]	/* SetRefPoint0 */\012PUSHB[ ]	/* 2 values pushed */\01215 13 \012MIRP[10100]	/* MoveIndirectRelPt */\012PUSHB[ ]	/* 1 value pushed */\01227 \012MDRP[11100]	/* MoveDirectRelPt */\012SVTCA[0]	/* SetFreedomAndProjectionVectorToAxis */\012PUSHB[ ]	/* 1 value pushed */\0120 \012RCVT[ ]	/* ReadCVT */\012IF[ ]	/* If */\012PUSHB[ ]	/* 1 value pushed */\0120 \012MDAP[1]	/* MoveDirectAbsPt */\012ELSE[ ]	/* Else */\012PUSHB[ ]	/* 2 values pushed */\0120 23 \012MIAP[0]	/* MoveIndirectAbsPt */\012EIF[ ]	/* EndIf */\012PUSHB[ ]	/* 1 value pushed */\0120 \012RCVT[ ]	/* ReadCVT */\012IF[ ]	/* If */\012PUSHB[ ]	/* 1 value pushed */\01213 \012MDAP[1]	/* MoveDirectAbsPt */\012ELSE[ ]	/* Else */\012PUSHB[ ]	/* 2 values pushed */\01213 23 \012MIAP[0]	/* MoveIndirectAbsPt */\012EIF[ ]	/* EndIf */\012PUSHB[ ]	/* 1 value pushed */\0120 \012RCVT[ ]	/* ReadCVT */\012IF[ ]	/* If */\012PUSHB[ ]	/* 1 value pushed */\01220 \012MDAP[1]	/* MoveDirectAbsPt */\012ELSE[ ]	/* Else */\012PUSHB[ ]	/* 2 values pushed */\01220 17 \012MIAP[0]	/* MoveIndirectAbsPt */\012EIF[ ]	/* EndIf */\012PUSHB[ ]	/* 2 values pushed */\0127 3 \012MIRP[10100]	/* MoveIndirectRelPt */\012NPUSHB[ ]	/* 11 values pushed */\0127 7 23 7 39 7 55 7 71 7 5 \012DELTAP1[ ]	/* DeltaExceptionP1 */\012IUP[0]	/* InterpolateUntPts */\012IUP[1]	/* InterpolateUntPts */";
};
width = 1405;
}
);
leftKerningGroup = U;
note = U;
rightKerningGroup = U;
unicode = 0055;
},
{
glyphname = Uogonek;
lastChange = "2022-05-11 04:40:54 +0000";
layers = (
{
layerId = "410E5E1C-5FD0-457E-A79B-7BF13808BDAC";
paths = (
{
closed = 1;
nodes = (
"177 296.333 OFFCURVE",
"210.667 178 OFFCURVE",
"288 98 CURVE SMOOTH",
"365.333 18 OFFCURVE",
"485.667 -24.667 OFFCURVE",
"659 -30 CURVE",
"603.896 -96.125 OFFCURVE",
"554 -181.475 OFFCURVE",
"554 -279 CURVE SMOOTH",
"554 -423.272 OFFCURVE",
"662.244 -500 OFFCURVE",
"806 -500 CURVE SMOOTH",
"844.667 -500 OFFCURVE",
"877.333 -495.333 OFFCURVE",
"904 -490 CURVE SMOOTH",
"918.667 -487.333 OFFCURVE",
"932.667 -483.667 OFFCURVE",
"946 -479 CURVE",
"946 -311 LINE",
"939.333 -312.333 OFFCURVE",
"932.333 -313.333 OFFCURVE",
"925 -314 CURVE SMOOTH",
"911.667 -316 OFFCURVE",
"895.333 -317 OFFCURVE",
"876 -317 CURVE SMOOTH",
"808 -317 OFFCURVE",
"776 -281 OFFCURVE",
"776 -225 CURVE SMOOTH",
"776 -158.333 OFFCURVE",
"823 -80 OFFCURVE",
"947 0 CURVE",
"1145.667 60 OFFCURVE",
"1228 211 OFFCURVE",
"1228 459 CURVE SMOOTH",
"1228 1427 LINE",
"990 1427 LINE",
"990 473 LINE SMOOTH",
"990 359.667 OFFCURVE",
"967 288.5 OFFCURVE",
"919 246.5 CURVE SMOOTH",
"871 204.5 OFFCURVE",
"800 190 OFFCURVE",
"704 190 CURVE SMOOTH",
"597.333 190 OFFCURVE",
"525.5 204.5 OFFCURVE",
"479.5 246.5 CURVE SMOOTH",
"433.5 288.5 OFFCURVE",
"415 359.667 OFFCURVE",
"415 473 CURVE SMOOTH",
"415 1427 LINE",
"177 1427 LINE",
"177 455 LINE"
);
}
);
userData = {
assembly = "PUSHB[ ]	/* 4 values pushed */\0121 13 0 4 \012CALL[ ]	/* CallFunction */\012PUSHB[ ]	/* 4 values pushed */\01215 13 12 4 \012CALL[ ]	/* CallFunction */\012PUSHB[ ]	/* 4 values pushed */\01221 10 39 4 \012CALL[ ]	/* CallFunction */\012NPUSHB[ ]	/* 11 values pushed */\0126 21 22 21 38 21 54 21 70 21 5 \012DELTAP1[ ]	/* DeltaExceptionP1 */\012PUSHB[ ]	/* 3 values pushed */\01244 39 21 \012SRP1[ ]	/* SetRefPoint1 */\012SRP2[ ]	/* SetRefPoint2 */\012IP[ ]	/* InterpolatePts */\012PUSHB[ ]	/* 1 value pushed */\01215 \012SRP0[ ]	/* SetRefPoint0 */\012PUSHB[ ]	/* 1 value pushed */\01251 \012MDRP[11100]	/* MoveDirectRelPt */\012SVTCA[0]	/* SetFreedomAndProjectionVectorToAxis */\012PUSHB[ ]	/* 1 value pushed */\0120 \012RCVT[ ]	/* ReadCVT */\012IF[ ]	/* If */\012PUSHB[ ]	/* 1 value pushed */\0120 \012MDAP[1]	/* MoveDirectAbsPt */\012ELSE[ ]	/* Else */\012PUSHB[ ]	/* 2 values pushed */\0120 23 \012MIAP[0]	/* MoveIndirectAbsPt */\012EIF[ ]	/* EndIf */\012PUSHB[ ]	/* 1 value pushed */\0120 \012RCVT[ ]	/* ReadCVT */\012IF[ ]	/* If */\012PUSHB[ ]	/* 1 value pushed */\01213 \012MDAP[1]	/* MoveDirectAbsPt */\012ELSE[ ]	/* Else */\012PUSHB[ ]	/* 2 values pushed */\01213 23 \012MIAP[0]	/* MoveIndirectAbsPt */\012EIF[ ]	/* EndIf */\012PUSHB[ ]	/* 1 value pushed */\0120 \012RCVT[ ]	/* ReadCVT */\012IF[ ]	/* If */\012PUSHB[ ]	/* 1 value pushed */\01218 \012MDAP[1]	/* MoveDirectAbsPt */\012ELSE[ ]	/* Else */\012PUSHB[ ]	/* 2 values pushed */\01218 17 \012MIAP[0]	/* MoveIndirectAbsPt */\012EIF[ ]	/* EndIf */\012PUSHB[ ]	/* 1 value pushed */\0120 \012RCVT[ ]	/* ReadCVT */\012IF[ ]	/* If */\012PUSHB[ ]	/* 1 value pushed */\01231 \012MDAP[1]	/* MoveDirectAbsPt */\012ELSE[ ]	/* Else */\012PUSHB[ ]	/* 2 values pushed */\01231 19 \012MIAP[0]	/* MoveIndirectAbsPt */\012EIF[ ]	/* EndIf */\012PUSHB[ ]	/* 1 value pushed */\0120 \012RCVT[ ]	/* ReadCVT */\012IF[ ]	/* If */\012PUSHB[ ]	/* 1 value pushed */\01234 \012MDAP[1]	/* MoveDirectAbsPt */\012ELSE[ ]	/* Else */\012PUSHB[ ]	/* 2 values pushed */\01234 19 \012MIAP[0]	/* MoveIndirectAbsPt */\012EIF[ ]	/* EndIf */\012PUSHB[ ]	/* 1 value pushed */\0120 \012RCVT[ ]	/* ReadCVT */\012IF[ ]	/* If */\012PUSHB[ ]	/* 1 value pushed */\01244 \012MDAP[1]	/* MoveDirectAbsPt */\012ELSE[ ]	/* Else */\012PUSHB[ ]	/* 2 values pushed */\01244 17 \012MIAP[0]	/* MoveIndirectAbsPt */\012EIF[ ]	/* EndIf */\012PUSHB[ ]	/* 2 values pushed */\0127 3 \012MIRP[10100]	/* MoveIndirectRelPt */\012NPUSHB[ ]	/* 11 values pushed */\0127 7 23 7 39 7 55 7 71 7 5 \012DELTAP1[ ]	/* DeltaExceptionP1 */\012PUSHB[ ]	/* 1 value pushed */\01231 \012SRP0[ ]	/* SetRefPoint0 */\012PUSHB[ ]	/* 2 values pushed */\01224 4 \012MIRP[10100]	/* MoveIndirectRelPt */\012NPUSHB[ ]	/* 11 values pushed */\0127 24 23 24 39 24 55 24 71 24 5 \012DELTAP1[ ]	/* DeltaExceptionP1 */\012IUP[0]	/* InterpolateUntPts */\012IUP[1]	/* InterpolateUntPts */";
};
width = 1405;
}
);
leftKerningGroup = U;
note = Uogonek;
rightKerningGroup = U;
unicode = 0172;
},
{
color = 4;
glyphname = V;
lastChange = "2022-05-11 04:45:39 +0000";
layers = (
{
anchors = (
{
name = bottom;
position = "{672, 0}";
},
{
name = top;
position = "{672, 1427}";
}
);
layerId = "410E5E1C-5FD0-457E-A79B-7BF13808BDAC";
paths = (
{
closed = 1;
nodes = (
"1343 1427 LINE",
"1069 1427 LINE",
"680 223 LINE",
"664 223 LINE",
"274 1427 LINE",
"0 1427 LINE",
"483 0 LINE",
"860 0 LINE"
);
}
);
userData = {
assembly = "SVTCA[0]	/* SetFreedomAndProjectionVectorToAxis */\012PUSHB[ ]	/* 1 value pushed */\0120 \012RCVT[ ]	/* ReadCVT */\012IF[ ]	/* If */\012PUSHB[ ]	/* 1 value pushed */\0120 \012MDAP[1]	/* MoveDirectAbsPt */\012ELSE[ ]	/* Else */\012PUSHB[ ]	/* 2 values pushed */\0120 17 \012MIAP[0]	/* MoveIndirectAbsPt */\012EIF[ ]	/* EndIf */\012PUSHB[ ]	/* 1 value pushed */\0121 \012MDRP[11100]	/* MoveDirectRelPt */\012PUSHB[ ]	/* 1 value pushed */\0125 \012MDRP[10000]	/* MoveDirectRelPt */\012PUSHB[ ]	/* 1 value pushed */\0126 \012MDRP[10000]	/* MoveDirectRelPt */\012IUP[0]	/* InterpolateUntPts */\012IUP[1]	/* InterpolateUntPts */";
};
width = 1343;
}
);
leftKerningGroup = V;
note = V;
rightKerningGroup = V;
unicode = 0056;
},
{
glyphname = Vturned;
lastChange = "2022-05-11 05:37:28 +0000";
layers = (
{
layerId = "410E5E1C-5FD0-457E-A79B-7BF13808BDAC";
paths = (
{
closed = 1;
nodes = (
"0 0 LINE",
"274 0 LINE",
"663 1204 LINE",
"679 1204 LINE",
"1069 0 LINE",
"1343 0 LINE",
"860 1427 LINE",
"483 1427 LINE"
);
}
);
width = 1343;
}
);
leftKerningGroup = Vturned;
rightKerningGroup = Vturned;
unicode = 0245;
},
{
color = 4;
glyphname = W;
lastChange = "2022-05-11 04:45:39 +0000";
layers = (
{
anchors = (
{
name = bottom;
position = "{971, 0}";
},
{
name = top;
position = "{971, 1427}";
}
);
layerId = "410E5E1C-5FD0-457E-A79B-7BF13808BDAC";
paths = (
{
closed = 1;
nodes = (
"736 0 LINE",
"973 1225 LINE",
"976 1225 LINE",
"1229 0 LINE",
"1604 0 LINE",
"1907 1427 LINE",
"1664 1427 LINE",
"1430 223 LINE",
"1426 223 LINE",
"1176 1427 LINE",
"777 1427 LINE",
"541 223 LINE",
"537 223 LINE",
"289 1427 LINE",
"35 1427 LINE",
"357 0 LINE"
);
}
);
userData = {
assembly = "SVTCA[0]	/* SetFreedomAndProjectionVectorToAxis */\012PUSHB[ ]	/* 1 value pushed */\0120 \012RCVT[ ]	/* ReadCVT */\012IF[ ]	/* If */\012PUSHB[ ]	/* 1 value pushed */\0120 \012MDAP[1]	/* MoveDirectAbsPt */\012ELSE[ ]	/* Else */\012PUSHB[ ]	/* 2 values pushed */\0120 23 \012MIAP[0]	/* MoveIndirectAbsPt */\012EIF[ ]	/* EndIf */\012PUSHB[ ]	/* 1 value pushed */\0120 \012RCVT[ ]	/* ReadCVT */\012IF[ ]	/* If */\012PUSHB[ ]	/* 1 value pushed */\0124 \012MDAP[1]	/* MoveDirectAbsPt */\012ELSE[ ]	/* Else */\012PUSHB[ ]	/* 2 values pushed */\0124 23 \012MIAP[0]	/* MoveIndirectAbsPt */\012EIF[ ]	/* EndIf */\012PUSHB[ ]	/* 1 value pushed */\0120 \012RCVT[ ]	/* ReadCVT */\012IF[ ]	/* If */\012PUSHB[ ]	/* 1 value pushed */\0128 \012MDAP[1]	/* MoveDirectAbsPt */\012ELSE[ ]	/* Else */\012PUSHB[ ]	/* 2 values pushed */\0128 23 \012MIAP[0]	/* MoveIndirectAbsPt */\012EIF[ ]	/* EndIf */\012PUSHB[ ]	/* 1 value pushed */\0120 \012RCVT[ ]	/* ReadCVT */\012IF[ ]	/* If */\012PUSHB[ ]	/* 1 value pushed */\01210 \012MDAP[1]	/* MoveDirectAbsPt */\012ELSE[ ]	/* Else */\012PUSHB[ ]	/* 2 values pushed */\01210 17 \012MIAP[0]	/* MoveIndirectAbsPt */\012EIF[ ]	/* EndIf */\012PUSHB[ ]	/* 1 value pushed */\0120 \012RCVT[ ]	/* ReadCVT */\012IF[ ]	/* If */\012PUSHB[ ]	/* 1 value pushed */\01214 \012MDAP[1]	/* MoveDirectAbsPt */\012ELSE[ ]	/* Else */\012PUSHB[ ]	/* 2 values pushed */\01214 17 \012MIAP[0]	/* MoveIndirectAbsPt */\012EIF[ ]	/* EndIf */\012PUSHB[ ]	/* 2 values pushed */\0122 3 \012MIRP[10100]	/* MoveIndirectRelPt */\012PUSHB[ ]	/* 1 value pushed */\0126 \012MDRP[10000]	/* MoveDirectRelPt */\012PUSHB[ ]	/* 1 value pushed */\0127 \012MDRP[10000]	/* MoveDirectRelPt */\012IUP[0]	/* InterpolateUntPts */\012IUP[1]	/* InterpolateUntPts */";
};
width = 1942;
}
);
leftKerningGroup = W;
note = W;
rightKerningGroup = W;
unicode = 0057;
},
{
color = 4;
glyphname = X;
lastChange = "2022-05-11 04:45:39 +0000";
layers = (
{
anchors = (
{
name = bottom;
position = "{633, 0}";
},
{
name = top;
position = "{633, 1427}";
}
);
layerId = "410E5E1C-5FD0-457E-A79B-7BF13808BDAC";
paths = (
{
closed = 1;
nodes = (
"296 0 LINE",
"625 518 LINE",
"961 0 LINE",
"1250 0 LINE",
"773 739 LINE",
"1211 1427 LINE",
"930 1427 LINE",
"636 951 LINE",
"330 1427 LINE",
"38 1427 LINE",
"486 734 LINE",
"15 0 LINE"
);
}
);
userData = {
assembly = "SVTCA[0]	/* SetFreedomAndProjectionVectorToAxis */\012PUSHB[ ]	/* 1 value pushed */\0120 \012RCVT[ ]	/* ReadCVT */\012IF[ ]	/* If */\012PUSHB[ ]	/* 1 value pushed */\0121 \012MDAP[1]	/* MoveDirectAbsPt */\012ELSE[ ]	/* Else */\012PUSHB[ ]	/* 2 values pushed */\0121 23 \012MIAP[0]	/* MoveIndirectAbsPt */\012EIF[ ]	/* EndIf */\012PUSHB[ ]	/* 1 value pushed */\0120 \012RCVT[ ]	/* ReadCVT */\012IF[ ]	/* If */\012PUSHB[ ]	/* 1 value pushed */\0124 \012MDAP[1]	/* MoveDirectAbsPt */\012ELSE[ ]	/* Else */\012PUSHB[ ]	/* 2 values pushed */\0124 23 \012MIAP[0]	/* MoveIndirectAbsPt */\012EIF[ ]	/* EndIf */\012PUSHB[ ]	/* 1 value pushed */\0120 \012RCVT[ ]	/* ReadCVT */\012IF[ ]	/* If */\012PUSHB[ ]	/* 1 value pushed */\0127 \012MDAP[1]	/* MoveDirectAbsPt */\012ELSE[ ]	/* Else */\012PUSHB[ ]	/* 2 values pushed */\0127 17 \012MIAP[0]	/* MoveIndirectAbsPt */\012EIF[ ]	/* EndIf */\012PUSHB[ ]	/* 1 value pushed */\0120 \012RCVT[ ]	/* ReadCVT */\012IF[ ]	/* If */\012PUSHB[ ]	/* 1 value pushed */\01210 \012MDAP[1]	/* MoveDirectAbsPt */\012ELSE[ ]	/* Else */\012PUSHB[ ]	/* 2 values pushed */\01210 17 \012MIAP[0]	/* MoveIndirectAbsPt */\012EIF[ ]	/* EndIf */\012PUSHB[ ]	/* 3 values pushed */\0123 7 1 \012SRP1[ ]	/* SetRefPoint1 */\012SRP2[ ]	/* SetRefPoint2 */\012IP[ ]	/* InterpolatePts */\012PUSHB[ ]	/* 3 values pushed */\0129 7 1 \012SRP1[ ]	/* SetRefPoint1 */\012SRP2[ ]	/* SetRefPoint2 */\012IP[ ]	/* InterpolatePts */\012IUP[0]	/* InterpolateUntPts */\012IUP[1]	/* InterpolateUntPts */";
};
width = 1265;
}
);
leftKerningGroup = X;
note = X;
rightKerningGroup = X;
unicode = 0058;
},
{
color = 4;
glyphname = Y;
lastChange = "2022-05-11 04:45:39 +0000";
layers = (
{
anchors = (
{
name = bottom;
position = "{611, 0}";
},
{
name = top;
position = "{611, 1427}";
},
{
name = topleft;
position = "{20, 1427}";
}
);
layerId = "410E5E1C-5FD0-457E-A79B-7BF13808BDAC";
paths = (
{
closed = 1;
nodes = (
"729 0 LINE",
"729 551 LINE",
"1221 1427 LINE",
"940 1427 LINE",
"612 805 LINE",
"608 805 LINE",
"281 1427 LINE",
"0 1427 LINE",
"492 551 LINE",
"492 0 LINE"
);
}
);
userData = {
assembly = "PUSHB[ ]	/* 4 values pushed */\0127 13 0 4 \012CALL[ ]	/* CallFunction */\012PUSHB[ ]	/* 3 values pushed */\0124 0 7 \012SRP1[ ]	/* SetRefPoint1 */\012SRP2[ ]	/* SetRefPoint2 */\012IP[ ]	/* InterpolatePts */\012SVTCA[0]	/* SetFreedomAndProjectionVectorToAxis */\012PUSHB[ ]	/* 1 value pushed */\0120 \012RCVT[ ]	/* ReadCVT */\012IF[ ]	/* If */\012PUSHB[ ]	/* 1 value pushed */\0121 \012MDAP[1]	/* MoveDirectAbsPt */\012ELSE[ ]	/* Else */\012PUSHB[ ]	/* 2 values pushed */\0121 23 \012MIAP[0]	/* MoveIndirectAbsPt */\012EIF[ ]	/* EndIf */\012PUSHB[ ]	/* 1 value pushed */\0120 \012RCVT[ ]	/* ReadCVT */\012IF[ ]	/* If */\012PUSHB[ ]	/* 1 value pushed */\0125 \012MDAP[1]	/* MoveDirectAbsPt */\012ELSE[ ]	/* Else */\012PUSHB[ ]	/* 2 values pushed */\0125 23 \012MIAP[0]	/* MoveIndirectAbsPt */\012EIF[ ]	/* EndIf */\012PUSHB[ ]	/* 1 value pushed */\0120 \012RCVT[ ]	/* ReadCVT */\012IF[ ]	/* If */\012PUSHB[ ]	/* 1 value pushed */\0128 \012MDAP[1]	/* MoveDirectAbsPt */\012ELSE[ ]	/* Else */\012PUSHB[ ]	/* 2 values pushed */\0128 17 \012MIAP[0]	/* MoveIndirectAbsPt */\012EIF[ ]	/* EndIf */\012PUSHB[ ]	/* 3 values pushed */\0124 8 1 \012SRP1[ ]	/* SetRefPoint1 */\012SRP2[ ]	/* SetRefPoint2 */\012IP[ ]	/* InterpolatePts */\012IUP[0]	/* InterpolateUntPts */\012IUP[1]	/* InterpolateUntPts */";
};
width = 1221;
}
);
leftKerningGroup = Y;
note = Y;
rightKerningGroup = Y;
unicode = 0059;
},
{
color = 4;
glyphname = Z;
lastChange = "2022-05-11 04:45:39 +0000";
layers = (
{
anchors = (
{
name = bottom;
position = "{638, 0}";
},
{
name = center;
position = "{638, 714}";
},
{
name = top;
position = "{638, 1427}";
}
);
layerId = "410E5E1C-5FD0-457E-A79B-7BF13808BDAC";
paths = (
{
closed = 1;
nodes = (
"1196 0 LINE",
"1196 223 LINE",
"446 223 LINE",
"446 225 LINE",
"1188 1268 LINE",
"1188 1427 LINE",
"131 1427 LINE",
"131 1204 LINE",
"834 1204 LINE",
"834 1202 LINE",
"90 156 LINE",
"90 0 LINE"
);
}
);
userData = {
assembly = "SVTCA[0]	/* SetFreedomAndProjectionVectorToAxis */\012PUSHB[ ]	/* 1 value pushed */\0120 \012RCVT[ ]	/* ReadCVT */\012IF[ ]	/* If */\012PUSHB[ ]	/* 1 value pushed */\0124 \012MDAP[1]	/* MoveDirectAbsPt */\012ELSE[ ]	/* Else */\012PUSHB[ ]	/* 2 values pushed */\0124 23 \012MIAP[0]	/* MoveIndirectAbsPt */\012EIF[ ]	/* EndIf */\012PUSHB[ ]	/* 1 value pushed */\0120 \012RCVT[ ]	/* ReadCVT */\012IF[ ]	/* If */\012PUSHB[ ]	/* 1 value pushed */\01210 \012MDAP[1]	/* MoveDirectAbsPt */\012ELSE[ ]	/* Else */\012PUSHB[ ]	/* 2 values pushed */\01210 17 \012MIAP[0]	/* MoveIndirectAbsPt */\012EIF[ ]	/* EndIf */\012PUSHB[ ]	/* 1 value pushed */\0124 \012SRP0[ ]	/* SetRefPoint0 */\012PUSHB[ ]	/* 2 values pushed */\0122 3 \012MIRP[10100]	/* MoveIndirectRelPt */\012PUSHB[ ]	/* 1 value pushed */\01210 \012SRP0[ ]	/* SetRefPoint0 */\012PUSHB[ ]	/* 2 values pushed */\0128 3 \012MIRP[10100]	/* MoveIndirectRelPt */\012IUP[0]	/* InterpolateUntPts */\012IUP[1]	/* InterpolateUntPts */";
};
width = 1276;
}
);
leftKerningGroup = Z;
note = Z;
rightKerningGroup = Z;
unicode = 005A;
},
{
color = 4;
glyphname = a;
lastChange = "2022-05-11 04:45:39 +0000";
layers = (
{
anchors = (
{
name = bottom;
position = "{597, 0}";
},
{
name = ogonek;
position = "{1074, 10}";
},
{
name = top;
position = "{597, 1055}";
}
);
layerId = "410E5E1C-5FD0-457E-A79B-7BF13808BDAC";
paths = (
{
closed = 1;
nodes = (
"127 179 OFFCURVE",
"150.5 96 OFFCURVE",
"204.5 44 CURVE SMOOTH",
"258.5 -8 OFFCURVE",
"343 -31 OFFCURVE",
"463 -31 CURVE SMOOTH",
"561.667 -31 OFFCURVE",
"644.667 -3.667 OFFCURVE",
"706 23 CURVE SMOOTH",
"741.333 39 OFFCURVE",
"773.667 57.333 OFFCURVE",
"803 78 CURVE",
"821 0 LINE",
"1022 0 LINE",
"1022 639 LINE SMOOTH",
"1022 797.992 OFFCURVE",
"1009.709 892.599 OFFCURVE",
"948 969 CURVE SMOOTH",
"914.667 1010.333 OFFCURVE",
"873.667 1037.667 OFFCURVE",
"819 1055 CURVE SMOOTH",
"764.333 1072.333 OFFCURVE",
"694 1079 OFFCURVE",
"602 1079 CURVE SMOOTH",
"464.667 1079 OFFCURVE",
"365.667 1063.667 OFFCURVE",
"299 1049 CURVE SMOOTH",
"259.667 1040.333 OFFCURVE",
"226.667 1030.667 OFFCURVE",
"200 1020 CURVE",
"200 854 LINE",
"229.333 858 OFFCURVE",
"260.333 861.667 OFFCURVE",
"293 865 CURVE SMOOTH",
"349 871.667 OFFCURVE",
"423 877 OFFCURVE",
"499 877 CURVE SMOOTH",
"619 877 OFFCURVE",
"690.333 864.667 OFFCURVE",
"733 834 CURVE SMOOTH",
"778.323 797.741 OFFCURVE",
"786 759.354 OFFCURVE",
"786 670 CURVE SMOOTH",
"786 572 LINE",
"759.333 581.333 OFFCURVE",
"729.667 589.667 OFFCURVE",
"697 597 CURVE SMOOTH",
"639.667 610.333 OFFCURVE",
"561 623 OFFCURVE",
"465 623 CURVE SMOOTH",
"370.333 623 OFFCURVE",
"286.167 601.667 OFFCURVE",
"225.5 551 CURVE SMOOTH",
"164.833 500.333 OFFCURVE",
"127 419 OFFCURVE",
"127 299 CURVE"
);
},
{
closed = 1;
nodes = (
"370 416.936 OFFCURVE",
"429.059 434 OFFCURVE",
"559 434 CURVE SMOOTH",
"619 434 OFFCURVE",
"674.333 428.667 OFFCURVE",
"717 422 CURVE SMOOTH",
"741.667 418.667 OFFCURVE",
"764.667 415 OFFCURVE",
"786 411 CURVE",
"786 228 LINE",
"762.667 216.667 OFFCURVE",
"737.667 206.667 OFFCURVE",
"711 198 CURVE SMOOTH",
"664.333 183.333 OFFCURVE",
"602 168 OFFCURVE",
"534 168 CURVE SMOOTH",
"425.033 168 OFFCURVE",
"370 185.258 OFFCURVE",
"370 299 CURVE"
);
}
);
userData = {
assembly = "PUSHB[ ]	/* 1 value pushed */\01274 \012MDAP[1]	/* MoveDirectAbsPt */\012PUSHB[ ]	/* 1 value pushed */\01211 \012MDAP[1]	/* MoveDirectAbsPt */\012PUSHB[ ]	/* 1 value pushed */\01274 \012SRP0[ ]	/* SetRefPoint0 */\012PUSHB[ ]	/* 1 value pushed */\0120 \012MDRP[10000]	/* MoveDirectRelPt */\012PUSHB[ ]	/* 1 value pushed */\0120 \012MDAP[1]	/* MoveDirectAbsPt */\012PUSHB[ ]	/* 1 value pushed */\01211 \012SRP0[ ]	/* SetRefPoint0 */\012PUSHB[ ]	/* 2 values pushed */\01240 13 \012MIRP[10100]	/* MoveIndirectRelPt */\012PUSHB[ ]	/* 3 values pushed */\01243 11 40 \012SRP1[ ]	/* SetRefPoint1 */\012SRP2[ ]	/* SetRefPoint2 */\012IP[ ]	/* InterpolatePts */\012PUSHB[ ]	/* 1 value pushed */\0120 \012SRP0[ ]	/* SetRefPoint0 */\012PUSHB[ ]	/* 2 values pushed */\01253 12 \012MIRP[10100]	/* MoveIndirectRelPt */\012NPUSHB[ ]	/* 11 values pushed */\0126 53 22 53 38 53 54 53 70 53 5 \012DELTAP1[ ]	/* DeltaExceptionP1 */\012PUSHB[ ]	/* 1 value pushed */\01211 \012SRP0[ ]	/* SetRefPoint0 */\012PUSHB[ ]	/* 1 value pushed */\01263 \012MDRP[10000]	/* MoveDirectRelPt */\012PUSHB[ ]	/* 1 value pushed */\01240 \012SRP0[ ]	/* SetRefPoint0 */\012PUSHB[ ]	/* 1 value pushed */\01275 \012MDRP[11100]	/* MoveDirectRelPt */\012SVTCA[0]	/* SetFreedomAndProjectionVectorToAxis */\012PUSHB[ ]	/* 1 value pushed */\0120 \012RCVT[ ]	/* ReadCVT */\012IF[ ]	/* If */\012PUSHB[ ]	/* 1 value pushed */\01230 \012MDAP[1]	/* MoveDirectAbsPt */\012ELSE[ ]	/* Else */\012PUSHB[ ]	/* 2 values pushed */\01230 21 \012MIAP[0]	/* MoveIndirectAbsPt */\012EIF[ ]	/* EndIf */\012PUSHB[ ]	/* 1 value pushed */\0120 \012RCVT[ ]	/* ReadCVT */\012IF[ ]	/* If */\012PUSHB[ ]	/* 1 value pushed */\01241 \012MDAP[1]	/* MoveDirectAbsPt */\012ELSE[ ]	/* Else */\012PUSHB[ ]	/* 2 values pushed */\01241 17 \012MIAP[0]	/* MoveIndirectAbsPt */\012EIF[ ]	/* EndIf */\012PUSHB[ ]	/* 1 value pushed */\0120 \012RCVT[ ]	/* ReadCVT */\012IF[ ]	/* If */\012PUSHB[ ]	/* 1 value pushed */\01248 \012MDAP[1]	/* MoveDirectAbsPt */\012ELSE[ ]	/* Else */\012PUSHB[ ]	/* 2 values pushed */\01248 17 \012MIAP[0]	/* MoveIndirectAbsPt */\012EIF[ ]	/* EndIf */\012PUSHB[ ]	/* 4 values pushed */\0125 4 69 4 \012CALL[ ]	/* CallFunction */\012PUSHB[ ]	/* 3 values pushed */\01210 69 5 \012SRP1[ ]	/* SetRefPoint1 */\012SRP2[ ]	/* SetRefPoint2 */\012IP[ ]	/* InterpolatePts */\012PUSHB[ ]	/* 1 value pushed */\01230 \012SRP0[ ]	/* SetRefPoint0 */\012PUSHB[ ]	/* 2 values pushed */\01219 5 \012MIRP[10100]	/* MoveIndirectRelPt */\012NPUSHB[ ]	/* 11 values pushed */\0128 19 24 19 40 19 56 19 72 19 5 \012DELTAP1[ ]	/* DeltaExceptionP1 */\012PUSHB[ ]	/* 1 value pushed */\01222 \012MDRP[10000]	/* MoveDirectRelPt */\012PUSHB[ ]	/* 1 value pushed */\01222 \012MDAP[1]	/* MoveDirectAbsPt */\012PUSHB[ ]	/* 1 value pushed */\01248 \012SRP0[ ]	/* SetRefPoint0 */\012PUSHB[ ]	/* 2 values pushed */\01258 1 \012MIRP[10100]	/* MoveIndirectRelPt */\012NPUSHB[ ]	/* 11 values pushed */\0127 58 23 58 39 58 55 58 71 58 5 \012DELTAP1[ ]	/* DeltaExceptionP1 */\012PUSHB[ ]	/* 3 values pushed */\01243 48 58 \012SRP1[ ]	/* SetRefPoint1 */\012SRP2[ ]	/* SetRefPoint2 */\012IP[ ]	/* InterpolatePts */\012PUSHB[ ]	/* 1 value pushed */\01269 \012SRP0[ ]	/* SetRefPoint0 */\012PUSHB[ ]	/* 1 value pushed */\01266 \012MDRP[10000]	/* MoveDirectRelPt */\012PUSHB[ ]	/* 1 value pushed */\01266 \012MDAP[1]	/* MoveDirectAbsPt */\012IUP[0]	/* InterpolateUntPts */\012IUP[1]	/* InterpolateUntPts */";
};
width = 1193;
}
);
leftKerningGroup = a;
note = a;
rightKerningGroup = n;
unicode = 0061;
},
{
glyphname = aogonek;
lastChange = "2022-05-11 04:48:44 +0000";
layers = (
{
layerId = "410E5E1C-5FD0-457E-A79B-7BF13808BDAC";
paths = (
{
closed = 1;
nodes = (
"127 179 OFFCURVE",
"150.5 96 OFFCURVE",
"204.5 44 CURVE SMOOTH",
"258.5 -8 OFFCURVE",
"343 -31 OFFCURVE",
"463 -31 CURVE SMOOTH",
"561.667 -31 OFFCURVE",
"644.667 -3.667 OFFCURVE",
"706 23 CURVE SMOOTH",
"741.333 39 OFFCURVE",
"773.667 57.333 OFFCURVE",
"803 78 CURVE",
"818 11 LINE",
"727.795 -53.016 OFFCURVE",
"628 -156.557 OFFCURVE",
"628 -289 CURVE SMOOTH",
"628 -425.07 OFFCURVE",
"725.247 -500 OFFCURVE",
"861 -500 CURVE SMOOTH",
"907.667 -500 OFFCURVE",
"948 -495.333 OFFCURVE",
"976 -490 CURVE SMOOTH",
"992.667 -487.333 OFFCURVE",
"1007.333 -483.667 OFFCURVE",
"1020 -479 CURVE",
"1020 -311 LINE",
"1013.333 -312.333 OFFCURVE",
"1006.333 -313.333 OFFCURVE",
"999 -314 CURVE SMOOTH",
"985.667 -316 OFFCURVE",
"969.333 -317 OFFCURVE",
"950 -317 CURVE SMOOTH",
"882 -317 OFFCURVE",
"850 -281 OFFCURVE",
"850 -225 CURVE SMOOTH",
"850 -157 OFFCURVE",
"896.667 -80 OFFCURVE",
"1022 0 CURVE",
"1022 639 LINE SMOOTH",
"1022 797.992 OFFCURVE",
"1009.709 892.599 OFFCURVE",
"948 969 CURVE SMOOTH",
"914.667 1010.333 OFFCURVE",
"873.667 1037.667 OFFCURVE",
"819 1055 CURVE SMOOTH",
"764.333 1072.333 OFFCURVE",
"694 1079 OFFCURVE",
"602 1079 CURVE SMOOTH",
"464.667 1079 OFFCURVE",
"365.667 1063.667 OFFCURVE",
"299 1049 CURVE SMOOTH",
"259.667 1040.333 OFFCURVE",
"226.667 1030.667 OFFCURVE",
"200 1020 CURVE",
"200 854 LINE",
"229.333 858 OFFCURVE",
"260.333 861.667 OFFCURVE",
"293 865 CURVE SMOOTH",
"349 871.667 OFFCURVE",
"423 877 OFFCURVE",
"499 877 CURVE SMOOTH",
"619 877 OFFCURVE",
"690.333 864.667 OFFCURVE",
"733 834 CURVE SMOOTH",
"778.323 797.741 OFFCURVE",
"786 759.354 OFFCURVE",
"786 670 CURVE SMOOTH",
"786 572 LINE",
"759.333 581.333 OFFCURVE",
"729.667 589.667 OFFCURVE",
"697 597 CURVE SMOOTH",
"639.667 610.333 OFFCURVE",
"561 623 OFFCURVE",
"465 623 CURVE SMOOTH",
"370.333 623 OFFCURVE",
"286.167 601.667 OFFCURVE",
"225.5 551 CURVE SMOOTH",
"164.833 500.333 OFFCURVE",
"127 419 OFFCURVE",
"127 299 CURVE"
);
},
{
closed = 1;
nodes = (
"370 416.936 OFFCURVE",
"429.059 434 OFFCURVE",
"559 434 CURVE SMOOTH",
"619 434 OFFCURVE",
"674.333 428.667 OFFCURVE",
"717 422 CURVE SMOOTH",
"741.667 418.667 OFFCURVE",
"764.667 415 OFFCURVE",
"786 411 CURVE",
"786 228 LINE",
"762.667 216.667 OFFCURVE",
"737.667 206.667 OFFCURVE",
"711 198 CURVE SMOOTH",
"664.333 183.333 OFFCURVE",
"602 168 OFFCURVE",
"534 168 CURVE SMOOTH",
"425.033 168 OFFCURVE",
"370 185.258 OFFCURVE",
"370 299 CURVE"
);
}
);
userData = {
assembly = "PUSHB[ ]	/* 4 values pushed */\01244 10 62 4 \012CALL[ ]	/* CallFunction */\012PUSHB[ ]	/* 4 values pushed */\01278 12 0 4 \012CALL[ ]	/* CallFunction */\012NPUSHB[ ]	/* 11 values pushed */\0129 62 25 62 41 62 57 62 73 62 5 \012DELTAP1[ ]	/* DeltaExceptionP1 */\012PUSHB[ ]	/* 3 values pushed */\01210 62 44 \012SRP1[ ]	/* SetRefPoint1 */\012SRP2[ ]	/* SetRefPoint2 */\012IP[ ]	/* InterpolatePts */\012PUSHB[ ]	/* 3 values pushed */\01211 62 44 \012SRP1[ ]	/* SetRefPoint1 */\012SRP2[ ]	/* SetRefPoint2 */\012IP[ ]	/* InterpolatePts */\012PUSHB[ ]	/* 1 value pushed */\01211 \012MDAP[1]	/* MoveDirectAbsPt */\012PUSHB[ ]	/* 2 values pushed */\01240 13 \012MIRP[10100]	/* MoveIndirectRelPt */\012PUSHB[ ]	/* 1 value pushed */\01251 \012MDRP[10000]	/* MoveDirectRelPt */\012PUSHB[ ]	/* 1 value pushed */\01251 \012MDAP[1]	/* MoveDirectAbsPt */\012PUSHB[ ]	/* 3 values pushed */\01268 62 44 \012SRP1[ ]	/* SetRefPoint1 */\012SRP2[ ]	/* SetRefPoint2 */\012IP[ ]	/* InterpolatePts */\012NPUSHB[ ]	/* 11 values pushed */\0126 78 22 78 38 78 54 78 70 78 5 \012DELTAP1[ ]	/* DeltaExceptionP1 */\012PUSHB[ ]	/* 1 value pushed */\01211 \012SRP0[ ]	/* SetRefPoint0 */\012PUSHB[ ]	/* 1 value pushed */\01288 \012MDRP[10000]	/* MoveDirectRelPt */\012PUSHB[ ]	/* 1 value pushed */\01240 \012SRP0[ ]	/* SetRefPoint0 */\012PUSHB[ ]	/* 1 value pushed */\012100 \012MDRP[11100]	/* MoveDirectRelPt */\012SVTCA[0]	/* SetFreedomAndProjectionVectorToAxis */\012PUSHB[ ]	/* 1 value pushed */\0120 \012RCVT[ ]	/* ReadCVT */\012IF[ ]	/* If */\012PUSHB[ ]	/* 1 value pushed */\01230 \012MDAP[1]	/* MoveDirectAbsPt */\012ELSE[ ]	/* Else */\012PUSHB[ ]	/* 2 values pushed */\01230 21 \012MIAP[0]	/* MoveIndirectAbsPt */\012EIF[ ]	/* EndIf */\012PUSHB[ ]	/* 1 value pushed */\0120 \012RCVT[ ]	/* ReadCVT */\012IF[ ]	/* If */\012PUSHB[ ]	/* 1 value pushed */\01241 \012MDAP[1]	/* MoveDirectAbsPt */\012ELSE[ ]	/* Else */\012PUSHB[ ]	/* 2 values pushed */\01241 17 \012MIAP[0]	/* MoveIndirectAbsPt */\012EIF[ ]	/* EndIf */\012PUSHB[ ]	/* 1 value pushed */\0120 \012RCVT[ ]	/* ReadCVT */\012IF[ ]	/* If */\012PUSHB[ ]	/* 1 value pushed */\01267 \012MDAP[1]	/* MoveDirectAbsPt */\012ELSE[ ]	/* Else */\012PUSHB[ ]	/* 2 values pushed */\01267 17 \012MIAP[0]	/* MoveIndirectAbsPt */\012EIF[ ]	/* EndIf */\012PUSHB[ ]	/* 1 value pushed */\0120 \012RCVT[ ]	/* ReadCVT */\012IF[ ]	/* If */\012PUSHB[ ]	/* 1 value pushed */\01254 \012MDAP[1]	/* MoveDirectAbsPt */\012ELSE[ ]	/* Else */\012PUSHB[ ]	/* 2 values pushed */\01254 19 \012MIAP[0]	/* MoveIndirectAbsPt */\012EIF[ ]	/* EndIf */\012PUSHB[ ]	/* 1 value pushed */\0120 \012RCVT[ ]	/* ReadCVT */\012IF[ ]	/* If */\012PUSHB[ ]	/* 1 value pushed */\01257 \012MDAP[1]	/* MoveDirectAbsPt */\012ELSE[ ]	/* Else */\012PUSHB[ ]	/* 2 values pushed */\01257 19 \012MIAP[0]	/* MoveIndirectAbsPt */\012EIF[ ]	/* EndIf */\012PUSHB[ ]	/* 1 value pushed */\0120 \012RCVT[ ]	/* ReadCVT */\012IF[ ]	/* If */\012PUSHB[ ]	/* 1 value pushed */\01273 \012MDAP[1]	/* MoveDirectAbsPt */\012ELSE[ ]	/* Else */\012PUSHB[ ]	/* 2 values pushed */\01273 17 \012MIAP[0]	/* MoveIndirectAbsPt */\012EIF[ ]	/* EndIf */\012PUSHB[ ]	/* 4 values pushed */\0125 4 94 4 \012CALL[ ]	/* CallFunction */\012PUSHB[ ]	/* 3 values pushed */\01210 94 5 \012SRP1[ ]	/* SetRefPoint1 */\012SRP2[ ]	/* SetRefPoint2 */\012IP[ ]	/* InterpolatePts */\012PUSHB[ ]	/* 1 value pushed */\01230 \012SRP0[ ]	/* SetRefPoint0 */\012PUSHB[ ]	/* 2 values pushed */\01219 5 \012MIRP[10100]	/* MoveIndirectRelPt */\012NPUSHB[ ]	/* 11 values pushed */\0128 19 24 19 40 19 56 19 72 19 5 \012DELTAP1[ ]	/* DeltaExceptionP1 */\012PUSHB[ ]	/* 1 value pushed */\01222 \012MDRP[10000]	/* MoveDirectRelPt */\012PUSHB[ ]	/* 1 value pushed */\01222 \012MDAP[1]	/* MoveDirectAbsPt */\012PUSHB[ ]	/* 1 value pushed */\01254 \012SRP0[ ]	/* SetRefPoint0 */\012PUSHB[ ]	/* 2 values pushed */\01247 4 \012MIRP[10100]	/* MoveIndirectRelPt */\012NPUSHB[ ]	/* 11 values pushed */\0127 47 23 47 39 47 55 47 71 47 5 \012DELTAP1[ ]	/* DeltaExceptionP1 */\012PUSHB[ ]	/* 1 value pushed */\01273 \012SRP0[ ]	/* SetRefPoint0 */\012PUSHB[ ]	/* 2 values pushed */\01283 1 \012MIRP[10100]	/* MoveIndirectRelPt */\012NPUSHB[ ]	/* 11 values pushed */\0127 83 23 83 39 83 55 83 71 83 5 \012DELTAP1[ ]	/* DeltaExceptionP1 */\012PUSHB[ ]	/* 3 values pushed */\01268 73 83 \012SRP1[ ]	/* SetRefPoint1 */\012SRP2[ ]	/* SetRefPoint2 */\012IP[ ]	/* InterpolatePts */\012PUSHB[ ]	/* 1 value pushed */\01294 \012SRP0[ ]	/* SetRefPoint0 */\012PUSHB[ ]	/* 1 value pushed */\01291 \012MDRP[10000]	/* MoveDirectRelPt */\012PUSHB[ ]	/* 1 value pushed */\01291 \012MDAP[1]	/* MoveDirectAbsPt */\012IUP[0]	/* InterpolateUntPts */\012IUP[1]	/* InterpolateUntPts */";
};
width = 1193;
}
);
leftKerningGroup = a;
leftMetricsKey = a;
note = aogonek;
rightKerningGroup = n;
rightMetricsKey = a;
unicode = 0105;
},
{
color = 4;
glyphname = ae;
lastChange = "2022-05-11 05:50:09 +0000";
layers = (
{
anchors = (
{
name = bottom;
position = "{891, 0}";
},
{
name = top;
position = "{930, 1055}";
}
);
layerId = "410E5E1C-5FD0-457E-A79B-7BF13808BDAC";
paths = (
{
closed = 1;
nodes = (
"127 199.667 OFFCURVE",
"150 116.333 OFFCURVE",
"210 59 CURVE SMOOTH",
"270 1.667 OFFCURVE",
"366 -31 OFFCURVE",
"510 -31 CURVE SMOOTH",
"671.333 -31 OFFCURVE",
"794.333 31.667 OFFCURVE",
"877 125 CURVE",
"930.333 62.333 OFFCURVE",
"983 23.833 OFFCURVE",
"1047 0.5 CURVE SMOOTH",
"1111 -22.833 OFFCURVE",
"1187.333 -31 OFFCURVE",
"1286 -31 CURVE SMOOTH",
"1388.667 -31 OFFCURVE",
"1482 -14.333 OFFCURVE",
"1550 3 CURVE SMOOTH",
"1590 13 OFFCURVE",
"1627 24.333 OFFCURVE",
"1661 37 CURVE",
"1661 207 LINE",
"1631 201.667 OFFCURVE",
"1598.333 197.333 OFFCURVE",
"1563 194 CURVE SMOOTH",
"1501.667 187.333 OFFCURVE",
"1419 182 OFFCURVE",
"1327 182 CURVE SMOOTH",
"1207 182 OFFCURVE",
"1135.667 201.333 OFFCURVE",
"1093 244 CURVE SMOOTH",
"1050.333 286.667 OFFCURVE",
"1036.667 352 OFFCURVE",
"1034 444 CURVE",
"1695 440 LINE",
"1703 512 OFFCURVE",
"1708 577.333 OFFCURVE",
"1708 640 CURVE SMOOTH",
"1708 773.333 OFFCURVE",
"1685.667 884.5 OFFCURVE",
"1623 962.5 CURVE SMOOTH",
"1560.333 1040.5 OFFCURVE",
"1457.333 1085 OFFCURVE",
"1296 1085 CURVE SMOOTH",
"1109.333 1085 OFFCURVE",
"989.667 1030 OFFCURVE",
"931 938 CURVE",
"875 1034 OFFCURVE",
"753.667 1085 OFFCURVE",
"579 1085 CURVE SMOOTH",
"483 1085 OFFCURVE",
"392 1068 OFFCURVE",
"324 1052 CURVE SMOOTH",
"284 1042.667 OFFCURVE",
"246.333 1032 OFFCURVE",
"211 1020 CURVE",
"211 854 LINE",
"237 858 OFFCURVE",
"265.667 861.667 OFFCURVE",
"297 865 CURVE SMOOTH",
"350.333 871.667 OFFCURVE",
"420.333 877 OFFCURVE",
"499 877 CURVE SMOOTH",
"619 877 OFFCURVE",
"700.333 864.667 OFFCURVE",
"743 834 CURVE SMOOTH",
"788.408 797.674 OFFCURVE",
"796 759.714 OFFCURVE",
"796 670 CURVE SMOOTH",
"796 635 LINE",
"524 635 LINE SMOOTH",
"260 635 OFFCURVE",
"127 523.667 OFFCURVE",
"127 301 CURVE"
);
},
{
closed = 1;
nodes = (
"1034 707 OFFCURVE",
"1041.667 768.833 OFFCURVE",
"1075 813.5 CURVE SMOOTH",
"1108.333 858.167 OFFCURVE",
"1167.667 885 OFFCURVE",
"1273 885 CURVE SMOOTH",
"1450.84 885 OFFCURVE",
"1489 822.234 OFFCURVE",
"1489 667 CURVE SMOOTH",
"1489 635 LINE",
"1034 635 LINE"
);
},
{
closed = 1;
nodes = (
"360 410.111 OFFCURVE",
"427.413 444 OFFCURVE",
"567 444 CURVE SMOOTH",
"794 444 LINE",
"796 393 LINE SMOOTH",
"798 346 OFFCURVE",
"803.667 305.667 OFFCURVE",
"813 267 CURVE",
"747.667 211 OFFCURVE",
"650 168 OFFCURVE",
"530 168 CURVE SMOOTH",
"408.972 168 OFFCURVE",
"360 188.867 OFFCURVE",
"360 311 CURVE"
);
}
);
userData = {
assembly = "PUSHB[ ]	/* 4 values pushed */\01280 13 0 4 \012CALL[ ]	/* CallFunction */\012PUSHB[ ]	/* 4 values pushed */\01279 13 4 4 \012CALL[ ]	/* CallFunction */\012PUSHB[ ]	/* 3 values pushed */\01235 38 3 \012CALL[ ]	/* CallFunction */\012PUSHB[ ]	/* 3 values pushed */\01227 4 79 \012SRP1[ ]	/* SetRefPoint1 */\012SRP2[ ]	/* SetRefPoint2 */\012IP[ ]	/* InterpolatePts */\012PUSHB[ ]	/* 1 value pushed */\01279 \012SRP0[ ]	/* SetRefPoint0 */\012PUSHB[ ]	/* 1 value pushed */\01239 \012MDRP[10000]	/* MoveDirectRelPt */\012NPUSHB[ ]	/* 11 values pushed */\0126 80 22 80 38 80 54 80 70 80 5 \012DELTAP1[ ]	/* DeltaExceptionP1 */\012PUSHB[ ]	/* 1 value pushed */\0124 \012SRP0[ ]	/* SetRefPoint0 */\012PUSHB[ ]	/* 1 value pushed */\01291 \012MDRP[10000]	/* MoveDirectRelPt */\012PUSHB[ ]	/* 1 value pushed */\01235 \012SRP0[ ]	/* SetRefPoint0 */\012PUSHB[ ]	/* 1 value pushed */\01299 \012MDRP[11100]	/* MoveDirectRelPt */\012SVTCA[0]	/* SetFreedomAndProjectionVectorToAxis */\012PUSHB[ ]	/* 1 value pushed */\0120 \012RCVT[ ]	/* ReadCVT */\012IF[ ]	/* If */\012PUSHB[ ]	/* 1 value pushed */\01230 \012MDAP[1]	/* MoveDirectAbsPt */\012ELSE[ ]	/* Else */\012PUSHB[ ]	/* 2 values pushed */\01230 21 \012MIAP[0]	/* MoveIndirectAbsPt */\012EIF[ ]	/* EndIf */\012PUSHB[ ]	/* 1 value pushed */\0120 \012RCVT[ ]	/* ReadCVT */\012IF[ ]	/* If */\012PUSHB[ ]	/* 1 value pushed */\01224 \012MDAP[1]	/* MoveDirectAbsPt */\012ELSE[ ]	/* Else */\012PUSHB[ ]	/* 2 values pushed */\01224 21 \012MIAP[0]	/* MoveIndirectAbsPt */\012EIF[ ]	/* EndIf */\012PUSHB[ ]	/* 1 value pushed */\0120 \012RCVT[ ]	/* ReadCVT */\012IF[ ]	/* If */\012PUSHB[ ]	/* 1 value pushed */\01255 \012MDAP[1]	/* MoveDirectAbsPt */\012ELSE[ ]	/* Else */\012PUSHB[ ]	/* 2 values pushed */\01255 17 \012MIAP[0]	/* MoveIndirectAbsPt */\012EIF[ ]	/* EndIf */\012PUSHB[ ]	/* 1 value pushed */\0120 \012RCVT[ ]	/* ReadCVT */\012IF[ ]	/* If */\012PUSHB[ ]	/* 1 value pushed */\01263 \012MDAP[1]	/* MoveDirectAbsPt */\012ELSE[ ]	/* Else */\012PUSHB[ ]	/* 2 values pushed */\01263 17 \012MIAP[0]	/* MoveIndirectAbsPt */\012EIF[ ]	/* EndIf */\012PUSHB[ ]	/* 4 values pushed */\01268 8 38 4 \012CALL[ ]	/* CallFunction */\012PUSHB[ ]	/* 1 value pushed */\01268 \012SRP0[ ]	/* SetRefPoint0 */\012PUSHB[ ]	/* 1 value pushed */\0123 \012MDRP[10000]	/* MoveDirectRelPt */\012PUSHB[ ]	/* 1 value pushed */\01224 \012SRP0[ ]	/* SetRefPoint0 */\012PUSHB[ ]	/* 2 values pushed */\01213 1 \012MIRP[10100]	/* MoveIndirectRelPt */\012NPUSHB[ ]	/* 11 values pushed */\0128 13 24 13 40 13 56 13 72 13 5 \012DELTAP1[ ]	/* DeltaExceptionP1 */\012PUSHB[ ]	/* 1 value pushed */\01224 \012SRP0[ ]	/* SetRefPoint0 */\012PUSHB[ ]	/* 2 values pushed */\01216 5 \012MIRP[10100]	/* MoveIndirectRelPt */\012NPUSHB[ ]	/* 11 values pushed */\0128 16 24 16 40 16 56 16 72 16 5 \012DELTAP1[ ]	/* DeltaExceptionP1 */\012PUSHB[ ]	/* 3 values pushed */\01227 24 13 \012SRP1[ ]	/* SetRefPoint1 */\012SRP2[ ]	/* SetRefPoint2 */\012IP[ ]	/* InterpolatePts */\012PUSHB[ ]	/* 1 value pushed */\01255 \012SRP0[ ]	/* SetRefPoint0 */\012PUSHB[ ]	/* 2 values pushed */\01244 1 \012MIRP[10100]	/* MoveIndirectRelPt */\012NPUSHB[ ]	/* 11 values pushed */\0127 44 23 44 39 44 55 44 71 44 5 \012DELTAP1[ ]	/* DeltaExceptionP1 */\012PUSHB[ ]	/* 1 value pushed */\01255 \012SRP0[ ]	/* SetRefPoint0 */\012PUSHB[ ]	/* 2 values pushed */\01247 3 \012MIRP[10100]	/* MoveIndirectRelPt */\012NPUSHB[ ]	/* 11 values pushed */\0127 47 23 47 39 47 55 47 71 47 5 \012DELTAP1[ ]	/* DeltaExceptionP1 */\012PUSHB[ ]	/* 1 value pushed */\01213 \012SRP0[ ]	/* SetRefPoint0 */\012PUSHB[ ]	/* 1 value pushed */\01274 \012MDRP[10000]	/* MoveDirectRelPt */\012PUSHB[ ]	/* 1 value pushed */\01244 \012SRP0[ ]	/* SetRefPoint0 */\012PUSHB[ ]	/* 1 value pushed */\01285 \012MDRP[10000]	/* MoveDirectRelPt */\012PUSHB[ ]	/* 1 value pushed */\01238 \012SRP0[ ]	/* SetRefPoint0 */\012PUSHB[ ]	/* 1 value pushed */\01292 \012MDRP[10000]	/* MoveDirectRelPt */\012PUSHB[ ]	/* 1 value pushed */\01292 \012MDAP[1]	/* MoveDirectAbsPt */\012IUP[0]	/* InterpolateUntPts */\012IUP[1]	/* InterpolateUntPts */";
};
width = 1781;
}
);
leftKerningGroup = a;
leftMetricsKey = a;
note = ae;
rightKerningGroup = e;
rightMetricsKey = e;
unicode = 00E6;
},
{
color = 4;
glyphname = b;
lastChange = "2022-05-11 04:49:26 +0000";
layers = (
{
anchors = (
{
name = bottom;
position = "{614, 0}";
},
{
name = top;
position = "{745, 1427}";
}
);
layerId = "410E5E1C-5FD0-457E-A79B-7BF13808BDAC";
paths = (
{
closed = 1;
nodes = (
"371 0 LINE",
"385 84 LINE",
"416.333 62.667 OFFCURVE",
"451 43.333 OFFCURVE",
"489 26 CURVE SMOOTH",
"554.333 -3.333 OFFCURVE",
"643.667 -31 OFFCURVE",
"745 -31 CURVE SMOOTH",
"862.333 -31 OFFCURVE",
"956.333 5.667 OFFCURVE",
"1019 95 CURVE SMOOTH",
"1081.667 184.333 OFFCURVE",
"1116 324 OFFCURVE",
"1116 532 CURVE SMOOTH",
"1116 705.333 OFFCURVE",
"1096.667 843.167 OFFCURVE",
"1042 938.5 CURVE SMOOTH",
"987.333 1033.833 OFFCURVE",
"897.333 1085 OFFCURVE",
"756 1085 CURVE SMOOTH",
"656 1085 OFFCURVE",
"569 1065.667 OFFCURVE",
"505 1047 CURVE SMOOTH",
"468.333 1035.667 OFFCURVE",
"434.333 1023.333 OFFCURVE",
"403 1010 CURVE",
"403 1554 LINE",
"166 1554 LINE",
"166 0 LINE"
);
},
{
closed = 1;
nodes = (
"427.667 842.667 OFFCURVE",
"453.333 849 OFFCURVE",
"480 855 CURVE SMOOTH",
"526.667 864.333 OFFCURVE",
"585.667 874 OFFCURVE",
"647 874 CURVE SMOOTH",
"744.333 874 OFFCURVE",
"799.5 856.333 OFFCURVE",
"829.5 803 CURVE SMOOTH",
"859.5 749.667 OFFCURVE",
"866 661.333 OFFCURVE",
"866 520 CURVE SMOOTH",
"866 393.333 OFFCURVE",
"856.167 309.167 OFFCURVE",
"827.5 256.5 CURVE SMOOTH",
"798.833 203.833 OFFCURVE",
"750 182 OFFCURVE",
"670 182 CURVE SMOOTH",
"588.667 182 OFFCURVE",
"522.667 195.333 OFFCURVE",
"476 210 CURVE SMOOTH",
"448.667 218 OFFCURVE",
"424.333 227.333 OFFCURVE",
"403 238 CURVE",
"403 836 LINE"
);
}
);
userData = {
assembly = "PUSHB[ ]	/* 1 value pushed */\01246 \012MDAP[1]	/* MoveDirectAbsPt */\012PUSHB[ ]	/* 1 value pushed */\01235 \012MDAP[1]	/* MoveDirectAbsPt */\012PUSHB[ ]	/* 1 value pushed */\01246 \012SRP0[ ]	/* SetRefPoint0 */\012PUSHB[ ]	/* 1 value pushed */\0120 \012MDRP[10000]	/* MoveDirectRelPt */\012PUSHB[ ]	/* 1 value pushed */\0120 \012MDAP[1]	/* MoveDirectAbsPt */\012PUSHB[ ]	/* 2 values pushed */\0121 13 \012MIRP[10100]	/* MoveIndirectRelPt */\012NPUSHB[ ]	/* 11 values pushed */\0129 35 25 35 41 35 57 35 73 35 5 \012DELTAP1[ ]	/* DeltaExceptionP1 */\012PUSHB[ ]	/* 1 value pushed */\01235 \012SRP0[ ]	/* SetRefPoint0 */\012PUSHB[ ]	/* 2 values pushed */\01212 11 \012MIRP[10100]	/* MoveIndirectRelPt */\012PUSHB[ ]	/* 3 values pushed */\01222 0 1 \012SRP1[ ]	/* SetRefPoint1 */\012SRP2[ ]	/* SetRefPoint2 */\012IP[ ]	/* InterpolatePts */\012PUSHB[ ]	/* 1 value pushed */\0121 \012SRP0[ ]	/* SetRefPoint0 */\012PUSHB[ ]	/* 1 value pushed */\01225 \012MDRP[10000]	/* MoveDirectRelPt */\012PUSHB[ ]	/* 1 value pushed */\01212 \012SRP0[ ]	/* SetRefPoint0 */\012PUSHB[ ]	/* 1 value pushed */\01247 \012MDRP[11100]	/* MoveDirectRelPt */\012SVTCA[0]	/* SetFreedomAndProjectionVectorToAxis */\012PUSHB[ ]	/* 1 value pushed */\0120 \012RCVT[ ]	/* ReadCVT */\012IF[ ]	/* If */\012PUSHB[ ]	/* 1 value pushed */\0127 \012MDAP[1]	/* MoveDirectAbsPt */\012ELSE[ ]	/* Else */\012PUSHB[ ]	/* 2 values pushed */\0127 21 \012MIAP[0]	/* MoveIndirectAbsPt */\012EIF[ ]	/* EndIf */\012PUSHB[ ]	/* 1 value pushed */\0120 \012RCVT[ ]	/* ReadCVT */\012IF[ ]	/* If */\012PUSHB[ ]	/* 1 value pushed */\01223 \012MDAP[1]	/* MoveDirectAbsPt */\012ELSE[ ]	/* Else */\012PUSHB[ ]	/* 2 values pushed */\01223 17 \012MIAP[0]	/* MoveIndirectAbsPt */\012EIF[ ]	/* EndIf */\012PUSHB[ ]	/* 1 value pushed */\0120 \012RCVT[ ]	/* ReadCVT */\012IF[ ]	/* If */\012PUSHB[ ]	/* 1 value pushed */\01217 \012MDAP[1]	/* MoveDirectAbsPt */\012ELSE[ ]	/* Else */\012PUSHB[ ]	/* 2 values pushed */\01217 17 \012MIAP[0]	/* MoveIndirectAbsPt */\012EIF[ ]	/* EndIf */\012PUSHB[ ]	/* 1 value pushed */\0127 \012SRP0[ ]	/* SetRefPoint0 */\012PUSHB[ ]	/* 2 values pushed */\01240 5 \012MIRP[10100]	/* MoveIndirectRelPt */\012NPUSHB[ ]	/* 11 values pushed */\0128 40 24 40 40 40 56 40 72 40 5 \012DELTAP1[ ]	/* DeltaExceptionP1 */\012PUSHB[ ]	/* 3 values pushed */\0122 7 40 \012SRP1[ ]	/* SetRefPoint1 */\012SRP2[ ]	/* SetRefPoint2 */\012IP[ ]	/* InterpolatePts */\012PUSHB[ ]	/* 1 value pushed */\01217 \012SRP0[ ]	/* SetRefPoint0 */\012PUSHB[ ]	/* 2 values pushed */\01230 3 \012MIRP[10100]	/* MoveIndirectRelPt */\012NPUSHB[ ]	/* 11 values pushed */\0127 30 23 30 39 30 55 30 71 30 5 \012DELTAP1[ ]	/* DeltaExceptionP1 */\012PUSHB[ ]	/* 3 values pushed */\01222 17 30 \012SRP1[ ]	/* SetRefPoint1 */\012SRP2[ ]	/* SetRefPoint2 */\012IP[ ]	/* InterpolatePts */\012IUP[0]	/* InterpolateUntPts */\012IUP[1]	/* InterpolateUntPts */";
};
width = 1220;
}
);
leftKerningGroup = h;
leftMetricsKey = h;
note = b;
rightKerningGroup = o;
rightMetricsKey = "=|d";
unicode = 0062;
},
{
color = 4;
glyphname = c;
lastChange = "2022-05-11 04:45:39 +0000";
layers = (
{
anchors = (
{
name = bottom;
position = "{483, 0}";
},
{
name = top;
position = "{483, 1055}";
}
);
layerId = "410E5E1C-5FD0-457E-A79B-7BF13808BDAC";
paths = (
{
closed = 1;
nodes = (
"94 313.333 OFFCURVE",
"146.833 175.333 OFFCURVE",
"231.5 90 CURVE SMOOTH",
"316.167 4.667 OFFCURVE",
"433.667 -27 OFFCURVE",
"563 -27 CURVE SMOOTH",
"668.333 -27 OFFCURVE",
"747 -11 OFFCURVE",
"799 5 CURVE SMOOTH",
"829.667 14.333 OFFCURVE",
"855.667 25 OFFCURVE",
"877 37 CURVE",
"877 203 LINE",
"857.667 199 OFFCURVE",
"836 195.667 OFFCURVE",
"812 193 CURVE SMOOTH",
"770.667 187.667 OFFCURVE",
"714.333 184 OFFCURVE",
"649 184 CURVE SMOOTH",
"545 184 OFFCURVE",
"469.667 196.5 OFFCURVE",
"419 246.5 CURVE SMOOTH",
"368.333 296.5 OFFCURVE",
"344 383.333 OFFCURVE",
"344 530 CURVE SMOOTH",
"344 674 OFFCURVE",
"364.667 758.833 OFFCURVE",
"410 807.5 CURVE SMOOTH",
"455.333 856.167 OFFCURVE",
"527 870 OFFCURVE",
"627 870 CURVE SMOOTH",
"689.667 870 OFFCURVE",
"748.667 865.667 OFFCURVE",
"794 863 CURVE SMOOTH",
"820.667 860.333 OFFCURVE",
"845.333 858 OFFCURVE",
"868 856 CURVE",
"868 1020 LINE",
"844.667 1030.667 OFFCURVE",
"817 1040.333 OFFCURVE",
"785 1049 CURVE SMOOTH",
"730.333 1063.667 OFFCURVE",
"652.333 1079 OFFCURVE",
"555 1079 CURVE SMOOTH",
"428.333 1079 OFFCURVE",
"312.833 1040.833 OFFCURVE",
"229.5 953.5 CURVE SMOOTH",
"146.167 866.167 OFFCURVE",
"94 728 OFFCURVE",
"94 528 CURVE"
);
}
);
userData = {
assembly = "PUSHB[ ]	/* 4 values pushed */\01221 11 0 4 \012CALL[ ]	/* CallFunction */\012NPUSHB[ ]	/* 11 values pushed */\0126 21 22 21 38 21 54 21 70 21 5 \012DELTAP1[ ]	/* DeltaExceptionP1 */\012SVTCA[0]	/* SetFreedomAndProjectionVectorToAxis */\012PUSHB[ ]	/* 1 value pushed */\0120 \012RCVT[ ]	/* ReadCVT */\012IF[ ]	/* If */\012PUSHB[ ]	/* 1 value pushed */\0125 \012MDAP[1]	/* MoveDirectAbsPt */\012ELSE[ ]	/* Else */\012PUSHB[ ]	/* 2 values pushed */\0125 21 \012MIAP[0]	/* MoveIndirectAbsPt */\012EIF[ ]	/* EndIf */\012PUSHB[ ]	/* 1 value pushed */\0120 \012RCVT[ ]	/* ReadCVT */\012IF[ ]	/* If */\012PUSHB[ ]	/* 1 value pushed */\01237 \012MDAP[1]	/* MoveDirectAbsPt */\012ELSE[ ]	/* Else */\012PUSHB[ ]	/* 2 values pushed */\01237 17 \012MIAP[0]	/* MoveIndirectAbsPt */\012EIF[ ]	/* EndIf */\012PUSHB[ ]	/* 1 value pushed */\0125 \012SRP0[ ]	/* SetRefPoint0 */\012PUSHB[ ]	/* 2 values pushed */\01211 5 \012MIRP[10100]	/* MoveIndirectRelPt */\012PUSHB[ ]	/* 1 value pushed */\01213 \012MDRP[10000]	/* MoveDirectRelPt */\012PUSHB[ ]	/* 1 value pushed */\01213 \012MDAP[1]	/* MoveDirectAbsPt */\012PUSHB[ ]	/* 1 value pushed */\01216 \012MDRP[10000]	/* MoveDirectRelPt */\012PUSHB[ ]	/* 1 value pushed */\01237 \012SRP0[ ]	/* SetRefPoint0 */\012PUSHB[ ]	/* 2 values pushed */\01226 5 \012MIRP[10100]	/* MoveIndirectRelPt */\012NPUSHB[ ]	/* 11 values pushed */\0127 26 23 26 39 26 55 26 71 26 5 \012DELTAP1[ ]	/* DeltaExceptionP1 */\012PUSHB[ ]	/* 1 value pushed */\01229 \012MDRP[10000]	/* MoveDirectRelPt */\012PUSHB[ ]	/* 1 value pushed */\01229 \012MDAP[1]	/* MoveDirectAbsPt */\012IUP[0]	/* InterpolateUntPts */\012IUP[1]	/* InterpolateUntPts */";
};
width = 965;
}
);
leftKerningGroup = o;
note = c;
rightKerningGroup = c;
unicode = 0063;
},
{
color = 4;
glyphname = d;
lastChange = "2022-05-11 05:02:50 +0000";
layers = (
{
anchors = (
{
name = bottom;
position = "{609, 0}";
},
{
name = center;
position = "{609, 528}";
},
{
name = top;
position = "{466, 1235}";
},
{
name = topright;
position = "{1198, 1055}";
}
);
layerId = "410E5E1C-5FD0-457E-A79B-7BF13808BDAC";
paths = (
{
closed = 1;
nodes = (
"574 -31 OFFCURVE",
"665.667 -3.333 OFFCURVE",
"731 26 CURVE SMOOTH",
"769 43.333 OFFCURVE",
"803 62.667 OFFCURVE",
"833 84 CURVE",
"847 0 LINE",
"1052 0 LINE",
"1052 1554 LINE",
"814 1554 LINE",
"814 1010 LINE",
"786 1023.333 OFFCURVE",
"753.667 1035.667 OFFCURVE",
"717 1047 CURVE SMOOTH",
"654.333 1065.667 OFFCURVE",
"568 1085 OFFCURVE",
"464 1085 CURVE SMOOTH",
"350.667 1085 OFFCURVE",
"259.5 1046.5 OFFCURVE",
"197.5 956.5 CURVE SMOOTH",
"135.5 866.5 OFFCURVE",
"101.333 725.667 OFFCURVE",
"104 523 CURVE SMOOTH",
"105.333 319 OFFCURVE",
"137 179.833 OFFCURVE",
"197 92.5 CURVE SMOOTH",
"257 5.167 OFFCURVE",
"347.333 -31 OFFCURVE",
"466 -31 CURVE"
);
},
{
closed = 1;
nodes = (
"466 182 OFFCURVE",
"417 204 OFFCURVE",
"389 256 CURVE SMOOTH",
"361 308 OFFCURVE",
"354 389.333 OFFCURVE",
"354 508 CURVE SMOOTH",
"354 645.333 OFFCURVE",
"362.333 736.667 OFFCURVE",
"389 794 CURVE SMOOTH",
"415.667 851.333 OFFCURVE",
"460.667 874 OFFCURVE",
"534 874 CURVE SMOOTH",
"604.667 874 OFFCURVE",
"675 864.333 OFFCURVE",
"727 855 CURVE SMOOTH",
"757.667 849 OFFCURVE",
"786.667 842.667 OFFCURVE",
"814 836 CURVE",
"814 233 LINE",
"789.333 223 OFFCURVE",
"762.667 214.333 OFFCURVE",
"734 207 CURVE SMOOTH",
"684.667 193.667 OFFCURVE",
"619.333 182 OFFCURVE",
"550 182 CURVE"
);
}
);
userData = {
assembly = "PUSHB[ ]	/* 1 value pushed */\01246 \012MDAP[1]	/* MoveDirectAbsPt */\012PUSHB[ ]	/* 1 value pushed */\01216 \012MDAP[1]	/* MoveDirectAbsPt */\012PUSHB[ ]	/* 1 value pushed */\01246 \012SRP0[ ]	/* SetRefPoint0 */\012PUSHB[ ]	/* 1 value pushed */\0125 \012MDRP[10000]	/* MoveDirectRelPt */\012PUSHB[ ]	/* 1 value pushed */\0125 \012MDAP[1]	/* MoveDirectAbsPt */\012PUSHB[ ]	/* 1 value pushed */\01216 \012SRP0[ ]	/* SetRefPoint0 */\012PUSHB[ ]	/* 2 values pushed */\01217 13 \012MIRP[10100]	/* MoveIndirectRelPt */\012PUSHB[ ]	/* 3 values pushed */\01220 16 17 \012SRP1[ ]	/* SetRefPoint1 */\012SRP2[ ]	/* SetRefPoint2 */\012IP[ ]	/* InterpolatePts */\012PUSHB[ ]	/* 1 value pushed */\01216 \012SRP0[ ]	/* SetRefPoint0 */\012PUSHB[ ]	/* 1 value pushed */\01230 \012MDRP[10000]	/* MoveDirectRelPt */\012PUSHB[ ]	/* 1 value pushed */\0125 \012SRP0[ ]	/* SetRefPoint0 */\012PUSHB[ ]	/* 2 values pushed */\01241 11 \012MIRP[10100]	/* MoveIndirectRelPt */\012NPUSHB[ ]	/* 11 values pushed */\0126 41 22 41 38 41 54 41 70 41 5 \012DELTAP1[ ]	/* DeltaExceptionP1 */\012PUSHB[ ]	/* 1 value pushed */\01217 \012SRP0[ ]	/* SetRefPoint0 */\012PUSHB[ ]	/* 1 value pushed */\01247 \012MDRP[11100]	/* MoveDirectRelPt */\012SVTCA[0]	/* SetFreedomAndProjectionVectorToAxis */\012PUSHB[ ]	/* 1 value pushed */\0120 \012RCVT[ ]	/* ReadCVT */\012IF[ ]	/* If */\012PUSHB[ ]	/* 1 value pushed */\01210 \012MDAP[1]	/* MoveDirectAbsPt */\012ELSE[ ]	/* Else */\012PUSHB[ ]	/* 2 values pushed */\01210 21 \012MIAP[0]	/* MoveIndirectAbsPt */\012EIF[ ]	/* EndIf */\012PUSHB[ ]	/* 1 value pushed */\0120 \012RCVT[ ]	/* ReadCVT */\012IF[ ]	/* If */\012PUSHB[ ]	/* 1 value pushed */\01218 \012MDAP[1]	/* MoveDirectAbsPt */\012ELSE[ ]	/* Else */\012PUSHB[ ]	/* 2 values pushed */\01218 17 \012MIAP[0]	/* MoveIndirectAbsPt */\012EIF[ ]	/* EndIf */\012PUSHB[ ]	/* 1 value pushed */\0120 \012RCVT[ ]	/* ReadCVT */\012IF[ ]	/* If */\012PUSHB[ ]	/* 1 value pushed */\0120 \012MDAP[1]	/* MoveDirectAbsPt */\012ELSE[ ]	/* Else */\012PUSHB[ ]	/* 2 values pushed */\0120 17 \012MIAP[0]	/* MoveIndirectAbsPt */\012EIF[ ]	/* EndIf */\012PUSHB[ ]	/* 1 value pushed */\01210 \012SRP0[ ]	/* SetRefPoint0 */\012PUSHB[ ]	/* 2 values pushed */\01236 5 \012MIRP[10100]	/* MoveIndirectRelPt */\012NPUSHB[ ]	/* 11 values pushed */\0128 36 24 36 40 36 56 36 72 36 5 \012DELTAP1[ ]	/* DeltaExceptionP1 */\012PUSHB[ ]	/* 3 values pushed */\01215 10 36 \012SRP1[ ]	/* SetRefPoint1 */\012SRP2[ ]	/* SetRefPoint2 */\012IP[ ]	/* InterpolatePts */\012PUSHB[ ]	/* 1 value pushed */\0120 \012SRP0[ ]	/* SetRefPoint0 */\012PUSHB[ ]	/* 2 values pushed */\01225 3 \012MIRP[10100]	/* MoveIndirectRelPt */\012NPUSHB[ ]	/* 11 values pushed */\0127 25 23 25 39 25 55 25 71 25 5 \012DELTAP1[ ]	/* DeltaExceptionP1 */\012PUSHB[ ]	/* 3 values pushed */\01220 0 25 \012SRP1[ ]	/* SetRefPoint1 */\012SRP2[ ]	/* SetRefPoint2 */\012IP[ ]	/* InterpolatePts */\012IUP[0]	/* InterpolateUntPts */\012IUP[1]	/* InterpolateUntPts */";
};
width = 1218;
}
);
leftKerningGroup = o;
note = d;
rightKerningGroup = l;
rightMetricsKey = "=|h";
unicode = 0064;
},
{
color = 4;
glyphname = eth;
lastChange = "2022-05-11 04:45:36 +0000";
layers = (
{
layerId = "410E5E1C-5FD0-457E-A79B-7BF13808BDAC";
paths = (
{
closed = 1;
nodes = (
"111 301.333 OFFCURVE",
"145.833 173.667 OFFCURVE",
"222.5 91 CURVE SMOOTH",
"299.167 8.333 OFFCURVE",
"417.333 -31 OFFCURVE",
"584 -31 CURVE SMOOTH",
"721.333 -31 OFFCURVE",
"835.167 -0.833 OFFCURVE",
"914.5 70.5 CURVE SMOOTH",
"993.833 141.833 OFFCURVE",
"1038 252.667 OFFCURVE",
"1038 414 CURVE SMOOTH",
"1038 764 LINE SMOOTH",
"1038 870.667 OFFCURVE",
"1021.833 977.333 OFFCURVE",
"986.5 1076 CURVE SMOOTH",
"951.167 1174.667 OFFCURVE",
"897 1266.667 OFFCURVE",
"821 1344 CURVE",
"974 1479 LINE",
"877 1622 LINE",
"681 1451 LINE",
"573 1515 OFFCURVE",
"440.667 1554.667 OFFCURVE",
"274 1564 CURVE",
"250 1391 LINE",
"338 1384.333 OFFCURVE",
"430.667 1356.667 OFFCURVE",
"516 1306 CURVE",
"358 1168 LINE",
"457 1023 LINE",
"655 1197 LINE",
"743 1105 OFFCURVE",
"801 986.333 OFFCURVE",
"801 845 CURVE",
"694.62 895.657 OFFCURVE",
"560.28 925 OFFCURVE",
"455 925 CURVE SMOOTH",
"352.333 925 OFFCURVE",
"266 901.833 OFFCURVE",
"206 834.5 CURVE SMOOTH",
"146 767.167 OFFCURVE",
"111 654.667 OFFCURVE",
"111 476 CURVE"
);
},
{
closed = 1;
nodes = (
"358 589 OFFCURVE",
"373 644.333 OFFCURVE",
"409 675 CURVE SMOOTH",
"445 705.667 OFFCURVE",
"501.333 710 OFFCURVE",
"584 710 CURVE SMOOTH",
"640 710 OFFCURVE",
"694.833 700.5 OFFCURVE",
"735.5 690.5 CURVE SMOOTH",
"766.999 682.754 OFFCURVE",
"805.991 671 OFFCURVE",
"801 671 CURVE",
"801 453 LINE SMOOTH",
"801 270.776 OFFCURVE",
"762.916 195 OFFCURVE",
"584 195 CURVE SMOOTH",
"494.667 195 OFFCURVE",
"438.5 219.833 OFFCURVE",
"404.5 268.5 CURVE SMOOTH",
"370.5 317.167 OFFCURVE",
"358 389 OFFCURVE",
"358 485 CURVE"
);
}
);
userData = {
assembly = "PUSHB[ ]	/* 4 values pushed */\01210 15 15 4 \012CALL[ ]	/* CallFunction */\012PUSHB[ ]	/* 1 value pushed */\01215 \012SRP0[ ]	/* SetRefPoint0 */\012PUSHB[ ]	/* 1 value pushed */\01242 \012MDRP[10000]	/* MoveDirectRelPt */\012PUSHB[ ]	/* 1 value pushed */\01210 \012SRP0[ ]	/* SetRefPoint0 */\012PUSHB[ ]	/* 1 value pushed */\01252 \012MDRP[10000]	/* MoveDirectRelPt */\012SVTCA[0]	/* SetFreedomAndProjectionVectorToAxis */\012PUSHB[ ]	/* 1 value pushed */\0120 \012RCVT[ ]	/* ReadCVT */\012IF[ ]	/* If */\012PUSHB[ ]	/* 1 value pushed */\01237 \012MDAP[1]	/* MoveDirectAbsPt */\012ELSE[ ]	/* Else */\012PUSHB[ ]	/* 2 values pushed */\01237 17 \012MIAP[0]	/* MoveIndirectAbsPt */\012EIF[ ]	/* EndIf */\012IUP[0]	/* InterpolateUntPts */\012IUP[1]	/* InterpolateUntPts */";
};
width = 1173;
}
);
leftKerningGroup = eth;
note = eth;
rightKerningGroup = eth;
unicode = 00F0;
},
{
glyphname = dcaron;
lastChange = "2022-05-11 04:49:50 +0000";
layers = (
{
layerId = "410E5E1C-5FD0-457E-A79B-7BF13808BDAC";
paths = (
{
closed = 1;
nodes = (
"1228 1036 LINE",
"1250 1080.667 OFFCURVE",
"1270.667 1123 OFFCURVE",
"1290 1163 CURVE SMOOTH",
"1304.665 1193.552 OFFCURVE",
"1369.463 1329.158 OFFCURVE",
"1377 1348 CURVE SMOOTH",
"1400.333 1396.667 OFFCURVE",
"1412 1434 OFFCURVE",
"1412 1460 CURVE SMOOTH",
"1412 1500 OFFCURVE",
"1385.333 1517.333 OFFCURVE",
"1332 1536 CURVE SMOOTH",
"1302.667 1545.333 OFFCURVE",
"1272.333 1550 OFFCURVE",
"1247 1554 CURVE SMOOTH",
"1232.333 1556 OFFCURVE",
"1218.333 1557.667 OFFCURVE",
"1205 1559 CURVE",
"1080 1085 LINE"
);
},
{
closed = 1;
nodes = (
"574 -31 OFFCURVE",
"665.667 -3.333 OFFCURVE",
"731 26 CURVE SMOOTH",
"769 43.333 OFFCURVE",
"803 62.667 OFFCURVE",
"833 84 CURVE",
"847 0 LINE",
"1052 0 LINE",
"1052 1554 LINE",
"814 1554 LINE",
"814 1010 LINE",
"786 1023.333 OFFCURVE",
"753.667 1035.667 OFFCURVE",
"717 1047 CURVE SMOOTH",
"654.333 1065.667 OFFCURVE",
"568 1085 OFFCURVE",
"464 1085 CURVE SMOOTH",
"350.667 1085 OFFCURVE",
"259.5 1046.5 OFFCURVE",
"197.5 956.5 CURVE SMOOTH",
"135.5 866.5 OFFCURVE",
"101.333 725.667 OFFCURVE",
"104 523 CURVE SMOOTH",
"105.333 319 OFFCURVE",
"137 179.833 OFFCURVE",
"197 92.5 CURVE SMOOTH",
"257 5.167 OFFCURVE",
"347.333 -31 OFFCURVE",
"466 -31 CURVE"
);
},
{
closed = 1;
nodes = (
"466 182 OFFCURVE",
"417 204 OFFCURVE",
"389 256 CURVE SMOOTH",
"361 308 OFFCURVE",
"354 389.333 OFFCURVE",
"354 508 CURVE SMOOTH",
"354 645.333 OFFCURVE",
"362.333 736.667 OFFCURVE",
"389 794 CURVE SMOOTH",
"415.667 851.333 OFFCURVE",
"460.667 874 OFFCURVE",
"534 874 CURVE SMOOTH",
"604.667 874 OFFCURVE",
"675 864.333 OFFCURVE",
"727 855 CURVE SMOOTH",
"757.667 849 OFFCURVE",
"786.667 842.667 OFFCURVE",
"814 836 CURVE",
"814 233 LINE",
"789.333 223 OFFCURVE",
"762.667 214.333 OFFCURVE",
"734 207 CURVE SMOOTH",
"684.667 193.667 OFFCURVE",
"619.333 182 OFFCURVE",
"550 182 CURVE"
);
}
);
userData = {
assembly = "PUSHB[ ]	/* 4 values pushed */\0128 15 18 4 \012CALL[ ]	/* CallFunction */\012PUSHB[ ]	/* 4 values pushed */\01260 11 24 4 \012CALL[ ]	/* CallFunction */\012PUSHB[ ]	/* 4 values pushed */\01236 13 35 4 \012CALL[ ]	/* CallFunction */\012PUSHB[ ]	/* 3 values pushed */\01239 35 36 \012SRP1[ ]	/* SetRefPoint1 */\012SRP2[ ]	/* SetRefPoint2 */\012IP[ ]	/* InterpolatePts */\012PUSHB[ ]	/* 1 value pushed */\01235 \012SRP0[ ]	/* SetRefPoint0 */\012PUSHB[ ]	/* 1 value pushed */\01249 \012MDRP[10000]	/* MoveDirectRelPt */\012NPUSHB[ ]	/* 11 values pushed */\0126 60 22 60 38 60 54 60 70 60 5 \012DELTAP1[ ]	/* DeltaExceptionP1 */\012PUSHB[ ]	/* 1 value pushed */\0128 \012SRP0[ ]	/* SetRefPoint0 */\012PUSHB[ ]	/* 1 value pushed */\01266 \012MDRP[11100]	/* MoveDirectRelPt */\012SVTCA[0]	/* SetFreedomAndProjectionVectorToAxis */\012PUSHB[ ]	/* 1 value pushed */\0120 \012RCVT[ ]	/* ReadCVT */\012IF[ ]	/* If */\012PUSHB[ ]	/* 1 value pushed */\01218 \012MDAP[1]	/* MoveDirectAbsPt */\012ELSE[ ]	/* Else */\012PUSHB[ ]	/* 2 values pushed */\01218 21 \012MIAP[0]	/* MoveIndirectAbsPt */\012EIF[ ]	/* EndIf */\012PUSHB[ ]	/* 1 value pushed */\0120 \012RCVT[ ]	/* ReadCVT */\012IF[ ]	/* If */\012PUSHB[ ]	/* 1 value pushed */\01229 \012MDAP[1]	/* MoveDirectAbsPt */\012ELSE[ ]	/* Else */\012PUSHB[ ]	/* 2 values pushed */\01229 21 \012MIAP[0]	/* MoveIndirectAbsPt */\012EIF[ ]	/* EndIf */\012PUSHB[ ]	/* 1 value pushed */\0120 \012RCVT[ ]	/* ReadCVT */\012IF[ ]	/* If */\012PUSHB[ ]	/* 1 value pushed */\01237 \012MDAP[1]	/* MoveDirectAbsPt */\012ELSE[ ]	/* Else */\012PUSHB[ ]	/* 2 values pushed */\01237 17 \012MIAP[0]	/* MoveIndirectAbsPt */\012EIF[ ]	/* EndIf */\012PUSHB[ ]	/* 1 value pushed */\0120 \012RCVT[ ]	/* ReadCVT */\012IF[ ]	/* If */\012PUSHB[ ]	/* 1 value pushed */\01219 \012MDAP[1]	/* MoveDirectAbsPt */\012ELSE[ ]	/* Else */\012PUSHB[ ]	/* 2 values pushed */\01219 17 \012MIAP[0]	/* MoveIndirectAbsPt */\012EIF[ ]	/* EndIf */\012PUSHB[ ]	/* 1 value pushed */\01229 \012SRP0[ ]	/* SetRefPoint0 */\012PUSHB[ ]	/* 2 values pushed */\01255 5 \012MIRP[10100]	/* MoveIndirectRelPt */\012NPUSHB[ ]	/* 11 values pushed */\0128 55 24 55 40 55 56 55 72 55 5 \012DELTAP1[ ]	/* DeltaExceptionP1 */\012PUSHB[ ]	/* 3 values pushed */\01234 29 55 \012SRP1[ ]	/* SetRefPoint1 */\012SRP2[ ]	/* SetRefPoint2 */\012IP[ ]	/* InterpolatePts */\012PUSHB[ ]	/* 1 value pushed */\01219 \012SRP0[ ]	/* SetRefPoint0 */\012PUSHB[ ]	/* 2 values pushed */\01244 3 \012MIRP[10100]	/* MoveIndirectRelPt */\012NPUSHB[ ]	/* 11 values pushed */\0127 44 23 44 39 44 55 44 71 44 5 \012DELTAP1[ ]	/* DeltaExceptionP1 */\012PUSHB[ ]	/* 3 values pushed */\01239 19 44 \012SRP1[ ]	/* SetRefPoint1 */\012SRP2[ ]	/* SetRefPoint2 */\012IP[ ]	/* InterpolatePts */\012IUP[0]	/* InterpolateUntPts */\012IUP[1]	/* InterpolateUntPts */";
};
width = 1333;
}
);
leftKerningGroup = o;
leftMetricsKey = d;
note = dcaron;
rightKerningGroup = l;
unicode = 010F;
},
{
glyphname = dcroat;
lastChange = "2022-05-11 04:49:59 +0000";
layers = (
{
layerId = "410E5E1C-5FD0-457E-A79B-7BF13808BDAC";
paths = (
{
closed = 1;
nodes = (
"574 -31 OFFCURVE",
"665.667 -3.333 OFFCURVE",
"731 26 CURVE SMOOTH",
"769 43.333 OFFCURVE",
"803 62.667 OFFCURVE",
"833 84 CURVE",
"847 0 LINE",
"1052 0 LINE",
"1052 1204 LINE",
"1197 1204 LINE",
"1197 1384 LINE",
"1052 1384 LINE",
"1052 1554 LINE",
"814 1554 LINE",
"814 1384 LINE",
"529 1384 LINE",
"529 1204 LINE",
"814 1204 LINE",
"814 1010 LINE",
"786 1023.333 OFFCURVE",
"753.667 1035.667 OFFCURVE",
"717 1047 CURVE SMOOTH",
"654.333 1065.667 OFFCURVE",
"568 1085 OFFCURVE",
"464 1085 CURVE SMOOTH",
"350.667 1085 OFFCURVE",
"259.5 1046.5 OFFCURVE",
"197.5 956.5 CURVE SMOOTH",
"135.5 866.5 OFFCURVE",
"101.333 725.667 OFFCURVE",
"104 523 CURVE SMOOTH",
"105.333 319 OFFCURVE",
"137 179.833 OFFCURVE",
"197 92.5 CURVE SMOOTH",
"257 5.167 OFFCURVE",
"347.333 -31 OFFCURVE",
"466 -31 CURVE"
);
},
{
closed = 1;
nodes = (
"466 182 OFFCURVE",
"417 204 OFFCURVE",
"389 256 CURVE SMOOTH",
"361 308 OFFCURVE",
"354 389.333 OFFCURVE",
"354 508 CURVE SMOOTH",
"354 645.333 OFFCURVE",
"362.333 736.667 OFFCURVE",
"389 794 CURVE SMOOTH",
"415.667 851.333 OFFCURVE",
"460.667 874 OFFCURVE",
"534 874 CURVE SMOOTH",
"604.667 874 OFFCURVE",
"675 864.333 OFFCURVE",
"727 855 CURVE SMOOTH",
"757.667 849 OFFCURVE",
"786.667 842.667 OFFCURVE",
"814 836 CURVE",
"814 233 LINE",
"789.333 223 OFFCURVE",
"762.667 214.333 OFFCURVE",
"734 207 CURVE SMOOTH",
"684.667 193.667 OFFCURVE",
"619.333 182 OFFCURVE",
"550 182 CURVE"
);
}
);
userData = {
assembly = "PUSHB[ ]	/* 4 values pushed */\01249 11 5 4 \012CALL[ ]	/* CallFunction */\012PUSHB[ ]	/* 3 values pushed */\01224 17 3 \012CALL[ ]	/* CallFunction */\012PUSHB[ ]	/* 3 values pushed */\01215 17 24 \012SRP1[ ]	/* SetRefPoint1 */\012SRP2[ ]	/* SetRefPoint2 */\012IP[ ]	/* InterpolatePts */\012PUSHB[ ]	/* 3 values pushed */\01216 17 24 \012SRP1[ ]	/* SetRefPoint1 */\012SRP2[ ]	/* SetRefPoint2 */\012IP[ ]	/* InterpolatePts */\012PUSHB[ ]	/* 1 value pushed */\01216 \012MDAP[1]	/* MoveDirectAbsPt */\012PUSHB[ ]	/* 1 value pushed */\01219 \012MDRP[10000]	/* MoveDirectRelPt */\012PUSHB[ ]	/* 1 value pushed */\01216 \012SRP0[ ]	/* SetRefPoint0 */\012PUSHB[ ]	/* 2 values pushed */\01225 13 \012MIRP[10100]	/* MoveIndirectRelPt */\012PUSHB[ ]	/* 1 value pushed */\01221 \012MDRP[10000]	/* MoveDirectRelPt */\012PUSHB[ ]	/* 3 values pushed */\01228 17 24 \012SRP1[ ]	/* SetRefPoint1 */\012SRP2[ ]	/* SetRefPoint2 */\012IP[ ]	/* InterpolatePts */\012PUSHB[ ]	/* 1 value pushed */\01216 \012SRP0[ ]	/* SetRefPoint0 */\012PUSHB[ ]	/* 1 value pushed */\01238 \012MDRP[10000]	/* MoveDirectRelPt */\012NPUSHB[ ]	/* 11 values pushed */\0126 49 22 49 38 49 54 49 70 49 5 \012DELTAP1[ ]	/* DeltaExceptionP1 */\012PUSHB[ ]	/* 1 value pushed */\01224 \012SRP0[ ]	/* SetRefPoint0 */\012PUSHB[ ]	/* 1 value pushed */\01255 \012MDRP[11100]	/* MoveDirectRelPt */\012SVTCA[0]	/* SetFreedomAndProjectionVectorToAxis */\012PUSHB[ ]	/* 1 value pushed */\0120 \012RCVT[ ]	/* ReadCVT */\012IF[ ]	/* If */\012PUSHB[ ]	/* 1 value pushed */\01210 \012MDAP[1]	/* MoveDirectAbsPt */\012ELSE[ ]	/* Else */\012PUSHB[ ]	/* 2 values pushed */\01210 21 \012MIAP[0]	/* MoveIndirectAbsPt */\012EIF[ ]	/* EndIf */\012PUSHB[ ]	/* 1 value pushed */\0120 \012RCVT[ ]	/* ReadCVT */\012IF[ ]	/* If */\012PUSHB[ ]	/* 1 value pushed */\01226 \012MDAP[1]	/* MoveDirectAbsPt */\012ELSE[ ]	/* Else */\012PUSHB[ ]	/* 2 values pushed */\01226 17 \012MIAP[0]	/* MoveIndirectAbsPt */\012EIF[ ]	/* EndIf */\012PUSHB[ ]	/* 1 value pushed */\0120 \012RCVT[ ]	/* ReadCVT */\012IF[ ]	/* If */\012PUSHB[ ]	/* 1 value pushed */\0120 \012MDAP[1]	/* MoveDirectAbsPt */\012ELSE[ ]	/* Else */\012PUSHB[ ]	/* 2 values pushed */\0120 17 \012MIAP[0]	/* MoveIndirectAbsPt */\012EIF[ ]	/* EndIf */\012PUSHB[ ]	/* 4 values pushed */\01219 4 16 4 \012CALL[ ]	/* CallFunction */\012PUSHB[ ]	/* 1 value pushed */\01210 \012SRP0[ ]	/* SetRefPoint0 */\012PUSHB[ ]	/* 2 values pushed */\01244 5 \012MIRP[10100]	/* MoveIndirectRelPt */\012NPUSHB[ ]	/* 11 values pushed */\0128 44 24 44 40 44 56 44 72 44 5 \012DELTAP1[ ]	/* DeltaExceptionP1 */\012PUSHB[ ]	/* 3 values pushed */\01215 10 44 \012SRP1[ ]	/* SetRefPoint1 */\012SRP2[ ]	/* SetRefPoint2 */\012IP[ ]	/* InterpolatePts */\012PUSHB[ ]	/* 1 value pushed */\01219 \012SRP0[ ]	/* SetRefPoint0 */\012PUSHB[ ]	/* 1 value pushed */\01222 \012MDRP[10000]	/* MoveDirectRelPt */\012PUSHB[ ]	/* 1 value pushed */\01216 \012SRP0[ ]	/* SetRefPoint0 */\012PUSHB[ ]	/* 1 value pushed */\01224 \012MDRP[10000]	/* MoveDirectRelPt */\012PUSHB[ ]	/* 1 value pushed */\0120 \012SRP0[ ]	/* SetRefPoint0 */\012PUSHB[ ]	/* 2 values pushed */\01233 3 \012MIRP[10100]	/* MoveIndirectRelPt */\012NPUSHB[ ]	/* 11 values pushed */\0127 33 23 33 39 33 55 33 71 33 5 \012DELTAP1[ ]	/* DeltaExceptionP1 */\012PUSHB[ ]	/* 3 values pushed */\01228 0 33 \012SRP1[ ]	/* SetRefPoint1 */\012SRP2[ ]	/* SetRefPoint2 */\012IP[ ]	/* InterpolatePts */\012IUP[0]	/* InterpolateUntPts */\012IUP[1]	/* InterpolateUntPts */";
};
width = 1197;
}
);
leftKerningGroup = o;
leftMetricsKey = d;
note = dcroat;
rightKerningGroup = l;
unicode = 0111;
},
{
color = 4;
glyphname = e;
lastChange = "2022-05-11 05:02:36 +0000";
layers = (
{
anchors = (
{
name = bottom;
position = "{611, 0}";
},
{
name = ogonek;
position = "{977, 10}";
},
{
name = top;
position = "{600, 1055}";
}
);
layerId = "410E5E1C-5FD0-457E-A79B-7BF13808BDAC";
paths = (
{
closed = 1;
nodes = (
"94 328.333 OFFCURVE",
"139.833 185.5 OFFCURVE",
"224.5 95.5 CURVE SMOOTH",
"309.167 5.5 OFFCURVE",
"432.667 -31 OFFCURVE",
"590 -31 CURVE SMOOTH",
"692.667 -31 OFFCURVE",
"786 -14.333 OFFCURVE",
"854 3 CURVE SMOOTH",
"894 13 OFFCURVE",
"931 24.333 OFFCURVE",
"965 37 CURVE",
"965 203 LINE",
"935.667 197.667 OFFCURVE",
"903 193.333 OFFCURVE",
"867 190 CURVE SMOOTH",
"805.667 183.333 OFFCURVE",
"722.333 178 OFFCURVE",
"629 178 CURVE SMOOTH",
"518.333 178 OFFCURVE",
"446.167 194.833 OFFCURVE",
"401.5 235.5 CURVE SMOOTH",
"356.833 276.167 OFFCURVE",
"339.333 339.333 OFFCURVE",
"338 434 CURVE",
"999 434 LINE",
"1007 504.667 OFFCURVE",
"1012 571.333 OFFCURVE",
"1012 634 CURVE SMOOTH",
"1012 767.333 OFFCURVE",
"989.667 880.167 OFFCURVE",
"927 959.5 CURVE SMOOTH",
"864.333 1038.833 OFFCURVE",
"761.333 1085 OFFCURVE",
"600 1085 CURVE SMOOTH",
"472 1085 OFFCURVE",
"345.667 1058.333 OFFCURVE",
"251 977 CURVE SMOOTH",
"156.333 895.667 OFFCURVE",
"94 759 OFFCURVE",
"94 539 CURVE"
);
},
{
closed = 1;
nodes = (
"336 701.333 OFFCURVE",
"346.167 769.5 OFFCURVE",
"381.5 815.5 CURVE SMOOTH",
"416.833 861.5 OFFCURVE",
"478 885 OFFCURVE",
"578 885 CURVE SMOOTH",
"758.007 885 OFFCURVE",
"793 817.278 OFFCURVE",
"793 650 CURVE SMOOTH",
"793 612 LINE",
"336 612 LINE"
);
}
);
userData = {
assembly = "PUSHB[ ]	/* 1 value pushed */\01247 \012MDAP[1]	/* MoveDirectAbsPt */\012PUSHB[ ]	/* 1 value pushed */\01236 \012MDAP[1]	/* MoveDirectAbsPt */\012PUSHB[ ]	/* 1 value pushed */\01247 \012SRP0[ ]	/* SetRefPoint0 */\012PUSHB[ ]	/* 1 value pushed */\0120 \012MDRP[10000]	/* MoveDirectRelPt */\012PUSHB[ ]	/* 1 value pushed */\0120 \012MDAP[1]	/* MoveDirectAbsPt */\012PUSHB[ ]	/* 1 value pushed */\01236 \012SRP0[ ]	/* SetRefPoint0 */\012PUSHB[ ]	/* 2 values pushed */\01210 10 \012MIRP[10100]	/* MoveIndirectRelPt */\012PUSHB[ ]	/* 1 value pushed */\01213 \012MDRP[10000]	/* MoveDirectRelPt */\012PUSHB[ ]	/* 1 value pushed */\01213 \012MDAP[1]	/* MoveDirectAbsPt */\012PUSHB[ ]	/* 1 value pushed */\0120 \012SRP0[ ]	/* SetRefPoint0 */\012PUSHB[ ]	/* 2 values pushed */\01246 12 \012MIRP[10100]	/* MoveIndirectRelPt */\012PUSHB[ ]	/* 1 value pushed */\01214 \012MDRP[10000]	/* MoveDirectRelPt */\012PUSHB[ ]	/* 1 value pushed */\01214 \012MDAP[1]	/* MoveDirectAbsPt */\012PUSHB[ ]	/* 1 value pushed */\01210 \012SRP0[ ]	/* SetRefPoint0 */\012PUSHB[ ]	/* 1 value pushed */\01248 \012MDRP[11100]	/* MoveDirectRelPt */\012SVTCA[0]	/* SetFreedomAndProjectionVectorToAxis */\012PUSHB[ ]	/* 1 value pushed */\0120 \012RCVT[ ]	/* ReadCVT */\012IF[ ]	/* If */\012PUSHB[ ]	/* 1 value pushed */\0125 \012MDAP[1]	/* MoveDirectAbsPt */\012ELSE[ ]	/* Else */\012PUSHB[ ]	/* 2 values pushed */\0125 21 \012MIAP[0]	/* MoveIndirectAbsPt */\012EIF[ ]	/* EndIf */\012PUSHB[ ]	/* 1 value pushed */\0120 \012RCVT[ ]	/* ReadCVT */\012IF[ ]	/* If */\012PUSHB[ ]	/* 1 value pushed */\01230 \012MDAP[1]	/* MoveDirectAbsPt */\012ELSE[ ]	/* Else */\012PUSHB[ ]	/* 2 values pushed */\01230 17 \012MIAP[0]	/* MoveIndirectAbsPt */\012EIF[ ]	/* EndIf */\012PUSHB[ ]	/* 4 values pushed */\01235 4 13 4 \012CALL[ ]	/* CallFunction */\012PUSHB[ ]	/* 1 value pushed */\01230 \012SRP0[ ]	/* SetRefPoint0 */\012PUSHB[ ]	/* 2 values pushed */\01219 5 \012MIRP[10100]	/* MoveIndirectRelPt */\012NPUSHB[ ]	/* 11 values pushed */\0127 19 23 19 39 19 55 19 71 19 5 \012DELTAP1[ ]	/* DeltaExceptionP1 */\012PUSHB[ ]	/* 1 value pushed */\01222 \012MDRP[10000]	/* MoveDirectRelPt */\012PUSHB[ ]	/* 1 value pushed */\01222 \012MDAP[1]	/* MoveDirectAbsPt */\012PUSHB[ ]	/* 1 value pushed */\0125 \012SRP0[ ]	/* SetRefPoint0 */\012PUSHB[ ]	/* 2 values pushed */\01241 1 \012MIRP[10100]	/* MoveIndirectRelPt */\012NPUSHB[ ]	/* 11 values pushed */\0128 41 24 41 40 41 56 41 72 41 5 \012DELTAP1[ ]	/* DeltaExceptionP1 */\012IUP[0]	/* InterpolateUntPts */\012IUP[1]	/* InterpolateUntPts */";
};
width = 1085;
}
);
leftKerningGroup = o;
note = e;
rightKerningGroup = e;
unicode = 0065;
},
{
glyphname = eogonek;
lastChange = "2022-05-11 04:40:54 +0000";
layers = (
{
layerId = "410E5E1C-5FD0-457E-A79B-7BF13808BDAC";
paths = (
{
closed = 1;
nodes = (
"94 328.333 OFFCURVE",
"139.833 185.5 OFFCURVE",
"224.5 95.5 CURVE SMOOTH",
"309.167 5.5 OFFCURVE",
"432.667 -31 OFFCURVE",
"590 -31 CURVE SMOOTH",
"594 -31 LINE",
"533.503 -94.377 OFFCURVE",
"481 -178.242 OFFCURVE",
"481 -279 CURVE SMOOTH",
"481 -423.272 OFFCURVE",
"589.244 -500 OFFCURVE",
"733 -500 CURVE SMOOTH",
"771.667 -500 OFFCURVE",
"805.667 -495.333 OFFCURVE",
"831 -490 CURVE SMOOTH",
"845.667 -487.333 OFFCURVE",
"859.333 -483.667 OFFCURVE",
"872 -479 CURVE",
"872 -311 LINE",
"865.333 -312.333 OFFCURVE",
"858.333 -313.333 OFFCURVE",
"851 -314 CURVE SMOOTH",
"837.667 -316 OFFCURVE",
"821.667 -317 OFFCURVE",
"803 -317 CURVE SMOOTH",
"735 -317 OFFCURVE",
"702 -281 OFFCURVE",
"702 -225 CURVE SMOOTH",
"702 -187.667 OFFCURVE",
"717.667 -144.333 OFFCURVE",
"759 -99 CURVE SMOOTH",
"800.333 -53.667 OFFCURVE",
"865 -7 OFFCURVE",
"965 37 CURVE",
"965 203 LINE",
"935.667 197.667 OFFCURVE",
"903 193.333 OFFCURVE",
"867 190 CURVE SMOOTH",
"805.667 183.333 OFFCURVE",
"722.333 178 OFFCURVE",
"629 178 CURVE SMOOTH",
"518.333 178 OFFCURVE",
"446.167 194.833 OFFCURVE",
"401.5 235.5 CURVE SMOOTH",
"356.833 276.167 OFFCURVE",
"339.333 339.333 OFFCURVE",
"338 434 CURVE",
"999 434 LINE",
"1007 504.667 OFFCURVE",
"1012 571.333 OFFCURVE",
"1012 634 CURVE SMOOTH",
"1012 767.333 OFFCURVE",
"989.667 880.167 OFFCURVE",
"927 959.5 CURVE SMOOTH",
"864.333 1038.833 OFFCURVE",
"761.333 1085 OFFCURVE",
"600 1085 CURVE SMOOTH",
"472 1085 OFFCURVE",
"345.667 1058.333 OFFCURVE",
"251 977 CURVE SMOOTH",
"156.333 895.667 OFFCURVE",
"94 759 OFFCURVE",
"94 539 CURVE"
);
},
{
closed = 1;
nodes = (
"336 701.333 OFFCURVE",
"346.167 769.5 OFFCURVE",
"381.5 815.5 CURVE SMOOTH",
"416.833 861.5 OFFCURVE",
"478 885 OFFCURVE",
"578 885 CURVE SMOOTH",
"758.007 885 OFFCURVE",
"793 817.278 OFFCURVE",
"793 650 CURVE SMOOTH",
"793 612 LINE",
"336 612 LINE"
);
}
);
userData = {
assembly = "PUSHB[ ]	/* 4 values pushed */\01230 10 48 4 \012CALL[ ]	/* CallFunction */\012PUSHB[ ]	/* 4 values pushed */\01270 12 0 4 \012CALL[ ]	/* CallFunction */\012PUSHB[ ]	/* 4 values pushed */\01210 10 60 4 \012CALL[ ]	/* CallFunction */\012PUSHB[ ]	/* 1 value pushed */\01210 \012SRP0[ ]	/* SetRefPoint0 */\012PUSHB[ ]	/* 1 value pushed */\01213 \012MDRP[10000]	/* MoveDirectRelPt */\012PUSHB[ ]	/* 1 value pushed */\01213 \012MDAP[1]	/* MoveDirectAbsPt */\012PUSHB[ ]	/* 1 value pushed */\01270 \012SRP0[ ]	/* SetRefPoint0 */\012PUSHB[ ]	/* 1 value pushed */\01214 \012MDRP[10000]	/* MoveDirectRelPt */\012PUSHB[ ]	/* 1 value pushed */\01214 \012MDAP[1]	/* MoveDirectAbsPt */\012NPUSHB[ ]	/* 11 values pushed */\0129 48 25 48 41 48 57 48 73 48 5 \012DELTAP1[ ]	/* DeltaExceptionP1 */\012PUSHB[ ]	/* 3 values pushed */\01254 48 30 \012SRP1[ ]	/* SetRefPoint1 */\012SRP2[ ]	/* SetRefPoint2 */\012IP[ ]	/* InterpolatePts */\012PUSHB[ ]	/* 1 value pushed */\01210 \012SRP0[ ]	/* SetRefPoint0 */\012PUSHB[ ]	/* 1 value pushed */\01272 \012MDRP[11100]	/* MoveDirectRelPt */\012SVTCA[0]	/* SetFreedomAndProjectionVectorToAxis */\012PUSHB[ ]	/* 1 value pushed */\0120 \012RCVT[ ]	/* ReadCVT */\012IF[ ]	/* If */\012PUSHB[ ]	/* 1 value pushed */\0125 \012MDAP[1]	/* MoveDirectAbsPt */\012ELSE[ ]	/* Else */\012PUSHB[ ]	/* 2 values pushed */\0125 21 \012MIAP[0]	/* MoveIndirectAbsPt */\012EIF[ ]	/* EndIf */\012PUSHB[ ]	/* 1 value pushed */\0120 \012RCVT[ ]	/* ReadCVT */\012IF[ ]	/* If */\012PUSHB[ ]	/* 1 value pushed */\01240 \012MDAP[1]	/* MoveDirectAbsPt */\012ELSE[ ]	/* Else */\012PUSHB[ ]	/* 2 values pushed */\01240 19 \012MIAP[0]	/* MoveIndirectAbsPt */\012EIF[ ]	/* EndIf */\012PUSHB[ ]	/* 1 value pushed */\0120 \012RCVT[ ]	/* ReadCVT */\012IF[ ]	/* If */\012PUSHB[ ]	/* 1 value pushed */\01243 \012MDAP[1]	/* MoveDirectAbsPt */\012ELSE[ ]	/* Else */\012PUSHB[ ]	/* 2 values pushed */\01243 19 \012MIAP[0]	/* MoveIndirectAbsPt */\012EIF[ ]	/* EndIf */\012PUSHB[ ]	/* 1 value pushed */\0120 \012RCVT[ ]	/* ReadCVT */\012IF[ ]	/* If */\012PUSHB[ ]	/* 1 value pushed */\01253 \012MDAP[1]	/* MoveDirectAbsPt */\012ELSE[ ]	/* Else */\012PUSHB[ ]	/* 2 values pushed */\01253 17 \012MIAP[0]	/* MoveIndirectAbsPt */\012EIF[ ]	/* EndIf */\012PUSHB[ ]	/* 4 values pushed */\01259 4 13 4 \012CALL[ ]	/* CallFunction */\012PUSHB[ ]	/* 1 value pushed */\01253 \012SRP0[ ]	/* SetRefPoint0 */\012PUSHB[ ]	/* 2 values pushed */\01219 5 \012MIRP[10100]	/* MoveIndirectRelPt */\012NPUSHB[ ]	/* 11 values pushed */\0127 19 23 19 39 19 55 19 71 19 5 \012DELTAP1[ ]	/* DeltaExceptionP1 */\012PUSHB[ ]	/* 1 value pushed */\01222 \012MDRP[10000]	/* MoveDirectRelPt */\012PUSHB[ ]	/* 1 value pushed */\01222 \012MDAP[1]	/* MoveDirectAbsPt */\012PUSHB[ ]	/* 1 value pushed */\01240 \012SRP0[ ]	/* SetRefPoint0 */\012PUSHB[ ]	/* 2 values pushed */\01233 4 \012MIRP[10100]	/* MoveIndirectRelPt */\012NPUSHB[ ]	/* 11 values pushed */\0127 33 23 33 39 33 55 33 71 33 5 \012DELTAP1[ ]	/* DeltaExceptionP1 */\012PUSHB[ ]	/* 1 value pushed */\0125 \012SRP0[ ]	/* SetRefPoint0 */\012PUSHB[ ]	/* 2 values pushed */\01265 1 \012MIRP[10100]	/* MoveIndirectRelPt */\012NPUSHB[ ]	/* 11 values pushed */\0128 65 24 65 40 65 56 65 72 65 5 \012DELTAP1[ ]	/* DeltaExceptionP1 */\012IUP[0]	/* InterpolateUntPts */\012IUP[1]	/* InterpolateUntPts */";
};
width = 1085;
}
);
leftKerningGroup = o;
note = eogonek;
rightKerningGroup = e;
unicode = 0119;
},
{
glyphname = schwa;
lastChange = "2022-05-11 05:37:28 +0000";
layers = (
{
anchors = (
{
name = bottom;
position = "{485, 0}";
}
);
layerId = "410E5E1C-5FD0-457E-A79B-7BF13808BDAC";
paths = (
{
closed = 1;
nodes = (
"991 727 OFFCURVE",
"945 869 OFFCURVE",
"860 959 CURVE SMOOTH",
"776 1049 OFFCURVE",
"652 1086 OFFCURVE",
"495 1086 CURVE SMOOTH",
"392 1086 OFFCURVE",
"299 1069 OFFCURVE",
"231 1052 CURVE SMOOTH",
"191 1042 OFFCURVE",
"154 1031 OFFCURVE",
"120 1018 CURVE",
"120 852 LINE",
"149 857 OFFCURVE",
"182 862 OFFCURVE",
"218 865 CURVE SMOOTH",
"279 872 OFFCURVE",
"363 877 OFFCURVE",
"456 877 CURVE SMOOTH",
"567 877 OFFCURVE",
"639 860 OFFCURVE",
"683 819 CURVE SMOOTH",
"728 779 OFFCURVE",
"746 716 OFFCURVE",
"747 621 CURVE",
"86 621 LINE",
"78 550 OFFCURVE",
"73 484 OFFCURVE",
"73 421 CURVE SMOOTH",
"73 288 OFFCURVE",
"95 175 OFFCURVE",
"158 95 CURVE SMOOTH",
"221 16 OFFCURVE",
"324 -30 OFFCURVE",
"485 -30 CURVE SMOOTH",
"613 -30 OFFCURVE",
"739 -3 OFFCURVE",
"834 78 CURVE SMOOTH",
"929 159 OFFCURVE",
"991 296 OFFCURVE",
"991 516 CURVE"
);
},
{
closed = 1;
nodes = (
"749 354 OFFCURVE",
"739 285 OFFCURVE",
"703 239 CURVE SMOOTH",
"668 193 OFFCURVE",
"607 170 OFFCURVE",
"507 170 CURVE SMOOTH",
"327 170 OFFCURVE",
"292 238 OFFCURVE",
"292 405 CURVE SMOOTH",
"292 443 LINE",
"749 443 LINE"
);
}
);
width = 1085;
}
);
leftKerningGroup = schwa;
leftMetricsKey = "=|e";
rightKerningGroup = schwa;
rightMetricsKey = o;
unicode = 0259;
},
{
color = 4;
glyphname = f;
lastChange = "2022-05-11 04:48:15 +0000";
layers = (
{
anchors = (
{
name = bottom;
position = "{388, 0}";
},
{
name = top;
position = "{193, 1509}";
}
);
layerId = "410E5E1C-5FD0-457E-A79B-7BF13808BDAC";
paths = (
{
closed = 1;
nodes = (
"475 0 LINE",
"475 858 LINE",
"745 858 LINE",
"745 1055 LINE",
"475 1055 LINE",
"475 1241 LINE SMOOTH",
"475 1333.307 OFFCURVE",
"510.795 1362 OFFCURVE",
"621 1362 CURVE SMOOTH",
"669 1362 OFFCURVE",
"716.333 1360.667 OFFCURVE",
"751 1358 CURVE SMOOTH",
"771.667 1356.667 OFFCURVE",
"791 1355.333 OFFCURVE",
"809 1354 CURVE",
"809 1530 LINE",
"787 1536.667 OFFCURVE",
"762.333 1543 OFFCURVE",
"735 1549 CURVE SMOOTH",
"688.333 1559.667 OFFCURVE",
"619.667 1569 OFFCURVE",
"537 1569 CURVE SMOOTH",
"426.333 1569 OFFCURVE",
"350.667 1538.333 OFFCURVE",
"304 1481 CURVE SMOOTH",
"257.333 1423.667 OFFCURVE",
"238 1339 OFFCURVE",
"238 1231 CURVE SMOOTH",
"238 1055 LINE",
"90 1055 LINE",
"90 858 LINE",
"238 858 LINE",
"238 0 LINE"
);
}
);
userData = {
assembly = "PUSHB[ ]	/* 4 values pushed */\01229 13 0 4 \012CALL[ ]	/* CallFunction */\012PUSHB[ ]	/* 1 value pushed */\0120 \012SRP0[ ]	/* SetRefPoint0 */\012PUSHB[ ]	/* 1 value pushed */\0123 \012MDRP[10000]	/* MoveDirectRelPt */\012PUSHB[ ]	/* 1 value pushed */\01229 \012SRP0[ ]	/* SetRefPoint0 */\012PUSHB[ ]	/* 1 value pushed */\01225 \012MDRP[10000]	/* MoveDirectRelPt */\012SVTCA[0]	/* SetFreedomAndProjectionVectorToAxis */\012PUSHB[ ]	/* 1 value pushed */\0120 \012RCVT[ ]	/* ReadCVT */\012IF[ ]	/* If */\012PUSHB[ ]	/* 1 value pushed */\0122 \012MDAP[1]	/* MoveDirectAbsPt */\012ELSE[ ]	/* Else */\012PUSHB[ ]	/* 2 values pushed */\0122 21 \012MIAP[0]	/* MoveIndirectAbsPt */\012EIF[ ]	/* EndIf */\012PUSHB[ ]	/* 1 value pushed */\0120 \012RCVT[ ]	/* ReadCVT */\012IF[ ]	/* If */\012PUSHB[ ]	/* 1 value pushed */\01226 \012MDAP[1]	/* MoveDirectAbsPt */\012ELSE[ ]	/* Else */\012PUSHB[ ]	/* 2 values pushed */\01226 21 \012MIAP[0]	/* MoveIndirectAbsPt */\012EIF[ ]	/* EndIf */\012PUSHB[ ]	/* 1 value pushed */\0120 \012RCVT[ ]	/* ReadCVT */\012IF[ ]	/* If */\012PUSHB[ ]	/* 1 value pushed */\01230 \012MDAP[1]	/* MoveDirectAbsPt */\012ELSE[ ]	/* Else */\012PUSHB[ ]	/* 2 values pushed */\01230 17 \012MIAP[0]	/* MoveIndirectAbsPt */\012EIF[ ]	/* EndIf */\012PUSHB[ ]	/* 4 values pushed */\0129 5 20 4 \012CALL[ ]	/* CallFunction */\012PUSHB[ ]	/* 1 value pushed */\0122 \012SRP0[ ]	/* SetRefPoint0 */\012PUSHB[ ]	/* 2 values pushed */\0120 8 \012MIRP[10100]	/* MoveIndirectRelPt */\012PUSHB[ ]	/* 1 value pushed */\01220 \012SRP0[ ]	/* SetRefPoint0 */\012PUSHB[ ]	/* 1 value pushed */\01215 \012MDRP[10000]	/* MoveDirectRelPt */\012PUSHB[ ]	/* 1 value pushed */\01215 \012MDAP[1]	/* MoveDirectAbsPt */\012PUSHB[ ]	/* 1 value pushed */\01220 \012SRP0[ ]	/* SetRefPoint0 */\012PUSHB[ ]	/* 1 value pushed */\01217 \012MDRP[10000]	/* MoveDirectRelPt */\012PUSHB[ ]	/* 1 value pushed */\01217 \012MDAP[1]	/* MoveDirectAbsPt */\012PUSHB[ ]	/* 1 value pushed */\0120 \012SRP0[ ]	/* SetRefPoint0 */\012PUSHB[ ]	/* 1 value pushed */\01228 \012MDRP[10000]	/* MoveDirectRelPt */\012PUSHB[ ]	/* 1 value pushed */\01229 \012MDRP[10000]	/* MoveDirectRelPt */\012IUP[0]	/* InterpolateUntPts */\012IUP[1]	/* InterpolateUntPts */";
};
width = 775;
}
);
leftKerningGroup = f;
note = f;
rightKerningGroup = f;
unicode = 0066;
},
{
glyphname = g;
lastChange = "2022-05-11 04:47:59 +0000";
layers = (
{
anchors = (
{
name = bottom;
position = "{614, -500}";
},
{
name = top;
position = "{614, 1055}";
}
);
layerId = "410E5E1C-5FD0-457E-A79B-7BF13808BDAC";
paths = (
{
closed = 1;
nodes = (
"285 -450 OFFCURVE",
"323.667 -460.333 OFFCURVE",
"365 -469 CURVE SMOOTH",
"435.667 -485 OFFCURVE",
"526.667 -500 OFFCURVE",
"620 -500 CURVE SMOOTH",
"766.667 -500 OFFCURVE",
"877.5 -478.5 OFFCURVE",
"951.5 -424.5 CURVE SMOOTH",
"1025.5 -370.5 OFFCURVE",
"1062 -284.667 OFFCURVE",
"1062 -158 CURVE SMOOTH",
"1062 1055 LINE",
"882 1055 LINE",
"855 977 LINE",
"825 995.667 OFFCURVE",
"791.667 1012.667 OFFCURVE",
"755 1028 CURVE SMOOTH",
"691 1053.333 OFFCURVE",
"602.333 1079 OFFCURVE",
"497 1079 CURVE SMOOTH",
"373 1079 OFFCURVE",
"277.167 1027.5 OFFCURVE",
"212.5 933.5 CURVE SMOOTH",
"147.833 839.5 OFFCURVE",
"114 702.667 OFFCURVE",
"114 532 CURVE SMOOTH",
"114 324 OFFCURVE",
"143.833 184 OFFCURVE",
"208.5 96 CURVE SMOOTH",
"273.167 8 OFFCURVE",
"373 -27 OFFCURVE",
"513 -27 CURVE SMOOTH",
"594.333 -27 OFFCURVE",
"670.333 -10.333 OFFCURVE",
"729 7 CURVE SMOOTH",
"762.333 17 OFFCURVE",
"794 28.333 OFFCURVE",
"824 41 CURVE",
"824 -143 LINE SMOOTH",
"824 -200.333 OFFCURVE",
"811.833 -237.5 OFFCURVE",
"772.5 -259.5 CURVE SMOOTH",
"733.167 -281.5 OFFCURVE",
"666 -289 OFFCURVE",
"554 -289 CURVE SMOOTH",
"462 -289 OFFCURVE",
"385.333 -283.667 OFFCURVE",
"332 -277 CURVE SMOOTH",
"300.667 -273.667 OFFCURVE",
"273 -269.333 OFFCURVE",
"249 -264 CURVE",
"249 -438 LINE"
);
},
{
closed = 1;
nodes = (
"489 186 OFFCURVE",
"429.667 209.5 OFFCURVE",
"399 263.5 CURVE SMOOTH",
"368.333 317.5 OFFCURVE",
"364 402 OFFCURVE",
"364 522 CURVE SMOOTH",
"364 652.667 OFFCURVE",
"375.667 738.667 OFFCURVE",
"405 792 CURVE SMOOTH",
"434.333 845.333 OFFCURVE",
"481.333 866 OFFCURVE",
"552 866 CURVE SMOOTH",
"621.333 866 OFFCURVE",
"689.333 853.333 OFFCURVE",
"740 840 CURVE SMOOTH",
"770 832.667 OFFCURVE",
"798 824.333 OFFCURVE",
"824 815 CURVE",
"824 211 LINE",
"801.333 205.667 OFFCURVE",
"777.333 201.333 OFFCURVE",
"752 198 CURVE SMOOTH",
"709.333 191.333 OFFCURVE",
"653 186 OFFCURVE",
"597 186 CURVE"
);
}
);
userData = {
assembly = "PUSHB[ ]	/* 1 value pushed */\01266 \012MDAP[1]	/* MoveDirectAbsPt */\012PUSHB[ ]	/* 1 value pushed */\01210 \012MDAP[1]	/* MoveDirectAbsPt */\012PUSHB[ ]	/* 1 value pushed */\01266 \012SRP0[ ]	/* SetRefPoint0 */\012PUSHB[ ]	/* 1 value pushed */\01221 \012MDRP[10000]	/* MoveDirectRelPt */\012PUSHB[ ]	/* 1 value pushed */\01221 \012MDAP[1]	/* MoveDirectAbsPt */\012PUSHB[ ]	/* 1 value pushed */\01210 \012SRP0[ ]	/* SetRefPoint0 */\012PUSHB[ ]	/* 2 values pushed */\01234 13 \012MIRP[10100]	/* MoveIndirectRelPt */\012PUSHB[ ]	/* 1 value pushed */\01221 \012SRP0[ ]	/* SetRefPoint0 */\012PUSHB[ ]	/* 2 values pushed */\01261 11 \012MIRP[10100]	/* MoveIndirectRelPt */\012NPUSHB[ ]	/* 11 values pushed */\0126 61 22 61 38 61 54 61 70 61 5 \012DELTAP1[ ]	/* DeltaExceptionP1 */\012PUSHB[ ]	/* 1 value pushed */\01242 \012MDRP[10000]	/* MoveDirectRelPt */\012PUSHB[ ]	/* 1 value pushed */\01242 \012MDAP[1]	/* MoveDirectAbsPt */\012PUSHB[ ]	/* 1 value pushed */\01210 \012SRP0[ ]	/* SetRefPoint0 */\012PUSHB[ ]	/* 1 value pushed */\01250 \012MDRP[10000]	/* MoveDirectRelPt */\012PUSHB[ ]	/* 1 value pushed */\01234 \012SRP0[ ]	/* SetRefPoint0 */\012PUSHB[ ]	/* 1 value pushed */\01267 \012MDRP[11100]	/* MoveDirectRelPt */\012SVTCA[0]	/* SetFreedomAndProjectionVectorToAxis */\012PUSHB[ ]	/* 1 value pushed */\0120 \012RCVT[ ]	/* ReadCVT */\012IF[ ]	/* If */\012PUSHB[ ]	/* 1 value pushed */\01232 \012MDAP[1]	/* MoveDirectAbsPt */\012ELSE[ ]	/* Else */\012PUSHB[ ]	/* 2 values pushed */\01232 21 \012MIAP[0]	/* MoveIndirectAbsPt */\012EIF[ ]	/* EndIf */\012PUSHB[ ]	/* 1 value pushed */\0120 \012RCVT[ ]	/* ReadCVT */\012IF[ ]	/* If */\012PUSHB[ ]	/* 1 value pushed */\01226 \012MDAP[1]	/* MoveDirectAbsPt */\012ELSE[ ]	/* Else */\012PUSHB[ ]	/* 2 values pushed */\01226 21 \012MIAP[0]	/* MoveIndirectAbsPt */\012EIF[ ]	/* EndIf */\012PUSHB[ ]	/* 1 value pushed */\0120 \012RCVT[ ]	/* ReadCVT */\012IF[ ]	/* If */\012PUSHB[ ]	/* 1 value pushed */\01239 \012MDAP[1]	/* MoveDirectAbsPt */\012ELSE[ ]	/* Else */\012PUSHB[ ]	/* 2 values pushed */\01239 19 \012MIAP[0]	/* MoveIndirectAbsPt */\012EIF[ ]	/* EndIf */\012PUSHB[ ]	/* 1 value pushed */\0120 \012RCVT[ ]	/* ReadCVT */\012IF[ ]	/* If */\012PUSHB[ ]	/* 1 value pushed */\01216 \012MDAP[1]	/* MoveDirectAbsPt */\012ELSE[ ]	/* Else */\012PUSHB[ ]	/* 2 values pushed */\01216 17 \012MIAP[0]	/* MoveIndirectAbsPt */\012EIF[ ]	/* EndIf */\012PUSHB[ ]	/* 1 value pushed */\01239 \012SRP0[ ]	/* SetRefPoint0 */\012PUSHB[ ]	/* 2 values pushed */\0122 5 \012MIRP[10100]	/* MoveIndirectRelPt */\012NPUSHB[ ]	/* 11 values pushed */\0127 2 23 2 39 2 55 2 71 2 5 \012DELTAP1[ ]	/* DeltaExceptionP1 */\012PUSHB[ ]	/* 1 value pushed */\0125 \012MDRP[10000]	/* MoveDirectRelPt */\012PUSHB[ ]	/* 1 value pushed */\01216 \012SRP0[ ]	/* SetRefPoint0 */\012PUSHB[ ]	/* 2 values pushed */\01245 3 \012MIRP[10100]	/* MoveIndirectRelPt */\012NPUSHB[ ]	/* 11 values pushed */\0127 45 23 45 39 45 55 45 71 45 5 \012DELTAP1[ ]	/* DeltaExceptionP1 */\012PUSHB[ ]	/* 3 values pushed */\01211 16 45 \012SRP1[ ]	/* SetRefPoint1 */\012SRP2[ ]	/* SetRefPoint2 */\012IP[ ]	/* InterpolatePts */\012PUSHB[ ]	/* 1 value pushed */\01248 \012MDRP[10000]	/* MoveDirectRelPt */\012PUSHB[ ]	/* 1 value pushed */\01248 \012MDAP[1]	/* MoveDirectAbsPt */\012PUSHB[ ]	/* 1 value pushed */\01226 \012SRP0[ ]	/* SetRefPoint0 */\012PUSHB[ ]	/* 2 values pushed */\01256 3 \012MIRP[10100]	/* MoveIndirectRelPt */\012NPUSHB[ ]	/* 11 values pushed */\0128 56 24 56 40 56 56 56 72 56 5 \012DELTAP1[ ]	/* DeltaExceptionP1 */\012IUP[0]	/* InterpolateUntPts */\012IUP[1]	/* InterpolateUntPts */";
};
width = 1228;
}
);
leftKerningGroup = g;
note = g;
rightKerningGroup = g;
unicode = 0067;
},
